<svg width="32" height="32" viewBox="0 0 32 32" fill="none" xmlns="http://www.w3.org/2000/svg">
<path d="M16.3261 14C18.298 14 19.9022 12.4295 19.9022 10.5C19.9022 8.5705 18.298 7 16.3261 7C14.3541 7 12.75 8.5705 12.75 10.5C12.75 12.4295 14.3541 14 16.3261 14ZM16.3261 8C17.7346 8 18.8804 9.1215 18.8804 10.5C18.8804 11.8785 17.7346 13 16.3261 13C14.9176 13 13.7717 11.8785 13.7717 10.5C13.7717 9.1215 14.9176 8 16.3261 8Z" fill="#FF5254"/>
<path d="M16.2357 28.3785L24.0729 17.3C27.0125 13.4645 26.5874 7.16 23.1631 3.809C21.3127 1.9975 18.8524 1 16.2357 1C13.619 1 11.1587 1.9975 9.30829 3.8085C5.88393 7.1595 5.45889 13.464 8.38668 17.2845L16.2357 28.3785ZM10.0307 4.5155C11.6884 2.8935 13.8918 2 16.2357 2C18.5796 2 20.7829 2.8935 22.4407 4.5155C25.5315 7.54 25.9121 13.234 23.2443 16.715L16.2357 26.6215L9.21582 16.7C6.5593 13.234 6.94041 7.54 10.0307 4.5155Z" fill="#FF5254"/>
<path d="M22.5163 22.5035C22.2353 22.47 21.9819 22.667 21.9492 22.9415C21.9165 23.216 22.1168 23.4645 22.3968 23.4965C27.7691 24.1155 30.6304 25.7835 30.6304 26.75C30.6304 28.107 25.1887 30 16.3261 30C7.46352 30 2.02174 28.107 2.02174 26.75C2.02174 25.7835 4.88312 24.1155 10.2554 23.4965C10.5354 23.4645 10.7356 23.2155 10.7029 22.9415C10.6697 22.667 10.4164 22.469 10.1359 22.5035C4.75694 23.1235 1 24.8695 1 26.75C1 28.862 6.26451 31 16.3261 31C26.3877 31 31.6522 28.862 31.6522 26.75C31.6522 24.8695 27.8952 23.1235 22.5163 22.5035Z" fill="#FF5254"/>
<path d="M16.3261 14C18.298 14 19.9022 12.4295 19.9022 10.5C19.9022 8.5705 18.298 7 16.3261 7C14.3541 7 12.75 8.5705 12.75 10.5C12.75 12.4295 14.3541 14 16.3261 14ZM16.3261 8C17.7346 8 18.8804 9.1215 18.8804 10.5C18.8804 11.8785 17.7346 13 16.3261 13C14.9176 13 13.7717 11.8785 13.7717 10.5C13.7717 9.1215 14.9176 8 16.3261 8Z" stroke="#FF5254" stroke-width="0.5"/>
<path d="M16.2357 28.3785L24.0729 17.3C27.0125 13.4645 26.5874 7.16 23.1631 3.809C21.3127 1.9975 18.8524 1 16.2357 1C13.619 1 11.1587 1.9975 9.30829 3.8085C5.88393 7.1595 5.45889 13.464 8.38668 17.2845L16.2357 28.3785ZM10.0307 4.5155C11.6884 2.8935 13.8918 2 16.2357 2C18.5796 2 20.7829 2.8935 22.4407 4.5155C25.5315 7.54 25.9121 13.234 23.2443 16.715L16.2357 26.6215L9.21582 16.7C6.5593 13.234 6.94041 7.54 10.0307 4.5155Z" stroke="#FF5254" stroke-width="0.5"/>
<path d="M22.5163 22.5035C22.2353 22.47 21.9819 22.667 21.9492 22.9415C21.9165 23.216 22.1168 23.4645 22.3968 23.4965C27.7691 24.1155 30.6304 25.7835 30.6304 26.75C30.6304 28.107 25.1887 30 16.3261 30C7.46352 30 2.02174 28.107 2.02174 26.75C2.02174 25.7835 4.88312 24.1155 10.2554 23.4965C10.5354 23.4645 10.7356 23.2155 10.7029 22.9415C10.6697 22.667 10.4164 22.469 10.1359 22.5035C4.75694 23.1235 1 24.8695 1 26.75C1 28.862 6.26451 31 16.3261 31C26.3877 31 31.6522 28.862 31.6522 26.75C31.6522 24.8695 27.8952 23.1235 22.5163 22.5035Z" stroke="#FF5254" stroke-width="0.5"/>
</svg>
