<svg width="101" height="30" viewBox="0 0 101 30" fill="none" xmlns="http://www.w3.org/2000/svg">
<rect width="100.494" height="30" rx="2.46914" fill="black"/>
<path d="M9.29097 6.17175C9.08208 6.38064 9.01245 6.72878 9.01245 7.14655V22.5345C9.01245 22.9522 9.15171 23.3004 9.36059 23.5093L9.43022 23.5789L18.0642 14.945V14.8057L9.29097 6.17175Z" fill="url(#paint0_linear)"/>
<path d="M20.8494 17.8694L17.9946 15.0146V14.8057L20.8494 11.9509L20.919 12.0206L24.3308 13.9702C25.3056 14.5272 25.3056 15.4324 24.3308 15.9894L20.8494 17.8694Z" fill="url(#paint1_linear)"/>
<path d="M20.919 17.7996L17.9946 14.8752L9.29102 23.5788C9.63916 23.927 10.1266 23.927 10.7532 23.6484L20.919 17.7996Z" fill="url(#paint2_linear)"/>
<path d="M20.919 11.9508L10.7532 6.17164C10.1266 5.82349 9.63916 5.89312 9.29102 6.24126L17.9946 14.8752L20.919 11.9508Z" fill="url(#paint3_linear)"/>
<path opacity="0.2" d="M20.8494 17.7301L10.7532 23.4396C10.1962 23.7878 9.70879 23.7182 9.36064 23.4396L9.29102 23.5093L9.36064 23.5789C9.70879 23.8574 10.1962 23.927 10.7532 23.5789L20.8494 17.7301Z" fill="black"/>
<path opacity="0.2" d="M9.29097 23.4396C9.08208 23.2307 9.01245 22.8825 9.01245 22.4648V22.5344C9.01245 22.9522 9.15171 23.3003 9.36059 23.5092V23.4396H9.29097ZM24.3307 15.7804L20.8493 17.73L20.9189 17.7996L24.3307 15.85C24.8181 15.5715 25.027 15.2234 25.027 14.8752C25.027 15.2234 24.7485 15.5019 24.3307 15.7804Z" fill="black"/>
<path opacity="0.2" d="M10.7532 6.24119L24.3307 13.97C24.7485 14.2485 25.027 14.527 25.027 14.8751C25.027 14.527 24.8181 14.1788 24.3307 13.9003L10.7532 6.17156C9.77837 5.61453 9.01245 6.0323 9.01245 7.14636V7.21599C9.01245 6.17156 9.77837 5.68416 10.7532 6.24119Z" fill="white"/>
<path d="M49.0938 14.2632C47.3636 14.2632 45.9939 15.565 45.9939 17.373C45.9939 19.1087 47.3636 20.4828 49.0938 20.4828C50.8239 20.4828 52.1936 19.181 52.1936 17.373C52.1936 15.4927 50.8239 14.2632 49.0938 14.2632ZM49.0938 19.181C48.1566 19.181 47.3636 18.3855 47.3636 17.3007C47.3636 16.2159 48.1566 15.4203 49.0938 15.4203C50.0309 15.4203 50.8239 16.1436 50.8239 17.3007C50.8239 18.3855 50.0309 19.181 49.0938 19.181ZM42.3895 14.2632C40.6593 14.2632 39.2896 15.565 39.2896 17.373C39.2896 19.1087 40.6593 20.4828 42.3895 20.4828C44.1196 20.4828 45.4893 19.181 45.4893 17.373C45.4893 15.4927 44.1196 14.2632 42.3895 14.2632ZM42.3895 19.181C41.4523 19.181 40.6593 18.3855 40.6593 17.3007C40.6593 16.2159 41.4523 15.4203 42.3895 15.4203C43.3266 15.4203 44.1196 16.1436 44.1196 17.3007C44.1196 18.3855 43.3266 19.181 42.3895 19.181ZM34.3875 15.2034V16.5052H37.4874C37.4153 17.2284 37.1269 17.8069 36.7665 18.1685C36.334 18.6025 35.6131 19.1087 34.3875 19.1087C32.4411 19.1087 30.9993 17.59 30.9993 15.6373C30.9993 13.6846 32.5132 12.1659 34.3875 12.1659C35.3968 12.1659 36.1898 12.5998 36.7665 13.1061L37.7037 12.1659C36.9107 11.4427 35.9014 10.8641 34.4596 10.8641C31.8644 10.8641 29.6296 13.0338 29.6296 15.6373C29.6296 18.2409 31.8644 20.4105 34.4596 20.4105C35.9014 20.4105 36.9107 19.9766 37.7757 19.0364C38.6408 18.1685 38.9292 16.9391 38.9292 15.9989C38.9292 15.7096 38.9292 15.4203 38.8571 15.2034H34.3875ZM67.1161 16.2159C66.8278 15.4927 66.1069 14.2632 64.5209 14.2632C62.935 14.2632 61.6373 15.4927 61.6373 17.373C61.6373 19.1087 62.935 20.4828 64.6651 20.4828C66.0348 20.4828 66.8999 19.615 67.1882 19.1087L66.179 18.3855C65.8185 18.8917 65.386 19.2534 64.6651 19.2534C63.9442 19.2534 63.5117 18.9641 63.1512 18.3132L67.2603 16.5775L67.1161 16.2159ZM62.935 17.2284C62.935 16.0712 63.8721 15.4203 64.5209 15.4203C65.0255 15.4203 65.5302 15.7096 65.6744 16.0712L62.935 17.2284ZM59.5468 20.1935H60.9165V11.1534H59.5468V20.1935ZM57.3841 14.9141C57.0236 14.5525 56.4469 14.1909 55.726 14.1909C54.2121 14.1909 52.7703 15.565 52.7703 17.3007C52.7703 19.0364 54.14 20.3382 55.726 20.3382C56.4469 20.3382 57.0236 19.9766 57.312 19.615H57.3841V20.0489C57.3841 21.206 56.7353 21.8569 55.726 21.8569C54.933 21.8569 54.3563 21.2783 54.2121 20.7721L53.0587 21.2783C53.4191 22.0739 54.2842 23.0864 55.7981 23.0864C57.3841 23.0864 58.6817 22.1462 58.6817 19.9042V14.4079H57.3841V14.9141ZM55.7981 19.181C54.8609 19.181 54.068 18.3855 54.068 17.3007C54.068 16.2159 54.8609 15.4203 55.7981 15.4203C56.7353 15.4203 57.4562 16.2159 57.4562 17.3007C57.4562 18.3855 56.7353 19.181 55.7981 19.181ZM73.3879 11.1534H70.1439V20.1935H71.5136V16.7944H73.3879C74.9018 16.7944 76.3436 15.7096 76.3436 13.9739C76.3436 12.2382 74.9018 11.1534 73.3879 11.1534ZM73.46 15.4927H71.5136V12.3829H73.46C74.4693 12.3829 75.046 13.2507 75.046 13.9016C74.9739 14.6971 74.3972 15.4927 73.46 15.4927ZM81.7503 14.1909C80.741 14.1909 79.7318 14.6248 79.3713 15.565L80.5969 16.0712C80.8852 15.565 81.3178 15.4203 81.8224 15.4203C82.5433 15.4203 83.1921 15.8543 83.2642 16.5775V16.6498C83.0479 16.5052 82.4712 16.2882 81.8945 16.2882C80.5969 16.2882 79.2993 17.0114 79.2993 18.3132C79.2993 19.5426 80.3806 20.3382 81.534 20.3382C82.4712 20.3382 82.9037 19.9042 83.2642 19.4703H83.3363V20.1935H84.6339V16.7221C84.4897 15.1311 83.2642 14.1909 81.7503 14.1909ZM81.6061 19.181C81.1736 19.181 80.5248 18.9641 80.5248 18.3855C80.5248 17.6623 81.3178 17.4453 81.9666 17.4453C82.5433 17.4453 82.8316 17.59 83.1921 17.7346C83.0479 18.6025 82.327 19.181 81.6061 19.181ZM89.1755 14.4079L87.6616 18.3132H87.5895L86.0036 14.4079H84.5618L86.9407 19.9042L85.571 22.9417H86.9407L90.6173 14.4079H89.1755ZM77.0645 20.1935H78.4342V11.1534H77.0645V20.1935Z" fill="white"/>
<defs>
<linearGradient id="paint0_linear" x1="17.2286" y1="7.01426" x2="5.54286" y2="18.6993" gradientUnits="userSpaceOnUse">
<stop stop-color="#00A0FF"/>
<stop offset="0.007" stop-color="#00A1FF"/>
<stop offset="0.26" stop-color="#00BEFF"/>
<stop offset="0.512" stop-color="#00D2FF"/>
<stop offset="0.76" stop-color="#00DFFF"/>
<stop offset="1" stop-color="#00E3FF"/>
</linearGradient>
<linearGradient id="paint1_linear" x1="25.6078" y1="14.876" x2="8.75979" y2="14.876" gradientUnits="userSpaceOnUse">
<stop stop-color="#FFE000"/>
<stop offset="0.409" stop-color="#FFBD00"/>
<stop offset="0.775" stop-color="#FFA500"/>
<stop offset="1" stop-color="#FF9C00"/>
</linearGradient>
<linearGradient id="paint2_linear" x1="19.3363" y1="16.4739" x2="3.49026" y2="32.32" gradientUnits="userSpaceOnUse">
<stop stop-color="#FF3A44"/>
<stop offset="1" stop-color="#C31162"/>
</linearGradient>
<linearGradient id="paint3_linear" x1="7.13044" y1="1.07204" x2="14.2068" y2="8.14839" gradientUnits="userSpaceOnUse">
<stop stop-color="#32A071"/>
<stop offset="0.069" stop-color="#2DA771"/>
<stop offset="0.476" stop-color="#15CF74"/>
<stop offset="0.801" stop-color="#06E775"/>
<stop offset="1" stop-color="#00F076"/>
</linearGradient>
</defs>
</svg>
