<svg width="101" height="30" viewBox="0 0 101 30" fill="none" xmlns="http://www.w3.org/2000/svg">
<rect x="0.24707" width="100.494" height="30" rx="2.46914" fill="black"/>
<path d="M25.5123 14.5934C25.4919 12.3291 27.3662 11.2275 27.4519 11.1762C26.3904 9.62842 24.7451 9.41695 24.167 9.40009C22.7851 9.25466 21.4447 10.227 20.7408 10.227C20.0229 10.227 18.9389 9.41414 17.7706 9.43803C16.2672 9.46121 14.8608 10.3317 14.0895 11.6834C12.4976 14.4396 13.6848 18.4898 15.21 20.7177C15.9729 21.8094 16.8644 23.027 18.0312 22.9841C19.1728 22.9378 19.5992 22.257 20.9769 22.257C22.3418 22.257 22.7423 22.9841 23.9323 22.9567C25.1575 22.9378 25.9289 21.8607 26.6651 20.7598C27.5467 19.51 27.9008 18.2777 27.9148 18.2144C27.8867 18.2046 25.5361 17.3067 25.5123 14.5934ZM23.2642 7.93454C23.8782 7.16664 24.2983 6.12193 24.1817 5.06177C23.293 5.10111 22.1817 5.67651 21.5417 6.42755C20.9755 7.08936 20.4697 8.17412 20.6003 9.19424C21.5986 9.26871 22.6235 8.6905 23.2642 7.93454Z" fill="white"/>
<path d="M39.498 20.2292H37.9025L37.0286 17.4828H33.9908L33.1583 20.2292H31.605L34.6153 10.8791H36.4743L39.498 20.2292ZM36.7651 16.3305L35.9747 13.889C35.8911 13.6396 35.7338 13.0522 35.5033 12.1276H35.4752C35.3825 12.5253 35.2343 13.1127 35.0312 13.889L34.2542 16.3305H36.7651ZM47.2244 16.7753C47.2244 17.9219 46.9132 18.8282 46.2901 19.4936C45.7323 20.0858 45.0389 20.3816 44.212 20.3816C43.3191 20.3816 42.6769 20.0634 42.287 19.4254V22.9629H40.7892V15.7031C40.7892 14.9829 40.7703 14.2445 40.7337 13.4871H42.051L42.1346 14.5558H42.1627C42.6622 13.7506 43.4202 13.348 44.4375 13.348C45.2328 13.348 45.8967 13.6621 46.4278 14.2909C46.9582 14.9211 47.2244 15.7488 47.2244 16.7753ZM45.6985 16.8301C45.6985 16.1738 45.551 15.6328 45.2545 15.2064C44.9307 14.763 44.4958 14.541 43.9506 14.541C43.5811 14.541 43.2453 14.6647 42.9453 14.9085C42.6446 15.1544 42.4479 15.4755 42.3559 15.8731C42.3148 16.0218 42.2914 16.1749 42.2863 16.3291V17.454C42.2863 17.9437 42.4367 18.3575 42.7374 18.6961C43.038 19.0334 43.4286 19.2027 43.9092 19.2027C44.4733 19.2027 44.9124 18.9842 45.2264 18.5507C45.5412 18.1158 45.6985 17.5425 45.6985 16.8301ZM54.9783 16.7753C54.9783 17.9219 54.6671 18.8282 54.044 19.4936C53.4854 20.0858 52.7927 20.3816 51.9652 20.3816C51.0722 20.3816 50.4301 20.0634 50.0402 19.4254V22.9629H48.5424V15.7031C48.5424 14.9829 48.5234 14.2445 48.4869 13.4871H49.8042L49.8878 14.5558H49.9159C50.4147 13.7506 51.1727 13.348 52.1907 13.348C52.9852 13.348 53.6491 13.6621 54.1817 14.2909C54.7114 14.9211 54.9783 15.7488 54.9783 16.7753ZM53.4517 16.8301C53.4517 16.1738 53.3035 15.6328 53.007 15.2064C52.6831 14.763 52.2497 14.541 51.7045 14.541C51.335 14.541 50.9992 14.6647 50.6978 14.9085C50.3971 15.1544 50.2011 15.4755 50.1091 15.8731C50.0634 16.0586 50.0388 16.2097 50.0388 16.3291V17.454C50.0388 17.9437 50.1898 18.3575 50.4891 18.6961C50.7898 19.0327 51.1804 19.2027 51.6624 19.2027C52.2272 19.2027 52.6663 18.9842 52.9796 18.5507C53.2943 18.1158 53.4517 17.5425 53.4517 16.8301ZM63.6476 17.6064C63.6476 18.4024 63.3694 19.0495 62.8165 19.5491C62.2081 20.0943 61.3588 20.3676 60.2698 20.3676C59.2638 20.3676 58.4573 20.1737 57.8489 19.7851L58.1952 18.5366C58.8521 18.9259 59.5736 19.1198 60.359 19.1198C60.9239 19.1198 61.363 18.9919 61.6763 18.7383C61.9903 18.4839 62.1491 18.1439 62.1491 17.7195C62.1491 17.3394 62.0177 17.0212 61.7599 16.7619C61.5007 16.5033 61.0721 16.2624 60.47 16.041C58.8331 15.4305 58.014 14.5375 58.014 13.3628C58.014 12.5956 58.3034 11.9674 58.8809 11.4763C59.4584 10.9859 60.2242 10.7407 61.1768 10.7407C62.0276 10.7407 62.7364 10.889 63.2991 11.1848L62.9233 12.4059C62.3936 12.1192 61.7957 11.9759 61.1269 11.9759C60.5986 11.9759 60.1841 12.1059 59.8876 12.3644C59.6382 12.5956 59.5118 12.8773 59.5118 13.2117C59.5118 13.5806 59.6558 13.8869 59.9424 14.1272C60.1911 14.3485 60.645 14.5895 61.3011 14.8481C62.1062 15.1726 62.6978 15.5506 63.0764 15.9848C63.4579 16.419 63.6476 16.9607 63.6476 17.6064ZM68.6124 14.6113H66.9615V17.8846C66.9615 18.7172 67.2523 19.1324 67.8354 19.1324C68.1031 19.1324 68.3251 19.11 68.5007 19.0629L68.5422 20.2004C68.2471 20.3107 67.8586 20.3662 67.3774 20.3662C66.7858 20.3662 66.3236 20.1856 65.9899 19.8245C65.6576 19.4634 65.4904 18.8584 65.4904 18.0069V14.6085H64.5068V13.4843H65.4904V12.2499L66.9615 11.8058V13.4843H68.6124V14.6113ZM76.0467 16.8027C76.0467 17.839 75.7502 18.6898 75.1586 19.3552C74.5397 20.0402 73.7163 20.3816 72.6899 20.3816C71.6994 20.3816 70.9118 20.0535 70.3245 19.398C69.7372 18.7411 69.4435 17.9134 69.4435 16.9151C69.4435 15.8703 69.747 15.0146 70.3519 14.3492C70.9582 13.6832 71.7745 13.3501 72.8009 13.3501C73.7901 13.3501 74.5847 13.6789 75.186 14.3352C75.7607 14.9717 76.0467 15.7937 76.0467 16.8027ZM74.494 16.8371C74.494 16.2195 74.3606 15.6898 74.0929 15.2464C73.7789 14.711 73.3292 14.4434 72.7468 14.4434C72.1469 14.4434 71.6867 14.711 71.3734 15.2464C71.105 15.6898 70.9715 16.2286 70.9715 16.8652C70.9715 17.4835 71.105 18.0146 71.3734 18.4565C71.6973 18.9919 72.149 19.2596 72.7342 19.2596C73.3068 19.2596 73.7557 18.9863 74.0803 18.4432C74.3556 17.9893 74.494 17.4561 74.494 16.8371ZM80.9173 14.8045C80.7615 14.7764 80.6035 14.7625 80.4452 14.763C79.9183 14.763 79.5108 14.9612 79.2242 15.3602C78.9755 15.7115 78.8505 16.1556 78.8505 16.6916V20.2292H77.3527V15.6104C77.354 14.9026 77.3395 14.1949 77.3091 13.4878H78.6137L78.6685 14.7778H78.71C78.8687 14.3345 79.1174 13.9768 79.4589 13.7092C79.7714 13.4753 80.1511 13.3486 80.5415 13.348C80.6799 13.348 80.8049 13.3579 80.9159 13.3754L80.9173 14.8045ZM87.616 16.5392C87.6198 16.7669 87.6014 16.9944 87.5612 17.2186H83.0678C83.0846 17.8846 83.3024 18.3947 83.7197 18.746C84.0984 19.0594 84.5881 19.2167 85.1894 19.2167C85.8547 19.2167 86.4617 19.1114 87.0076 18.8985L87.2422 19.9376C86.6043 20.2158 85.8512 20.3542 84.9822 20.3542C83.9368 20.3542 83.1163 20.0465 82.5191 19.4324C81.9234 18.8177 81.6248 17.9914 81.6248 16.9565C81.6248 15.9406 81.9023 15.094 82.458 14.4188C83.0397 13.6979 83.8258 13.3375 84.815 13.3375C85.7866 13.3375 86.5221 13.6979 87.0217 14.4188C87.4172 14.99 87.616 15.6982 87.616 16.5392ZM86.1877 16.1507C86.1983 15.7059 86.0999 15.323 85.8969 14.9991C85.6377 14.5818 85.2386 14.3738 84.704 14.3738C84.2143 14.3738 83.8153 14.5769 83.5118 14.9844C83.2624 15.3082 83.1142 15.6975 83.0685 16.1492L86.1877 16.1507Z" fill="white"/>
</svg>
