<svg width="60" height="60" viewBox="0 0 60 60" fill="none" xmlns="http://www.w3.org/2000/svg">
<circle opacity="0.4" cx="30" cy="30" r="30" transform="rotate(-180 30 30)" fill="black"/>
<path d="M22.14 31.0145L33.7103 42.5846C33.9779 42.8525 34.3351 43 34.716 43C35.0969 43 35.4542 42.8525 35.7218 42.5846L36.5739 41.7328C37.1283 41.1777 37.1283 40.2755 36.5739 39.7213L26.858 30.0054L36.5846 20.2787C36.8522 20.0109 37 19.6539 37 19.2732C37 18.8921 36.8522 18.535 36.5846 18.267L35.7326 17.4154C35.4647 17.1475 35.1077 17 34.7268 17C34.3459 17 33.9887 17.1475 33.7211 17.4154L22.14 28.996C21.8717 29.2647 21.7244 29.6234 21.7252 30.0048C21.7244 30.3876 21.8717 30.7461 22.14 31.0145Z" fill="white"/>
</svg>
