<svg width="65" height="56" viewBox="0 0 65 56" fill="none" xmlns="http://www.w3.org/2000/svg">
<g clip-path="url(#clip0)">
<path d="M63.0327 21.3286C63.0327 20.7902 62.7261 20.2861 62.2123 19.9796L29.205 0.291703C28.8865 0.101828 28.5084 0 28.1211 0H3.87305C3.3679 0 2.88357 0.172922 2.52658 0.480594C2.16934 0.788266 1.96875 1.20553 1.96875 1.64062L1.96926 54.3594C1.96926 55.2654 2.82187 56 3.87355 56H39.5469C40.5985 56 41.4512 55.2654 41.4512 54.3594C41.4512 45.0115 50.2785 37.4064 61.1286 37.4062C61.6338 37.4062 62.1181 37.2333 62.4751 36.9257C62.8322 36.618 63.0329 36.2007 63.0329 35.7655L63.0327 21.3286ZM37.7191 52.7187H5.77785V46.1562H39.6604C38.6092 48.1901 37.9361 50.3998 37.7191 52.7187ZM41.803 42.875H5.77772L5.77734 3.28125H27.5262L59.2241 22.1881L59.2243 34.1908C52.0091 34.6921 45.7052 38.0158 41.803 42.875Z" fill="#FF5254"/>
<path d="M47.9213 19.4275L26.5942 6.84939C26.2774 6.66247 25.9023 6.5625 25.5184 6.5625H11.4902C10.4386 6.5625 9.58594 7.29706 9.58594 8.20312V20.781C9.58594 21.6871 10.4386 22.4217 11.4902 22.4217L46.8457 22.4219C47.6805 22.4219 48.418 21.9534 48.6648 21.2663C48.9117 20.5792 48.6103 19.8337 47.9213 19.4275ZM13.3945 19.1404V9.84375H24.929L40.6926 19.1406L13.3945 19.1404Z" fill="#FF5254"/>
<path d="M17.584 27.4531H11.4902C10.4386 27.4531 9.58594 28.1877 9.58594 29.0938C9.58594 29.9998 10.4386 30.7344 11.4902 30.7344H17.584C18.6357 30.7344 19.4883 29.9998 19.4883 29.0938C19.4883 28.1877 18.6357 27.4531 17.584 27.4531Z" fill="#FF5254"/>
</g>
<defs>
<clipPath id="clip0">
<rect width="65" height="56" fill="white"/>
</clipPath>
</defs>
</svg>
