<svg width="22" height="22" viewBox="0 0 22 22" fill="none" xmlns="http://www.w3.org/2000/svg">
<path fill-rule="evenodd" clip-rule="evenodd" d="M12.1502 2.23604C11.8119 1.08791 10.1867 1.08791 9.84844 2.23604L9.71919 2.67466C9.61049 3.04309 9.42075 3.38253 9.16387 3.66813C8.90699 3.95373 8.58947 4.17825 8.23459 4.32524C7.8797 4.47223 7.49642 4.53797 7.11283 4.51765C6.72924 4.49733 6.35506 4.39146 6.01769 4.20779L5.61619 3.98779C4.56569 3.41716 3.41619 4.56529 3.98819 5.61716L4.20681 6.01866C4.39048 6.35604 4.49635 6.73022 4.51667 7.11381C4.53699 7.4974 4.47125 7.88067 4.32426 8.23556C4.17727 8.59045 3.95275 8.90796 3.66715 9.16484C3.38156 9.42172 3.04211 9.61146 2.67369 9.72016L2.23506 9.84941C1.08694 10.1877 1.08694 11.8129 2.23506 12.1512L2.67369 12.2804C3.0423 12.3891 3.38193 12.5788 3.66767 12.8358C3.95342 13.0928 4.17802 13.4105 4.32503 13.7655C4.47204 14.1206 4.53773 14.5041 4.51727 14.8878C4.49682 15.2716 4.39074 15.6459 4.20681 15.9833L3.98681 16.3834C3.41619 17.4339 4.56431 18.5834 5.61619 18.0114L6.01769 17.7928C6.35515 17.6091 6.72942 17.5033 7.11309 17.4831C7.49675 17.4629 7.88008 17.5287 8.23499 17.6758C8.5899 17.823 8.90739 18.0476 9.1642 18.3334C9.42102 18.6192 9.61064 18.9587 9.71919 19.3273L9.84844 19.7645C10.1867 20.9127 11.8119 20.9127 12.1502 19.7645L12.2794 19.3259C12.3881 18.9573 12.5779 18.6177 12.8348 18.3319C13.0918 18.0462 13.4095 17.8216 13.7645 17.6746C14.1196 17.5276 14.5031 17.4619 14.8868 17.4823C15.2706 17.5028 15.6449 17.6089 15.9823 17.7928L16.3824 18.0128C17.4329 18.5834 18.5824 17.4353 18.0104 16.3834L17.7918 15.9833C17.6079 15.6458 17.5019 15.2714 17.4815 14.8875C17.4611 14.5037 17.5269 14.1202 17.6741 13.7651C17.8212 13.41 18.046 13.0924 18.3319 12.8355C18.6178 12.5786 18.9576 12.3889 19.3263 12.2804L19.7636 12.1512C20.9117 11.8129 20.9117 10.1877 19.7636 9.84941L19.3249 9.72016C18.9565 9.61146 18.6171 9.42172 18.3315 9.16484C18.0459 8.90796 17.8214 8.59045 17.6744 8.23556C17.5274 7.88067 17.4616 7.4974 17.482 7.11381C17.5023 6.73022 17.6081 6.35604 17.7918 6.01866L18.0118 5.61716C18.5824 4.56666 17.4343 3.41716 16.3824 3.98916L15.9823 4.20779C15.6448 4.39197 15.2704 4.49826 14.8865 4.51885C14.5026 4.53944 14.1189 4.47382 13.7637 4.32679C13.4084 4.17976 13.0906 3.95506 12.8335 3.66917C12.5765 3.38329 12.3867 3.04347 12.2781 2.67466L12.1488 2.23604H12.1502ZM8.52981 1.84691C9.25444 -0.614336 12.7442 -0.614336 13.4688 1.84691L13.5981 2.28554C13.6487 2.45735 13.7371 2.61566 13.8568 2.74886C13.9766 2.88206 14.1246 2.98678 14.29 3.05534C14.4555 3.1239 14.6342 3.15456 14.8131 3.14508C14.9919 3.13559 15.1664 3.08621 15.3237 3.00054L15.7252 2.78054C17.9802 1.55404 20.4469 4.01941 19.2177 6.27441L18.9991 6.67591C18.9134 6.8332 18.864 7.00767 18.8545 7.18653C18.845 7.36538 18.8757 7.54409 18.9443 7.70956C19.0128 7.87502 19.1175 8.02305 19.2507 8.14279C19.3839 8.26252 19.5423 8.35093 19.7141 8.40154L20.1527 8.53079C22.6139 9.25541 22.6139 12.7452 20.1527 13.4698L19.7141 13.599C19.5423 13.6496 19.3839 13.7381 19.2507 13.8578C19.1175 13.9775 19.0128 14.1256 18.9443 14.291C18.8757 14.4565 18.845 14.6352 18.8545 14.8141C18.864 14.9929 18.9134 15.1674 18.9991 15.3247L19.2191 15.7262C20.4469 17.9812 17.9788 20.4479 15.7252 19.2187L15.3237 19C15.1664 18.9144 14.9919 18.865 14.8131 18.8555C14.6342 18.846 14.4555 18.8767 14.29 18.9452C14.1246 19.0138 13.9766 19.1185 13.8568 19.2517C13.7371 19.3849 13.6487 19.5432 13.5981 19.715L13.4688 20.1537C12.7442 22.6149 9.25444 22.6149 8.52981 20.1537L8.40056 19.715C8.34996 19.5432 8.26155 19.3849 8.14181 19.2517C8.02207 19.1185 7.87405 19.0138 7.70858 18.9452C7.54312 18.8767 7.36441 18.846 7.18555 18.8555C7.00669 18.865 6.83223 18.9144 6.67494 19L6.27344 19.22C4.01844 20.4479 1.55306 17.9798 2.78094 15.7262L2.99956 15.3247C3.08523 15.1674 3.13462 14.9929 3.1441 14.8141C3.15358 14.6352 3.12292 14.4565 3.05436 14.291C2.9858 14.1256 2.88108 13.9775 2.74788 13.8578C2.61468 13.7381 2.45637 13.6496 2.28456 13.599L1.84594 13.4698C-0.615312 12.7452 -0.615312 9.25541 1.84594 8.53079L2.28456 8.40154C2.45637 8.35093 2.61468 8.26252 2.74788 8.14279C2.88108 8.02305 2.9858 7.87502 3.05436 7.70956C3.12292 7.54409 3.15358 7.36538 3.1441 7.18653C3.13462 7.00767 3.08523 6.8332 2.99956 6.67591L2.77956 6.27441C1.55306 4.01941 4.01981 1.55404 6.27344 2.78191L6.67494 3.00054C6.83223 3.08621 7.00669 3.13559 7.18555 3.14508C7.36441 3.15456 7.54312 3.1239 7.70858 3.05534C7.87405 2.98678 8.02207 2.88206 8.14181 2.74886C8.26155 2.61566 8.34996 2.45735 8.40056 2.28554L8.52981 1.84691Z" fill="white"/>
<path fill-rule="evenodd" clip-rule="evenodd" d="M10.9984 7.91211C10.1794 7.91211 9.39384 8.23748 8.81468 8.81664C8.23552 9.3958 7.91016 10.1813 7.91016 11.0004C7.91016 11.8194 8.23552 12.6049 8.81468 13.1841C9.39384 13.7632 10.1794 14.0886 10.9984 14.0886C11.8175 14.0886 12.603 13.7632 13.1821 13.1841C13.7613 12.6049 14.0867 11.8194 14.0867 11.0004C14.0867 10.1813 13.7613 9.3958 13.1821 8.81664C12.603 8.23748 11.8175 7.91211 10.9984 7.91211ZM6.53516 11.0004C6.53516 10.4142 6.6506 9.83385 6.8749 9.29235C7.0992 8.75084 7.42796 8.25882 7.84241 7.84437C8.25686 7.42991 8.74889 7.10115 9.29039 6.87685C9.8319 6.65256 10.4123 6.53711 10.9984 6.53711C11.5845 6.53711 12.1649 6.65256 12.7064 6.87685C13.2479 7.10115 13.7399 7.42991 14.1544 7.84437C14.5689 8.25882 14.8976 8.75084 15.1219 9.29235C15.3462 9.83385 15.4617 10.4142 15.4617 11.0004C15.4617 12.1841 14.9914 13.3193 14.1544 14.1564C13.3174 14.9934 12.1821 15.4636 10.9984 15.4636C9.81468 15.4636 8.67943 14.9934 7.84241 14.1564C7.00539 13.3193 6.53516 12.1841 6.53516 11.0004Z" fill="white"/>
</svg>
