<svg width="24" height="24" viewBox="0 0 24 24" fill="none" xmlns="http://www.w3.org/2000/svg">
<path d="M20.6297 10.2034L20.6512 10.2679L20.7138 10.2943C21.3805 10.5748 21.85 11.2338 21.85 12V16.9995C21.8489 17.3296 21.7591 17.6533 21.5901 17.9368C21.4211 18.2204 21.179 18.4533 20.8892 18.6113L20.7923 18.6642L20.8139 18.7724C20.8193 18.7992 20.8277 18.8304 20.834 18.8536C20.8364 18.8624 20.8385 18.87 20.84 18.8759C20.847 18.9036 20.85 18.922 20.85 18.938V21C20.85 21.2254 20.7604 21.4416 20.601 21.601C20.4416 21.7604 20.2254 21.85 20 21.85H19C18.7746 21.85 18.5584 21.7604 18.399 21.601C18.2396 21.4416 18.15 21.2254 18.15 21V19V18.85H18H6H5.85V19V21C5.85 21.2254 5.76045 21.4416 5.60104 21.601C5.44163 21.7604 5.22543 21.85 5 21.85H4C3.77457 21.85 3.55836 21.7604 3.39896 21.601C3.23955 21.4416 3.15 21.2254 3.15 21V18.938C3.15 18.9221 3.15294 18.904 3.15998 18.8764C3.16144 18.8707 3.16344 18.8633 3.16573 18.8549C3.17209 18.8315 3.18067 18.7999 3.18617 18.772L3.2073 18.6647L3.11165 18.6118C2.54008 18.2954 2.15 17.6948 2.15 17V12.0001C2.15057 11.6356 2.25864 11.2793 2.46069 10.9759C2.66277 10.6725 2.94986 10.4354 3.28604 10.2943L3.34879 10.268L3.37031 10.2034L4.73831 6.09843L4.73835 6.09828C4.92686 5.53069 5.28945 5.03694 5.7746 4.68719C6.25975 4.33743 6.84279 4.14947 7.44087 4.15H7.441L16.559 4.15L16.5591 4.15C17.1572 4.14947 17.7402 4.33743 18.2254 4.68719C18.7105 5.03694 19.0731 5.53069 19.2616 6.09828L19.2617 6.09843L20.6297 10.2034ZM3.85 17V17.15H4H20.002H20.1521L20.152 16.9999L20.15 11.9999L20.1499 11.85H20H4H3.85V12V17ZM18.613 10.15H18.8212L18.7553 9.95254L17.6494 6.63678C17.4929 6.16509 17.0533 5.85 16.558 5.85H7.44104C7.44102 5.85 7.44101 5.85 7.441 5.85C7.19955 5.84995 6.96421 5.9259 6.76834 6.06707C6.57246 6.20826 6.42599 6.40751 6.34969 6.6366L5.24469 9.95258L5.17891 10.15H5.387H18.613Z" fill="#333333" stroke="white" stroke-width="0.3"/>
<path d="M6.98965 15.6609C7.63115 15.6609 8.15118 15.1409 8.15118 14.4994C8.15118 13.8579 7.63115 13.3379 6.98965 13.3379C6.34816 13.3379 5.82812 13.8579 5.82812 14.4994C5.82812 15.1409 6.34816 15.6609 6.98965 15.6609Z" fill="#333333"/>
<path d="M17.0092 15.6609C17.6507 15.6609 18.1707 15.1409 18.1707 14.4994C18.1707 13.8579 17.6507 13.3379 17.0092 13.3379C16.3677 13.3379 15.8477 13.8579 15.8477 14.4994C15.8477 15.1409 16.3677 15.6609 17.0092 15.6609Z" fill="#333333"/>
</svg>
