<svg width="65" height="65" viewBox="0 0 65 65" fill="none" xmlns="http://www.w3.org/2000/svg">
<path d="M26.4062 26.4139C27.1498 25.6703 27.1498 24.4645 26.4062 23.7208C25.6627 22.9772 24.4571 22.9772 23.7135 23.7208C22.97 24.4645 22.97 25.6703 23.7135 26.4139C24.4571 27.1576 25.6627 27.1576 26.4062 26.4139Z" fill="#FF5254"/>
<path d="M61.092 42.2481C57.4309 38.5863 51.9922 37.4042 47.1887 39.116L35.8352 27.7607L37.3586 26.237L40.8474 26.9348C41.4713 27.0597 42.1169 26.8642 42.5672 26.414L46.8759 22.1047C47.233 21.7475 47.4337 21.2631 47.4337 20.7581C47.4337 20.253 47.2331 19.7686 46.8759 19.4115L28.0255 0.55782C27.2819 -0.18594 26.0762 -0.18594 25.3326 0.55782L0.557736 25.3365C-0.185912 26.0803 -0.185912 27.2861 0.557736 28.0299L19.4083 46.8834C19.7654 47.2405 20.2497 47.4413 20.7547 47.4413C21.2596 47.4413 21.7441 47.2405 22.101 46.8834L26.4096 42.5741C26.8597 42.1238 27.0552 41.4784 26.9304 40.8541L26.2327 37.3646L27.7563 35.8407L39.11 47.1962C37.3989 51.9998 38.5806 57.44 42.2416 61.1015C44.8402 63.7005 48.2534 65 51.6668 65C55.0802 65 58.4934 63.7005 61.092 61.1015C63.6096 58.5835 64.9961 55.2358 64.9961 51.6748C64.9961 48.1138 63.6096 44.7661 61.092 42.2481ZM26.679 4.59784L29.372 7.29115L7.29004 29.3766L4.59702 26.6831L26.679 4.59784ZM20.7547 42.8432L9.98294 32.0699L32.0649 9.98458L42.8367 20.7581L40.595 23L37.1061 22.3021C36.4813 22.1775 35.8364 22.3728 35.3863 22.823L22.8194 35.3919C22.3693 35.8421 22.1738 36.4876 22.2986 37.1119L22.9961 40.6014L20.7547 42.8432ZM58.3991 58.4081C54.6868 62.1208 48.6468 62.1209 44.9345 58.4081C42.0861 55.5591 41.3381 51.2034 43.0737 47.5694C43.4216 46.8411 43.2725 45.9725 42.7019 45.4018L30.4494 33.1474L33.1424 30.4541L45.3949 42.7086C45.9654 43.2794 46.834 43.4282 47.562 43.0805C51.1956 41.3444 55.5507 42.0925 58.3992 44.9416C60.1975 46.7402 61.1879 49.1314 61.1879 51.675C61.1877 54.2183 60.1974 56.6097 58.3991 58.4081Z" fill="#FF5254"/>
<path d="M47.6276 47.6345C45.4002 49.8622 45.4002 53.4869 47.6276 55.7145C48.7411 56.8284 50.2041 57.3852 51.6669 57.3852C53.1296 57.3852 54.5926 56.8284 55.7061 55.7145C57.9335 53.4869 57.9335 49.8622 55.7061 47.6345C53.479 45.407 49.8548 45.407 47.6276 47.6345ZM53.0134 53.0212C52.271 53.7637 51.0628 53.7637 50.3205 53.0212C49.578 52.2786 49.578 51.0704 50.3205 50.3278C51.0631 49.5852 52.271 49.5853 53.0134 50.3278C53.7557 51.0704 53.7557 52.2786 53.0134 53.0212Z" fill="#FF5254"/>
</svg>
