<svg width="65" height="65" viewBox="0 0 65 65" fill="none" xmlns="http://www.w3.org/2000/svg">
<path d="M64.4422 11.9839L53.0161 0.557832C52.659 0.200713 52.1747 0 51.6695 0H13.3305C12.8253 0 12.341 0.200713 11.984 0.557832L0.557832 11.9839C0.200586 12.341 0 12.8253 0 13.3303V25.0101C0 26.0618 0.852617 26.9144 1.9043 26.9144H3.93555V63.0957C3.93555 64.1474 4.78816 65 5.83984 65H59.1602C60.2118 65 61.0645 64.1474 61.0645 63.0957V26.9146H63.0957C64.1474 26.9146 65 26.062 65 25.0103V13.3305C65 12.8253 64.7994 12.341 64.4422 11.9839ZM49.6387 45.957H15.3613V42.1484H49.6387V45.957ZM15.3613 49.7656H49.6387V53.5742H15.3613V49.7656ZM49.6387 38.3398H15.3613V34.5312H49.6387V38.3398ZM15.3613 61.1914V57.3828H49.6387V61.1914H15.3613ZM57.2559 61.1914H53.4473V32.627C53.4473 31.5753 52.5947 30.7227 51.543 30.7227H13.457C12.4054 30.7227 11.5527 31.5753 11.5527 32.627V61.1914H7.74414V26.9146H57.2559V61.1914ZM61.1914 23.106H3.80859V14.1192L14.1192 3.80859H50.8808L61.1914 14.1192V23.106Z" fill="#FF5254"/>
<path d="M43.7927 15.3618C43.7927 15.3618 42.0155 15.3618 42.0153 15.3618C41.569 15.3618 41.1333 15.19 40.8064 14.8864C40.4803 14.5834 40.2759 14.1622 40.2426 13.7181C40.2059 13.2278 40.2655 12.7398 40.5493 12.3269C40.7983 11.9648 41.1797 11.7017 41.6076 11.6009C41.7412 11.5695 41.8781 11.5537 42.0154 11.5537H43.7923C44.844 11.5537 45.6966 10.7011 45.6966 9.64941C45.6966 8.59773 44.844 7.74512 43.7923 7.74512H42.0154C39.5567 7.74512 37.4654 9.34244 36.7208 11.5535H28.2731C27.5286 9.34257 25.4373 7.74512 22.9786 7.74512H21.2017C20.15 7.74512 19.2974 8.59773 19.2974 9.64941C19.2974 10.7011 20.15 11.5537 21.2017 11.5537C21.2017 11.5537 22.9781 11.5537 22.9786 11.5537C23.8905 11.5537 24.6763 12.2762 24.7504 13.1857C24.7898 13.6685 24.7333 14.1546 24.4603 14.5654C24.2171 14.9316 23.8395 15.2007 23.413 15.3081C23.2711 15.3439 23.1249 15.3618 22.9786 15.3618H21.2012C20.1495 15.3618 19.2969 16.2144 19.2969 17.2661C19.2969 18.3178 20.1495 19.1704 21.2012 19.1704H22.9786C25.4375 19.1704 27.5286 17.5731 28.2732 15.362H36.7209C37.4651 17.5729 39.5564 19.1704 42.0153 19.1704H43.7927C44.8444 19.1704 45.697 18.3178 45.697 17.2661C45.697 16.2144 44.8444 15.3618 43.7927 15.3618Z" fill="#FF5254"/>
</svg>
