<svg width="62" height="65" viewBox="0 0 62 65" fill="none" xmlns="http://www.w3.org/2000/svg">
<path d="M56.8564 47.0965C56.8606 44.1934 55.3379 41.6433 52.8795 40.2693C52.0535 38.702 47.9642 30.9261 47.9642 30.9261C46.569 28.2733 43.9704 26.6895 41.0128 26.6895H20.8647C17.9092 26.6895 15.3115 28.2715 13.9156 30.9215C13.1004 32.4691 9.31033 39.6138 8.84895 40.4892C6.48656 41.8906 5.06245 44.3627 5.05812 47.2026L5.05469 60.2292C5.05469 62.8597 7.19486 64.9999 9.82542 64.9999H15.5572C18.1878 64.9999 20.328 62.8597 20.328 60.2292V57.3633H41.5833V60.2292C41.5833 62.8597 43.7234 64.9999 46.354 64.9999H52.0858C54.7164 64.9999 56.8565 62.8597 56.8565 60.2292L56.8564 47.0965ZM12.9363 53.545C11.8477 53.545 10.8231 53.1193 10.0515 52.3465C9.28984 51.5837 8.87122 50.5769 8.87288 49.5115L8.87632 47.2083C8.87886 45.4956 9.8342 44.0947 11.4318 43.4613C15.7782 41.7377 23.0786 40.7088 30.9603 40.7088C34.0101 40.7088 44.6946 41.3434 50.3123 43.2863C51.9961 43.8687 53.0406 45.3265 53.0381 47.091L53.0345 49.5143C53.0314 51.7369 51.2085 53.5451 48.9711 53.5451H12.9363V53.545ZM17.2939 32.701C18.0389 31.2867 19.3071 30.5078 20.8647 30.5078H41.0128C42.5489 30.5078 43.8508 31.3081 44.5847 32.7034C44.5847 32.7034 47.4779 38.2054 47.7051 38.6371C41.0785 37.2215 32.6656 36.8903 30.9603 36.8903C24.7204 36.8903 18.7675 37.523 14.1669 38.6342C14.384 38.2273 16.4792 34.2478 17.2939 32.701ZM16.5096 60.2292C16.5096 60.7455 16.0735 61.1816 15.5572 61.1816H9.82542C9.30919 61.1816 8.87301 60.7454 8.87301 60.2292V56.2392C10.0881 56.9719 11.4824 57.3633 12.9365 57.3633H16.5096V60.2292ZM52.0857 61.1816H46.354C45.8378 61.1816 45.4016 60.7454 45.4016 60.2292V57.3633H48.9712C50.4578 57.3633 51.8498 56.9501 53.0382 56.2333V60.2292C53.0382 60.7455 52.602 61.1816 52.0857 61.1816Z" fill="#FF5254"/>
<path d="M59.3731 13.3641H55.7886C54.7358 13.3641 53.8794 12.5077 53.8794 11.455C53.8794 10.4022 54.7358 9.54579 55.7886 9.54579H59.3731C60.0172 9.54579 60.618 9.22098 60.9706 8.68196C61.3233 8.14294 61.3805 7.46239 61.1225 6.87221C59.2982 2.69751 55.1767 0 50.6222 0C46.499 0 42.7304 2.21106 40.7002 5.72748H20.582C18.5518 2.21106 14.7832 0 10.66 0C6.10548 0 1.98399 2.69751 0.159721 6.87221C-0.0981424 7.46239 -0.0411221 8.14294 0.311563 8.68196C0.664249 9.22098 1.265 9.54579 1.90927 9.54579H5.49378C6.54649 9.54579 7.40294 10.4022 7.40294 11.455C7.40294 12.5077 6.54649 13.3641 5.49378 13.3641H1.90927C1.26512 13.3641 0.664376 13.6889 0.31169 14.2279C-0.0409948 14.767 -0.0981423 15.4475 0.159849 16.0377C1.98399 20.2125 6.10561 22.9099 10.66 22.9099C14.7832 22.9099 18.5517 20.6988 20.582 17.1824H40.7003C42.7305 20.6988 46.4991 22.9099 50.6224 22.9099C55.1767 22.9099 59.2983 20.2124 61.1226 16.0377C61.3805 15.4474 61.3235 14.767 60.9708 14.2279C60.6181 13.6889 60.0172 13.3641 59.3731 13.3641ZM50.6222 19.0916C47.5857 19.0916 44.8375 17.2928 43.621 14.5088C43.3172 13.8135 42.6304 13.3641 41.8715 13.3641H19.4107C18.6518 13.3641 17.9651 13.8135 17.6612 14.5088C16.4447 17.2928 13.6966 19.0916 10.66 19.0916C8.7615 19.0916 6.97606 18.3886 5.60681 17.1813C8.71301 17.1208 11.2213 14.5753 11.2213 11.455C11.2213 8.3345 8.71288 5.78895 5.60681 5.72849C6.97593 4.52127 8.7615 3.81832 10.66 3.81832C13.6967 3.81832 16.4449 5.61713 17.6612 8.40106C17.9651 9.09638 18.6518 9.54579 19.4107 9.54579H41.8715C42.6304 9.54579 43.3172 9.09638 43.621 8.40106C44.8375 5.61713 47.5857 3.81832 50.6222 3.81832C52.5207 3.81832 54.3063 4.52127 55.6755 5.72862C52.5693 5.78908 50.0611 8.33462 50.0611 11.455C50.0611 14.5754 52.5693 17.121 55.6755 17.1814C54.3063 18.3888 52.5207 19.0916 50.6222 19.0916Z" fill="#FF5254"/>
<path d="M14.6045 45.9141C13.5529 45.9141 12.6953 46.7717 12.6953 47.8232C12.6953 48.8748 13.5529 49.7324 14.6045 49.7324C15.656 49.7324 16.5136 48.8748 16.5136 47.8232C16.5136 46.7717 15.656 45.9141 14.6045 45.9141Z" fill="#FF5254"/>
<path d="M47.3154 45.9072C46.2638 45.9072 45.4062 46.7648 45.4062 47.8164C45.4062 48.868 46.2638 49.7255 47.3154 49.7255C48.367 49.7255 49.2246 48.868 49.2246 47.8164C49.2246 46.7648 48.367 45.9072 47.3154 45.9072Z" fill="#FF5254"/>
<path d="M39.6782 45.9072H22.2412C21.1868 45.9072 20.332 46.762 20.332 47.8164C20.332 48.8708 21.1868 49.7255 22.2412 49.7255H39.6782C40.7325 49.7255 41.5873 48.8708 41.5873 47.8164C41.5873 46.762 40.7325 45.9072 39.6782 45.9072Z" fill="#FF5254"/>
</svg>
