<svg width="36" height="36" viewBox="0 0 36 36" fill="none" xmlns="http://www.w3.org/2000/svg">
<path d="M32 4H4C3.46957 4 2.96086 4.21071 2.58579 4.58579C2.21071 4.96086 2 5.46957 2 6V30C2 30.5304 2.21071 31.0391 2.58579 31.4142C2.96086 31.7893 3.46957 32 4 32H32C32.5304 32 33.0391 31.7893 33.4142 31.4142C33.7893 31.0391 34 30.5304 34 30V6C34 5.46957 33.7893 4.96086 33.4142 4.58579C33.0391 4.21071 32.5304 4 32 4ZM4 30V6H32V30H4Z" fill="#828282"/>
<path d="M8.92187 14C9.51522 14 10.0952 13.8241 10.5886 13.4944C11.0819 13.1648 11.4665 12.6962 11.6935 12.1481C11.9206 11.5999 11.98 10.9967 11.8642 10.4147C11.7485 9.83279 11.4628 9.29824 11.0432 8.87868C10.6236 8.45912 10.0891 8.1734 9.50715 8.05765C8.9252 7.94189 8.322 8.0013 7.77382 8.22836C7.22565 8.45543 6.75711 8.83994 6.42747 9.33329C6.09782 9.82664 5.92188 10.4067 5.92188 11C5.92188 11.7957 6.23795 12.5587 6.80055 13.1213C7.36316 13.6839 8.12623 14 8.92187 14ZM8.92187 9.4C9.23874 9.39802 9.54906 9.49017 9.8135 9.66478C10.0779 9.83938 10.2846 10.0886 10.4072 10.3807C10.5298 10.6729 10.5629 10.9949 10.5023 11.306C10.4417 11.617 10.2901 11.903 10.0668 12.1278C9.84343 12.3526 9.55836 12.5059 9.24772 12.5685C8.93708 12.631 8.61486 12.5999 8.32191 12.4791C8.02897 12.3583 7.77849 12.1533 7.60223 11.8899C7.42598 11.6266 7.33188 11.3169 7.33187 11C7.3345 10.5791 7.50286 10.1762 7.80047 9.8786C8.09809 9.58098 8.50099 9.41262 8.92187 9.41V9.4Z" fill="#828282"/>
<path d="M22.7819 15.3699L17.3819 20.7699L13.3819 16.7699C13.1945 16.5836 12.9411 16.4791 12.6769 16.4791C12.4127 16.4791 12.1592 16.5836 11.9719 16.7699L5.92188 22.8999V25.7299L12.7119 18.9399L16.0019 22.1799L12.2519 25.9299H15.0019L23.4519 17.4799L30.0019 23.9999V21.1799L24.1919 15.3699C24.0045 15.1836 23.7511 15.0791 23.4869 15.0791C23.2227 15.0791 22.9692 15.1836 22.7819 15.3699Z" fill="#828282"/>
</svg>
