<svg width="22" height="22" viewBox="0 0 22 22" fill="none" xmlns="http://www.w3.org/2000/svg">
<path d="M12.1049 11L20.7712 2.33372C21.0763 2.0286 21.0763 1.53392 20.7712 1.22884C20.466 0.92376 19.9714 0.923721 19.6663 1.22884L11 9.89516L2.33372 1.22884C2.0286 0.923721 1.53391 0.923721 1.22884 1.22884C0.92376 1.53395 0.923721 2.02864 1.22884 2.33372L9.8951 11L1.22884 19.6663C0.923721 19.9714 0.923721 20.4661 1.22884 20.7712C1.38138 20.9237 1.58134 21 1.7813 21C1.98126 21 2.18118 20.9237 2.33376 20.7712L11 12.1049L19.6662 20.7712C19.8188 20.9237 20.0187 21 20.2187 21C20.4187 21 20.6186 20.9237 20.7712 20.7712C21.0763 20.4661 21.0763 19.9714 20.7712 19.6663L12.1049 11Z" fill="#828282" stroke="#828282"/>
</svg>
