<svg width="15" height="17" viewBox="0 0 15 17" fill="none" xmlns="http://www.w3.org/2000/svg">
<path d="M14.225 2.87499L14.225 2.77499H14.125H10.475V1.46875C10.475 1.15442 10.2206 0.9 9.90622 0.9H5.21873C4.9044 0.9 4.64998 1.15442 4.64998 1.46875V2.77499H1H0.9V2.87499V3.8125V3.9125H1H1.83751V15.0625C1.83751 15.635 2.303 16.1 2.87502 16.1H12.25C12.822 16.1 13.2875 15.635 13.2875 15.0625V3.9125H14.125H14.225L14.225 3.8125L14.225 2.87499ZM5.78749 2.03751H9.33749V2.77502H5.78749V2.03751ZM12.1509 14.9625H2.97499V3.9125H12.15L12.1509 14.9625Z" fill="#828282" stroke="#828282" stroke-width="0.2"/>
</svg>
