<svg width="24" height="24" viewBox="0 0 24 24" fill="none" xmlns="http://www.w3.org/2000/svg">
<g clip-path="url(#clip0)">
<path d="M19.8261 8.8671C19.8261 4.54487 16.3222 1.04102 12 1.04102C7.67777 1.04102 4.17391 4.54487 4.17391 8.8671C3.05652 9.00623 2 9.73667 2 11.4323V15.5193C2 17.4323 3.33913 18.128 4.6087 18.128H5.86957C6.10967 18.128 6.30435 17.9333 6.30435 17.6932V9.2758C6.30435 9.03569 6.10967 8.84102 5.86957 8.84102H5.04348C5.04348 4.99906 8.15804 1.88449 12 1.88449C15.842 1.88449 18.9565 4.99906 18.9565 8.84102H18.1304C17.8903 8.84102 17.6957 9.03569 17.6957 9.2758V17.6801C17.6957 17.9203 17.8903 18.1149 18.1304 18.1149H18.9565C18.8348 21.1019 17.4 21.8019 14.5348 21.928V21.6367C14.5348 21.1564 14.1455 20.7671 13.6652 20.7671H10.9304C10.4502 20.7671 10.0609 21.1564 10.0609 21.6367V23.0497C10.0609 23.53 10.4502 23.9193 10.9304 23.9193H13.6739C14.1542 23.9193 14.5435 23.53 14.5435 23.0497V22.7975C17.3 22.6715 19.6826 22.1019 19.8261 18.0888C20.9435 17.9497 22 17.2193 22 15.5236V11.4367C22 9.73232 20.9478 9.00623 19.8261 8.8671ZM5.43478 9.68015V17.2454H4.58696C3.94348 17.2454 2.84783 17.0193 2.84783 15.5062V11.4193C2.84783 9.91928 3.93043 9.68015 4.58696 9.68015H5.43478ZM13.6739 22.3932V23.0541H10.9304V21.641H13.6739V22.3932ZM21.1304 15.5193C21.1304 17.0193 20.0478 17.2584 19.3913 17.2584H18.5652V9.71058H19.413C20.0565 9.71058 21.1522 9.93667 21.1522 11.4497L21.1304 15.5193Z" fill="#333333" stroke="#333333" stroke-width="0.4"/>
</g>
<defs>
<clipPath id="clip0">
<rect width="24" height="24" fill="white"/>
</clipPath>
</defs>
</svg>
