<svg width="34" height="27" viewBox="0 0 34 27" fill="none" xmlns="http://www.w3.org/2000/svg">
<path d="M31.9783 0.85H2.63044C1.64716 0.85 0.85 1.64709 0.85 2.63044V24.3696C0.85 25.3528 1.64709 26.15 2.63044 26.15H31.9783C32.9616 26.15 33.7587 25.3529 33.7587 24.3696V2.63044C33.7587 1.64716 32.9616 0.85 31.9783 0.85ZM32.3717 24.3696C32.3717 24.587 32.1956 24.7631 31.9783 24.7631H2.63044C2.41311 24.7631 2.23698 24.587 2.23698 24.3696V2.63044C2.23698 2.41311 2.41311 2.23698 2.63044 2.23698H31.9783C32.1956 2.23698 32.3717 2.41311 32.3717 2.63044V24.3696Z" fill="#727171" stroke="#727171" stroke-width="0.3"/>
<path d="M30.9405 3.17593C30.7969 3.16338 30.6542 3.20841 30.5438 3.30114L18.0057 13.8337C17.6013 14.1736 17.0111 14.1736 16.6068 13.8337L4.06877 3.30108C3.92006 3.17624 3.716 3.1402 3.53353 3.20656C3.35106 3.27292 3.21782 3.43164 3.18407 3.6229C3.15031 3.81415 3.22114 4.00885 3.36985 4.13368L15.9079 14.6657C16.716 15.3461 17.8965 15.3461 18.7047 14.6657L31.2427 4.13375C31.3531 4.04108 31.4221 3.90835 31.4347 3.76473C31.4472 3.62111 31.4022 3.47839 31.3095 3.36801C31.2169 3.25751 31.0841 3.18847 30.9405 3.17593Z" fill="#727171" stroke="#727171" stroke-width="0.3"/>
<path d="M11.4515 14.5912C11.2591 14.5483 11.0586 14.6128 10.9274 14.76L3.3187 22.9121C3.181 23.0531 3.13043 23.2577 3.1866 23.4466C3.24278 23.6356 3.39684 23.7793 3.58918 23.8222C3.78159 23.8651 3.98208 23.8005 4.11328 23.6534L11.722 15.5012C11.8597 15.3602 11.9103 15.1557 11.8541 14.9668C11.7979 14.7779 11.6439 14.6341 11.4515 14.5912Z" fill="#727171" stroke="#727171" stroke-width="0.3"/>
<path d="M23.6797 14.76C23.5486 14.6128 23.348 14.5483 23.1556 14.5912C22.9632 14.6341 22.8092 14.7779 22.753 14.9668C22.6968 15.1557 22.7474 15.3602 22.8851 15.5012L30.4938 23.6534C30.7002 23.8647 31.0375 23.8726 31.2534 23.6711C31.4694 23.4696 31.485 23.1326 31.2884 22.9121L23.6797 14.76Z" fill="#727171" stroke="#727171" stroke-width="0.3"/>
</svg>
