<svg width="21" height="21" viewBox="0 0 21 21" fill="none" xmlns="http://www.w3.org/2000/svg">
<path fill-rule="evenodd" clip-rule="evenodd" d="M6.13014 15.1318C8.40825 17.5365 10.9668 19.3943 13.35 20.3432C13.8763 20.5765 15.2061 21.0341 16.3157 20.998C17.7027 20.9528 18.0539 20.5766 18.2571 20.4336C18.4196 20.3193 18.7091 20.0064 18.8335 19.8642C19.2017 19.4954 19.6318 19.0644 19.9606 18.5751C20.2989 18.0716 20.5525 17.4745 20.5253 16.7741C20.4871 15.8005 19.9153 14.9294 18.9528 14.113C17.5774 12.9461 16.5178 12.5099 15.5834 12.6667C14.7042 12.8141 14.0858 13.4776 13.5681 14.033L13.5201 14.0845L13.3385 14.2726C13.2889 14.2727 13.2025 14.2575 13.0778 14.2109C12.8305 14.1186 12.5508 13.9488 12.332 13.7989C11.6491 13.33 10.7701 12.5368 9.71412 11.4228C8.09706 9.71627 7.41627 8.67892 7.15349 8.07557C7.00315 7.73039 7.00502 7.57112 7.01512 7.51782L7.19082 7.33472L7.23486 7.28895C7.76783 6.73521 8.38937 6.08946 8.52711 5.18121C8.67149 4.22916 8.27608 3.12875 7.16677 1.67196C6.39899 0.665959 5.56609 0.0442902 4.61427 0.00242467C3.93606 -0.029015 3.3578 0.24929 2.88006 0.604972C2.40703 0.95714 1.98975 1.41818 1.63602 1.81051L1.29583 2.18152C0.783977 2.72181 0.57604 3.52562 0.577153 4.41866C0.578278 5.32152 0.791737 6.38245 1.19929 7.5214C2.09494 10.0284 3.85133 12.7264 6.13014 15.1318ZM4.54596 1.6294C4.52886 1.62871 4.52135 1.62849 4.5167 1.62849C4.29587 1.62849 4.03826 1.74115 3.72681 1.99108C3.41833 2.23864 3.1194 2.56875 2.80848 2.91379L2.44072 3.31501C2.28513 3.47906 2.1486 3.8718 2.17386 4.55788C2.19811 5.21656 2.36877 6.04718 2.69578 6.96255C3.50511 9.22742 5.12614 11.7307 7.27502 13.999C9.42467 16.2681 11.7925 17.9747 13.9288 18.8255C14.7921 19.1695 15.5715 19.3469 16.1852 19.3718C16.8226 19.3976 17.1763 19.257 17.3248 19.1L17.7027 18.7149C18.0373 18.3792 18.3574 18.0566 18.5943 17.7227C18.8311 17.389 18.943 17.1003 18.9329 16.8375C18.9184 16.473 18.6546 15.976 17.9347 15.366C16.8149 14.4163 16.2375 14.2408 15.8893 14.2834C15.7208 14.304 15.5549 14.3809 15.3559 14.5381C15.1491 14.7014 14.9402 14.9233 14.6725 15.2093L14.467 15.4283C14.0977 15.8201 13.6087 15.9584 13.0754 15.8823C12.5686 15.8099 12.0199 15.5464 11.4433 15.1505C10.6425 14.6007 9.67404 13.7212 8.56943 12.5559C7.21067 11.1216 6.27751 9.9296 5.79627 8.95843C5.32109 7.99949 5.21087 7.07916 5.84764 6.40651L5.84931 6.40475L6.05416 6.19056C6.61617 5.60663 6.89899 5.28515 6.94394 4.87749C6.98828 4.47546 6.80424 3.84813 5.90929 2.67265C5.3238 1.90503 4.86084 1.64406 4.54596 1.6294Z" fill="#727171"/>
<path fill-rule="evenodd" clip-rule="evenodd" d="M16.1248 9.17808L16.1236 9.17757C15.7118 9.00099 15.5359 8.5275 15.6907 8.12831C16.0321 7.23905 15.8338 6.22963 15.1992 5.55911C14.5534 4.87751 13.5682 4.69356 12.7457 5.08356L12.5412 4.65215L12.7474 5.08274C12.331 5.28223 11.8532 5.07892 11.6797 4.6716C11.5133 4.28212 11.6652 3.80093 12.0728 3.60738C13.5172 2.91734 15.2333 3.25302 16.3442 4.42641C17.4198 5.56189 17.7405 7.24809 17.1734 8.72512C17.0546 9.03375 16.7607 9.24117 16.4319 9.24117C16.3261 9.24117 16.2223 9.21959 16.1248 9.17808Z" fill="#727171"/>
<path fill-rule="evenodd" clip-rule="evenodd" d="M18.976 10.4001C18.5619 10.2232 18.3881 9.74874 18.5424 9.35065C19.3498 7.24766 18.887 4.85722 17.3756 3.26184C15.8291 1.62939 13.4591 1.17777 11.4785 2.12289L11.4727 2.12566C11.0605 2.31557 10.5867 2.12111 10.4111 1.71147L10.4102 1.70945C10.2455 1.32007 10.3969 0.839827 10.8039 0.645453C13.4083 -0.596239 16.5092 0.00457116 18.5205 2.12768C20.4734 4.18908 21.0593 7.25721 20.0251 9.94689C19.9058 10.2581 19.6113 10.4634 19.2836 10.4634C19.1778 10.4634 19.0735 10.4416 18.976 10.4001Z" fill="#727171"/>
</svg>
