<svg width="26" height="20" viewBox="0 0 26 20" fill="none" xmlns="http://www.w3.org/2000/svg">
<path d="M23.8 0.85H2.2C1.45444 0.85 0.85 1.45439 0.85 2.2V18.2C0.85 18.9455 1.45439 19.55 2.2 19.55H23.8C24.5456 19.55 25.15 18.9456 25.15 18.2V2.2C25.15 1.45444 24.5456 0.85 23.8 0.85ZM24.05 18.2C24.05 18.3381 23.9381 18.45 23.8 18.45H2.2C2.06192 18.45 1.95002 18.3381 1.95002 18.2V2.2C1.95002 2.06192 2.06192 1.95002 2.2 1.95002H23.8C23.9381 1.95002 24.05 2.06192 24.05 2.2V18.2Z" fill="#727171" stroke="#727171" stroke-width="0.3"/>
<path d="M23.0359 2.6014C22.9302 2.59216 22.8252 2.6253 22.7439 2.69355L13.5159 10.4455C13.2183 10.6957 12.7839 10.6957 12.4863 10.4455L3.25831 2.69351C3.14886 2.60163 2.99867 2.5751 2.86438 2.62394C2.73008 2.67279 2.63202 2.7896 2.60717 2.93037C2.58233 3.07113 2.63445 3.21443 2.74391 3.30631L11.9719 11.0579C12.5667 11.5587 13.4355 11.5587 14.0303 11.0579L23.2583 3.30635C23.3396 3.23815 23.3904 3.14046 23.3996 3.03476C23.4088 2.92905 23.3757 2.82401 23.3075 2.74277C23.2393 2.66144 23.1416 2.61063 23.0359 2.6014Z" fill="#727171" stroke="#727171" stroke-width="0.3"/>
<path d="M8.69331 11.003C8.5517 10.9714 8.40414 11.019 8.30758 11.1272L2.70756 17.1272C2.60622 17.231 2.569 17.3816 2.61034 17.5206C2.65168 17.6597 2.76508 17.7654 2.90664 17.797C3.04825 17.8286 3.19581 17.7811 3.29237 17.6728L8.89239 11.6728C8.99373 11.569 9.03095 11.4185 8.98961 11.2794C8.94826 11.1404 8.83492 11.0346 8.69331 11.003Z" fill="#727171" stroke="#727171" stroke-width="0.3"/>
<path d="M17.6923 11.1272C17.5958 11.019 17.4482 10.9714 17.3065 11.003C17.1649 11.0346 17.0516 11.1404 17.0102 11.2794C16.9689 11.4185 17.0061 11.569 17.1075 11.6728L22.7075 17.6728C22.8594 17.8283 23.1076 17.8342 23.2666 17.6858C23.4255 17.5375 23.4369 17.2895 23.2923 17.1272L17.6923 11.1272Z" fill="#727171" stroke="#727171" stroke-width="0.3"/>
</svg>
