<svg width="19" height="24" viewBox="0 0 19 24" fill="none" xmlns="http://www.w3.org/2000/svg">
<path d="M16.1573 16.726L12.6269 14.9748C12.2939 14.8094 12.087 14.4772 12.087 14.1076V12.8679C12.1716 12.7652 12.2607 12.6483 12.3527 12.5192C12.8106 11.8775 13.1775 11.1633 13.4444 10.3929C13.9658 10.1557 14.3043 9.64417 14.3043 9.06667V7.6C14.3043 7.2469 14.1713 6.9048 13.9348 6.6375V4.6872C13.9555 4.48553 14.0368 3.28507 13.1617 2.2947C12.4026 1.4356 11.1708 1 9.5 1C7.8292 1 6.59743 1.4356 5.83835 2.29433C4.96322 3.2847 5.04452 4.48553 5.06522 4.6872V6.6375C4.8287 6.9048 4.69565 7.2469 4.69565 7.6V9.06667C4.69565 9.5129 4.90002 9.92907 5.24889 10.2066C5.58741 11.5365 6.29587 12.5386 6.54348 12.8602V14.0735C6.54348 14.4284 6.34835 14.754 6.03459 14.9242L2.7377 16.7084C1.66559 17.2888 1 18.4013 1 19.6127V20.8C1 22.5402 6.56011 23 9.5 23C12.4399 23 18 22.5402 18 20.8V19.6842C18 18.4236 17.2938 17.2899 16.1573 16.726ZM17.2609 20.8C17.2609 21.2976 14.5217 22.2667 9.5 22.2667C4.47835 22.2667 1.73913 21.2976 1.73913 20.8V19.6127C1.73913 18.67 2.25726 17.8036 3.09137 17.3526L6.38826 15.5684C6.94002 15.2696 7.28261 14.6965 7.28261 14.0735V12.5999L7.1965 12.4979C7.18763 12.4873 6.28183 11.4001 5.93628 9.90743L5.90265 9.76223L5.77663 9.68157C5.56265 9.54443 5.43478 9.31453 5.43478 9.06667V7.6C5.43478 7.3943 5.52274 7.20253 5.68239 7.05917L5.80435 6.95027V4.66667L5.80102 4.61863C5.79991 4.60873 5.67426 3.59233 6.39417 2.7776C7.00654 2.0846 8.05167 1.73333 9.5 1.73333C10.9432 1.73333 11.9861 2.08203 12.5992 2.77027C13.3187 3.5773 13.1997 4.60983 13.199 4.61863L13.1957 6.95027L13.3176 7.05953C13.4773 7.20253 13.5652 7.3943 13.5652 7.6V9.06667C13.5652 9.38677 13.3538 9.6669 13.0397 9.76297L12.8557 9.81907L12.7965 10.0006C12.5493 10.7636 12.1971 11.4683 11.7492 12.0953C11.6394 12.2497 11.5326 12.3865 11.4398 12.491L11.3478 12.5951V14.1076C11.3478 14.7566 11.7111 15.34 12.2961 15.6304L15.8266 17.3816C16.7113 17.8205 17.2609 18.7027 17.2609 19.6842V20.8Z" fill="#727171" stroke="#727171"/>
</svg>
