<svg width="60" height="50" viewBox="0 0 60 50" fill="none" xmlns="http://www.w3.org/2000/svg">
<path d="M30.0001 40.0001C36.9037 40.0001 42.5001 34.4037 42.5001 27.5001C42.5001 20.5965 36.9037 15 30.0001 15C23.0965 15 17.5 20.5965 17.5 27.5001C17.5 34.4037 23.0965 40.0001 30.0001 40.0001Z" fill="#FF5254"/>
<path d="M55 7.50001H47.0716C46.0694 7.50001 45.1283 7.10943 44.4191 6.40138L39.8487 1.83106C38.6683 0.650626 37.0985 0 35.4285 0H24.5716C22.9016 0 21.3318 0.650626 20.1514 1.83106L15.581 6.40138C14.8718 7.10943 13.9307 7.50001 12.9285 7.50001H5.00005C2.24239 7.50001 0 9.7424 0 12.4999V45C0 47.7575 2.24239 50 5.00005 50H55.0002C57.7577 50 60.0002 47.7576 60.0002 45V12.4999C60.0001 9.7424 57.7577 7.50001 55 7.50001ZM30 42.5C21.7286 42.5 15 35.7714 15 27.5C15 19.2285 21.7286 12.4999 30 12.4999C38.2715 12.4999 45.0001 19.2285 45.0001 27.5C45.0001 35.7714 38.2715 42.5 30 42.5ZM50.0001 20C48.622 20 47.5002 18.8781 47.5002 17.5C47.5002 16.1219 48.622 15 50.0001 15C51.3782 15 52.5001 16.1219 52.5001 17.5C52.5001 18.8781 51.3782 20 50.0001 20Z" fill="#FF5254"/>
</svg>
