<svg width="26" height="19" viewBox="0 0 26 19" fill="none" xmlns="http://www.w3.org/2000/svg">
<path d="M25.5398 9.00339C25.3101 8.74717 19.7855 2.72144 12.866 2.72144C5.9464 2.72144 0.421888 8.74717 0.19216 9.00339C-0.0640533 9.28975 -0.0640533 9.72267 0.19216 10.009C0.421888 10.2653 5.94651 16.291 12.866 16.291C19.7854 16.291 25.3101 10.2653 25.5398 10.009C25.7959 9.72267 25.7959 9.28975 25.5398 9.00339ZM12.866 14.7833C9.95651 14.7833 7.58892 12.4157 7.58892 9.50621C7.58892 6.59675 9.95651 4.22916 12.866 4.22916C15.7754 4.22916 18.143 6.59675 18.143 9.50621C18.143 12.4157 15.7754 14.7833 12.866 14.7833Z" fill="#BDBDBD"/>
<path d="M13.6208 7.99841C13.6208 7.24002 13.9973 6.57285 14.5701 6.1625C14.0561 5.8994 13.4829 5.73682 12.867 5.73682C10.7887 5.73682 9.09766 7.42783 9.09766 9.50614C9.09766 11.5844 10.7887 13.2755 12.867 13.2755C14.7277 13.2755 16.2678 11.9168 16.5721 10.1415C15.054 10.6302 13.6208 9.48211 13.6208 7.99841Z" fill="#BDBDBD"/>
<rect x="4.58391" y="2.85034" width="2.20243" height="21.0108" rx="1.10121" transform="rotate(-45 4.58391 2.85034)" fill="#C4C4C4" stroke="white"/>
</svg>
