<svg width="26" height="15" viewBox="0 0 26 15" fill="none" xmlns="http://www.w3.org/2000/svg">
<path d="M25.5398 7.00339C25.3101 6.74717 19.7855 0.721436 12.866 0.721436C5.9464 0.721436 0.421888 6.74717 0.19216 7.00339C-0.0640533 7.28975 -0.0640533 7.72267 0.19216 8.00904C0.421888 8.26525 5.94651 14.291 12.866 14.291C19.7854 14.291 25.3101 8.26525 25.5398 8.00904C25.7959 7.72267 25.7959 7.28975 25.5398 7.00339ZM12.866 12.7833C9.95651 12.7833 7.58892 10.4157 7.58892 7.50621C7.58892 4.59675 9.95651 2.22916 12.866 2.22916C15.7754 2.22916 18.143 4.59675 18.143 7.50621C18.143 10.4157 15.7754 12.7833 12.866 12.7833Z" fill="#BDBDBD"/>
<path d="M13.6208 5.99841C13.6208 5.24002 13.9973 4.57285 14.5701 4.1625C14.0561 3.8994 13.4829 3.73682 12.867 3.73682C10.7887 3.73682 9.09766 5.42783 9.09766 7.50614C9.09766 9.58444 10.7887 11.2755 12.867 11.2755C14.7277 11.2755 16.2678 9.91679 16.5721 8.14149C15.054 8.63025 13.6208 7.48211 13.6208 5.99841Z" fill="#BDBDBD"/>
</svg>
