<svg width="73" height="65" viewBox="0 0 73 65" fill="none" xmlns="http://www.w3.org/2000/svg">
<path d="M2.14162 47.6124H22.3296C23.4911 40.5093 29.6702 35.0712 37.0967 35.0712C44.5232 35.0712 50.7025 40.5093 51.8639 47.6124H68.697V44.7623C68.697 42.9271 68.4178 41.1558 67.9002 39.4888H60.8245C55.8736 39.4888 51.8456 35.4608 51.8456 30.5099V26.9733C51.5264 26.9562 2.13863 26.9469 2.13863 26.9469C0.957993 26.9469 0.000823975 25.9898 0.000823975 24.8091C0.000823975 23.6285 0.957993 22.6713 2.13863 22.6713H31.6298L15.667 6.70853C15.667 6.70853 3.32042 6.70853 2.13978 6.70853C0.959129 6.70853 0.00196075 5.75136 0.00196075 4.57072C0.00196075 3.39007 0.959129 2.4329 2.13978 2.4329H16.5525C17.1194 2.4329 17.6632 2.65823 18.0641 3.05914L36.5289 21.5239L57.4266 0.626165C58.2614 -0.208722 59.615 -0.208722 60.4499 0.626165C61.2848 1.46105 61.2848 2.81457 60.4499 3.64946L41.4281 22.6713H50.8815C63.0626 22.6713 72.9727 32.5812 72.9727 44.7623V49.7503C72.9727 50.9309 72.0155 51.8881 70.8348 51.8881H51.9466C51.0311 59.2685 44.7209 65 37.0967 65C29.4726 65 23.1623 59.2685 22.2471 51.8881H2.14177C0.961128 51.8881 0.00395966 50.9309 0.00395966 49.7503C0.00395966 48.5696 0.960983 47.6124 2.14162 47.6124ZM56.1213 27.7336V30.5099C56.1213 33.1033 58.2312 35.2131 60.8245 35.2131H65.9153C63.664 31.6813 60.2035 28.9922 56.1213 27.7336ZM37.0967 60.7244C42.9905 60.7244 47.7855 55.9294 47.7855 50.0356C47.7855 44.1418 42.9905 39.3468 37.0967 39.3468C31.2029 39.3468 26.4079 44.1418 26.4079 50.0356C26.4079 55.9294 31.2029 60.7244 37.0967 60.7244Z" fill="#FF5254"/>
<path d="M37.0947 43.4463C40.7279 43.4463 43.6836 46.402 43.6836 50.035C43.6836 53.668 40.7279 56.6239 37.0947 56.6239C33.4616 56.6239 30.506 53.6682 30.506 50.035C30.506 46.4019 33.4616 43.4463 37.0947 43.4463ZM37.0947 52.3484C38.3703 52.3484 39.408 51.3107 39.408 50.0352C39.408 48.7596 38.3703 47.7221 37.0947 47.7221C35.8191 47.7221 34.7816 48.7598 34.7816 50.0352C34.7816 51.3106 35.8191 52.3484 37.0947 52.3484Z" fill="#FF5254"/>
</svg>
