<svg width="50" height="50" viewBox="0 0 50 50" fill="none" xmlns="http://www.w3.org/2000/svg">
<circle cx="25" cy="25" r="25" fill="#039BE5"/>
<circle cx="25" cy="25" r="25" fill="url(#paint0_linear)"/>
<path d="M30.1112 11.8135H19.6699C14.8651 11.8135 10.9688 15.7098 10.9688 20.5146V30.956C10.9688 35.7607 14.8651 39.6571 19.6699 39.6571H30.1112C34.916 39.6571 38.8124 35.7607 38.8124 30.956V20.5146C38.8124 15.7098 34.916 11.8135 30.1112 11.8135ZM36.202 30.956C36.202 34.3146 33.4699 37.0468 30.1112 37.0468H19.6699C16.3112 37.0468 13.5791 34.3146 13.5791 30.956V20.5146C13.5791 17.156 16.3112 14.4238 19.6699 14.4238H30.1112C33.4699 14.4238 36.202 17.156 36.202 20.5146V30.956Z" fill="white"/>
<path d="M24.8906 18.5635C20.9299 18.5635 17.7188 21.7747 17.7188 25.7353C17.7188 29.696 20.9299 32.9072 24.8906 32.9072C28.8512 32.9072 32.0624 29.696 32.0624 25.7353C32.0624 21.7747 28.8512 18.5635 24.8906 18.5635ZM24.8906 30.2177C22.4199 30.2177 20.4082 28.206 20.4082 25.7353C20.4082 23.2628 22.4199 21.2529 24.8906 21.2529C27.3613 21.2529 29.373 23.2628 29.373 25.7353C29.373 28.206 27.3613 30.2177 24.8906 30.2177Z" fill="white"/>
<path d="M32.0625 19.4072C32.5285 19.4072 32.9062 19.0295 32.9062 18.5635C32.9062 18.0975 32.5285 17.7197 32.0625 17.7197C31.5965 17.7197 31.2188 18.0975 31.2188 18.5635C31.2188 19.0295 31.5965 19.4072 32.0625 19.4072Z" fill="white"/>
<defs>
<linearGradient id="paint0_linear" x1="4.57703" y1="45.4233" x2="45.423" y2="4.57672" gradientUnits="userSpaceOnUse">
<stop stop-color="#FFC107"/>
<stop offset="0.507" stop-color="#F44336"/>
<stop offset="0.99" stop-color="#9C27B0"/>
</linearGradient>
</defs>
</svg>
