<svg width="24" height="23" viewBox="0 0 24 23" fill="none" xmlns="http://www.w3.org/2000/svg">
<path d="M16.3558 6.72925C17.1499 6.72925 17.7937 6.0855 17.7937 5.29138C17.7937 4.49727 17.1499 3.85352 16.3558 3.85352C15.5617 3.85352 14.918 4.49727 14.918 5.29138C14.918 6.0855 15.5617 6.72925 16.3558 6.72925Z" fill="#828282"/>
<path d="M22.7578 7.4531C22.2779 6.23118 21.3979 4.46813 19.9308 3.00798C18.4689 1.55285 16.7245 0.698041 15.5186 0.237115C14.1947 -0.26888 12.6903 0.0500572 11.686 1.0496L8.15702 4.56204C7.11093 5.60319 6.80943 7.20525 7.40673 8.54853C7.59194 8.96515 7.79338 9.37265 8.00861 9.76636L0.26322 17.5117C0.0946746 17.6802 0 17.9088 0 18.1472V22.1013C0 22.5977 0.402333 23 0.898667 23H4.8528C5.34914 23 5.75147 22.5977 5.75147 22.1013V20.4837L7.36907 20.4837C7.86541 20.4837 8.26774 20.0814 8.26774 19.585V17.9675H9.88534C10.3817 17.9675 10.784 17.5651 10.784 17.0688C10.784 16.5725 10.3817 16.1701 9.88534 16.1701H7.36907C6.87274 16.1701 6.47041 16.5725 6.47041 17.0688V18.6864L4.8528 18.6864C4.35647 18.6864 3.95414 19.0887 3.95414 19.5851V21.2027H1.79733V18.5194L9.76649 10.5503C10.0593 10.2575 10.1141 9.80266 9.89941 9.44868C9.58797 8.93536 9.30188 8.38681 9.04913 7.81827C8.75262 7.15142 8.90368 6.35479 9.42504 5.83586L12.954 2.32346C13.4578 1.82205 14.2126 1.66213 14.877 1.91601C15.9205 2.31483 17.4243 3.04895 18.6629 4.28184C19.9092 5.52218 20.6679 7.04825 21.0848 8.11003C21.3451 8.7727 21.1869 9.52556 20.682 10.0281L17.1104 13.583C16.5903 14.1005 15.8141 14.2519 15.1327 13.9685C14.5707 13.7347 14.0264 13.4571 13.5151 13.1432C13.0921 12.8836 12.5387 13.016 12.2791 13.439C12.0195 13.862 12.1519 14.4154 12.5749 14.6751C13.1658 15.0378 13.7942 15.3584 14.4424 15.628C15.7968 16.1914 17.3417 15.8886 18.3783 14.8569L21.9499 11.302C22.9629 10.2938 23.28 8.78299 22.7578 7.4531Z" fill="#828282"/>
</svg>
