<svg width="24" height="24" viewBox="0 0 24 24" fill="none" xmlns="http://www.w3.org/2000/svg">
<path d="M8.01995 14.7667H8.02095C8.02178 14.7667 8.02261 14.7666 8.02344 14.7666H19.5966C19.8816 14.7666 20.1321 14.5776 20.2104 14.3036L22.7637 5.36702C22.8187 5.17436 22.7801 4.96723 22.6596 4.80732C22.5389 4.6474 22.3503 4.55331 22.15 4.55331H6.54781L6.0915 2.49986C6.02651 2.20779 5.76752 2 5.4683 2H1.63833C1.28575 2 1 2.28575 1 2.63833C1 2.99091 1.28575 3.27666 1.63833 3.27666H4.95631C5.0371 3.64054 7.13992 13.1034 7.26094 13.6478C6.58255 13.9427 6.10663 14.6191 6.10663 15.4049C6.10663 16.4608 6.96571 17.3199 8.02162 17.3199H19.5966C19.9492 17.3199 20.235 17.0341 20.235 16.6816C20.235 16.329 19.9492 16.0432 19.5966 16.0432H8.02162C7.6697 16.0432 7.38329 15.7568 7.38329 15.4049C7.38329 15.0535 7.66871 14.7676 8.01995 14.7667ZM21.3037 5.82997L19.1151 13.4899H8.53361L6.8314 5.82997H21.3037Z" fill="#333333"/>
<path d="M5.25781 19.6601C5.25781 20.716 6.1169 21.5751 7.1728 21.5751C8.2287 21.5751 9.08779 20.716 9.08779 19.6601C9.08779 18.6042 8.2287 17.7451 7.1728 17.7451C6.1169 17.7451 5.25781 18.6042 5.25781 19.6601ZM7.1728 19.0218C7.52471 19.0218 7.81113 19.3082 7.81113 19.6601C7.81113 20.012 7.52471 20.2984 7.1728 20.2984C6.82089 20.2984 6.53447 20.012 6.53447 19.6601C6.53447 19.3082 6.82089 19.0218 7.1728 19.0218Z" fill="#333333"/>
<path d="M18.1094 19.6601C18.1094 20.716 18.9685 21.5751 20.0244 21.5751C21.0803 21.5751 21.9393 20.716 21.9393 19.6601C21.9393 18.6042 21.0803 17.7451 20.0244 17.7451C18.9685 17.7451 18.1094 18.6042 18.1094 19.6601ZM20.0244 19.0218C20.3763 19.0218 20.6627 19.3082 20.6627 19.6601C20.6627 20.012 20.3763 20.2984 20.0244 20.2984C19.6724 20.2984 19.386 20.012 19.386 19.6601C19.386 19.3082 19.6724 19.0218 20.0244 19.0218Z" fill="#333333"/>
</svg>
