<svg width="24" height="24" viewBox="0 0 24 24" fill="none" xmlns="http://www.w3.org/2000/svg">
<path d="M21.3959 19.2211L21.3959 19.221L21.4085 17.4039L21.4088 17.3602L21.4522 17.3546L21.6841 17.3252L21.6845 17.3251C22.0975 17.2765 22.4373 17.0382 22.6366 16.652L22.6369 16.6514L22.7322 16.4728V14.0189V11.5651L22.6243 11.3612C22.4168 10.9704 21.9899 10.6963 21.5977 10.6963H21.4585H21.4088L21.4085 10.6466L21.3959 8.82121L21.3406 21.2789C21.4248 21.0512 21.4292 20.9583 21.4459 19.2214L21.3959 19.2211ZM21.3959 19.2211C21.3876 20.0901 21.3823 20.5461 21.3686 20.8136C21.3551 21.0785 21.3336 21.1535 21.2938 21.2613M21.3959 19.2211L21.2938 21.2613M21.2938 21.2613C21.0167 21.993 20.4938 22.47 19.7725 22.6554L19.7722 22.6555C19.6193 22.6957 19.5049 22.717 18.4264 22.7276C17.35 22.7381 15.3182 22.7381 11.3361 22.7381C7.33066 22.7381 5.29893 22.7381 4.22736 22.7276C3.1539 22.717 3.04867 22.6957 2.89122 22.6554L2.89119 22.6554C2.50386 22.5565 2.19531 22.3798 1.90644 22.095C1.67167 21.8602 1.51083 21.6092 1.37828 21.2611L1.37819 21.2609L1.2887 21.0293L1.27618 14.1453C1.27618 14.1453 1.27618 14.1453 1.27618 14.1453C1.272 10.747 1.26991 9.02415 1.27945 8.10916C1.289 7.19303 1.31032 7.09144 1.35097 6.93159L1.35099 6.93152C1.44999 6.53982 1.6268 6.22715 1.91144 5.93841L1.91149 5.93835C2.14593 5.69984 2.39666 5.54311 2.7451 5.41043C2.85276 5.37061 2.93087 5.34914 3.19817 5.33459C3.46778 5.31992 3.92494 5.31256 4.78981 5.2999L6.61104 5.27878L6.63013 5.27856L6.64421 5.26567L7.93429 4.08515L7.93433 4.08512C8.28821 3.76059 8.62833 3.45515 8.89149 3.22407C9.02309 3.10851 9.13529 3.01169 9.22025 2.94044C9.30705 2.86764 9.36158 2.82487 9.38037 2.81379L9.38095 2.81344C9.47274 2.75759 9.60519 2.70432 9.74182 2.66499C9.87861 2.62563 10.0149 2.6016 10.1137 2.6016C10.3558 2.6016 10.7214 2.7163 10.9457 2.86716C11.0587 2.94377 11.2958 3.1675 11.4677 3.36057C11.5543 3.45786 11.6369 3.54795 11.7002 3.6139C11.7317 3.64679 11.7589 3.67415 11.7796 3.6935C11.7898 3.70308 11.7992 3.71142 11.8072 3.71763C11.8111 3.72067 11.8156 3.72402 11.8204 3.72685C11.822 3.72778 11.824 3.7289 11.8263 3.73001C11.8275 3.73058 11.8288 3.73115 11.8302 3.73169C11.8331 3.73286 11.8391 3.73502 11.8469 3.73557C11.8481 3.73566 11.8494 3.7357 11.8506 3.7357V3.68571L21.2938 21.2613ZM15.3654 2.54274L15.3654 2.54276C15.3067 2.49288 15.2491 2.45706 15.1775 2.46545C15.1115 2.47318 15.0452 2.51785 14.964 2.58445L14.9636 2.5848C14.8573 2.67407 12.4405 4.84632 12.1036 5.15356L12.1019 5.15511L12.1019 5.15515C12.0941 5.16301 12.0753 5.18662 12.0875 5.21775C12.0967 5.24125 12.1181 5.25065 12.1255 5.25374C12.1452 5.26191 12.1748 5.26686 12.2109 5.27077C12.2862 5.27894 12.4154 5.28475 12.6195 5.28895C13.0285 5.29738 13.7458 5.29947 14.9535 5.29947H17.8331H17.948L17.8697 5.21538L16.6597 3.91699L15.3654 2.54274ZM15.3654 2.54274L15.3667 2.54389M15.3654 2.54274L15.3667 2.54389M15.3667 2.54389C15.3917 2.5667 15.5508 2.73334 15.7836 2.98027M15.3667 2.54389L15.7836 2.98027M19.6095 6.61555L19.6094 6.61557C19.5853 6.60605 19.5502 6.59944 19.4976 6.59391C19.4439 6.58826 19.3677 6.58338 19.2589 6.57911C19.041 6.57056 18.6888 6.56433 18.116 6.55981C16.9701 6.55076 14.9388 6.54851 11.3279 6.54829C7.43253 6.54829 5.40325 6.54933 4.32785 6.55987C3.79044 6.56513 3.49008 6.57277 3.31386 6.58393C3.13861 6.59503 3.07998 6.60981 3.03085 6.63304C2.81741 6.73111 2.6777 6.87519 2.58447 7.09297L2.5839 7.09431L2.58392 7.09432C2.57464 7.11787 2.56794 7.15035 2.56234 7.19751C2.55666 7.24539 2.55178 7.31175 2.54751 7.40497C2.53898 7.59153 2.53279 7.88917 2.52833 8.36901C2.51939 9.32897 2.5173 11.0209 2.5173 14.0184C2.5173 17.016 2.51939 18.7079 2.52833 19.6679C2.53279 20.1477 2.53898 20.4454 2.54751 20.6319C2.55178 20.7251 2.55666 20.7915 2.56234 20.8394C2.56794 20.8865 2.57464 20.919 2.58392 20.9426L2.58445 20.9439L2.58447 20.9439C2.67772 21.1617 2.81726 21.3061 3.03115 21.404L3.05196 21.3585M19.6095 6.61555L11.3949 14.1071L11.4073 16.4725L11.5027 16.6512L11.5029 16.6515C11.6334 16.9005 11.8118 17.0865 12.0549 17.2122L12.0549 17.2122L12.0557 17.2126L12.2554 17.3204L16.1764 17.3329H16.1764L20.1058 17.3413L20.1557 17.3414V17.3913V19.0817C20.1557 19.7939 20.1536 20.2217 20.1446 20.4884C20.1357 20.7528 20.1201 20.866 20.0889 20.943L20.0885 20.9439C19.9953 21.1617 19.8556 21.3058 19.6422 21.4038C19.593 21.4271 19.5344 21.4419 19.359 21.453C19.1826 21.4641 18.882 21.4718 18.3441 21.477C17.2676 21.4876 15.2362 21.4886 11.3365 21.4886C7.43682 21.4886 5.40545 21.4876 4.32901 21.477C3.79107 21.4718 3.49046 21.4641 3.31409 21.453C3.13832 21.4418 3.07981 21.427 3.03057 21.4037L3.05196 21.3585M19.6095 6.61555L19.6108 6.61612M19.6095 6.61555L19.6108 6.61612M3.05196 21.3585C2.84956 21.2659 2.71888 21.1308 2.63044 20.9242C2.57566 20.7852 2.5673 20.0137 2.5673 14.0184L3.05196 21.3585ZM19.6108 6.61612C19.8286 6.70938 19.9727 6.84891 20.0708 7.06272M19.6108 6.61612L20.1555 10.6961M20.1555 10.6961V10.6461V8.94701C20.1555 8.16968 20.1534 7.74151 20.1423 7.48825C20.1312 7.23454 20.1108 7.1497 20.0708 7.06272M20.1555 10.6961H20.1055M20.1555 10.6961H20.1055M20.0708 7.06272L20.0254 7.0836L20.0708 7.06276C20.0708 7.06274 20.0708 7.06273 20.0708 7.06272ZM20.1055 10.6961H16.2564M20.1055 10.6961H16.2564M21.0702 12.0086L21.0692 12.0081C21.0554 12.0024 21.0348 11.9993 21.0159 11.997C20.9944 11.9944 20.9664 11.9919 20.9327 11.9896C20.8653 11.9849 20.7729 11.9806 20.6593 11.9767C20.4321 11.9688 20.1187 11.9622 19.7481 11.9569C19.0069 11.9464 18.0356 11.9411 17.0647 11.9411C16.0938 11.9411 15.1231 11.9464 14.3829 11.957C14.0128 11.9623 13.7001 11.9689 13.4737 11.9768C13.3606 11.9808 13.2686 11.9851 13.2016 11.9898C13.1682 11.9921 13.1404 11.9946 13.1191 11.9972C13.1085 11.9985 13.0989 11.9999 13.0908 12.0015C13.0836 12.0029 13.0743 12.005 13.066 12.0087L13.0658 12.0087C12.9703 12.0507 12.8769 12.1292 12.8038 12.2177C12.7311 12.3058 12.6739 12.4096 12.6572 12.5055L12.6571 12.5059C12.6533 12.5292 12.6504 12.5931 12.648 12.6827C12.6456 12.7746 12.6436 12.8982 12.6423 13.0449C12.6397 13.3382 12.6397 13.7243 12.6439 14.1335C12.6439 14.1335 12.6439 14.1336 12.6439 14.1336L12.6939 14.1331L21.0702 12.0086ZM21.0702 12.0086C21.1142 12.0281 21.1667 12.064 21.2158 12.1049C21.2652 12.1462 21.3143 12.1951 21.3509 12.243C21.3509 12.2431 21.351 12.2432 21.3511 12.2433L21.473 12.3988L21.4836 12.4123M21.0702 12.0086L21.4836 12.4123M21.4836 12.4123V12.4296M21.4836 12.4123V12.4296M21.4836 12.4296V14.0191V15.6086V15.6256M21.4836 12.4296V15.6256M21.4836 15.6256L21.4732 15.6391M21.4836 15.6256L21.4732 15.6391M21.4732 15.6391L21.3596 15.7867L21.4732 15.6391ZM15.7836 2.98027C16.0176 3.22854 16.3286 3.56058 16.6597 3.91694L15.7836 2.98027ZM16.2564 10.6961C15.9896 10.6961 15.74 10.696 15.5063 10.6959M16.2564 10.6961L15.5063 10.6959M15.5063 10.6959C13.7959 10.6953 12.9405 10.695 12.4755 10.7328M15.5063 10.6959L12.4755 10.7328M12.4755 10.7328C12.2112 10.7543 12.0807 10.7877 11.9926 10.8358M12.4755 10.7328L11.9926 10.8358M11.9926 10.8358C11.9244 10.873 11.8803 10.9189 11.8169 10.9849M11.9926 10.8358L11.8169 10.9849M11.8169 10.9849C11.7973 11.0053 11.7758 11.0277 11.7511 11.0523M11.8169 10.9849L11.7511 11.0523M11.7511 11.0523L11.7158 11.017M11.7511 11.0523L11.7158 11.017M11.7158 11.017L11.7513 11.0521C11.7397 11.0639 11.7285 11.0752 11.7177 11.0861M11.7158 11.017L11.7177 11.0861M11.7177 11.0861C11.6347 11.1695 11.5764 11.2281 11.5318 11.3027M11.7177 11.0861L11.5318 11.3027M11.5318 11.3027C11.4824 11.3851 11.4486 11.4899 11.4266 11.6733M11.5318 11.3027L11.4266 11.6733M11.4266 11.6733C11.385 12.0206 11.3879 12.6298 11.3937 13.8566M11.4266 11.6733L11.3937 13.8566M11.3937 13.8566C11.3941 13.9373 11.3945 14.0208 11.3949 14.1071L11.3937 13.8566ZM14.8022 1.30958L14.802 1.30963L21.4459 8.82073C21.429 7.07943 21.4248 6.9868 21.3406 6.75911L21.2938 6.77672C21.2938 6.77671 21.2938 6.77671 21.2938 6.7767C21.0292 6.0737 20.5179 5.58838 19.8428 5.39481C19.8428 5.39479 19.8427 5.39478 19.8427 5.39477L19.5732 5.31894L19.5595 5.31508L19.5499 5.30459L17.8886 3.49179L17.8885 3.49168C17.4335 2.99231 16.9942 2.52147 16.6536 2.16504C16.4832 1.98681 16.3377 1.83735 16.2272 1.7273C16.172 1.67225 16.1257 1.62728 16.0896 1.59357C16.0526 1.55904 16.0286 1.53852 16.0168 1.5304L16.0168 1.53041L16.0157 1.52965C15.6745 1.28137 15.2095 1.19969 14.8022 1.30958ZM11.3264 4.97088L11.3264 4.97096L8.57902 5.21581L8.54773 5.1768C8.5477 5.17683 8.5478 5.17675 8.54808 5.17651L8.54815 5.17645L8.54917 5.17559L8.55285 5.17238L8.56492 5.16161L8.60517 5.12503C8.6386 5.09447 8.6845 5.05223 8.73954 5.0014C8.84962 4.89973 8.99608 4.76382 9.15213 4.61844L9.15224 4.61834C9.52301 4.27495 9.74326 4.07477 9.88043 3.96046C9.94884 3.90346 9.99839 3.86626 10.0367 3.8432C10.0751 3.82013 10.107 3.80819 10.139 3.80819L10.1394 3.80819C10.1519 3.80827 10.1624 3.8125 10.1676 3.8148C10.1741 3.81763 10.1805 3.82123 10.1864 3.82491C10.1984 3.83232 10.2124 3.84247 10.2277 3.8544C10.2585 3.87842 10.298 3.91247 10.3433 3.95371C10.4339 4.03636 10.5496 4.14997 10.6683 4.27497C10.9085 4.52797 11.2039 4.84005 11.3264 4.97088ZM12.9673 15.9732C12.9003 15.9238 12.8045 15.8283 12.7551 15.7609L12.9975 15.9333L12.9679 15.9736C12.9677 15.9735 12.9675 15.9733 12.9673 15.9732Z" fill="#333333" stroke="black" stroke-width="0.1"/>
<path d="M15.3672 14.6773L15.3319 14.642C15.3883 14.5855 15.4674 14.4677 15.5098 14.3803C15.6587 14.0629 15.5841 13.6489 15.3319 13.3938C15.1041 13.1689 14.7227 13.0783 14.4402 13.1797L14.4402 13.1797C14.1356 13.2886 13.9451 13.4904 13.8559 13.7943C13.776 14.0753 13.8675 14.4258 14.0834 14.6419C14.4216 14.9772 14.9939 14.9772 15.332 14.6418L15.3672 14.6773ZM15.3672 14.6773C15.4287 14.6158 15.5108 14.4927 15.5549 14.4019C15.7132 14.0647 15.634 13.6281 15.3672 13.3584V14.6773Z" fill="#333333" stroke="black" stroke-width="0.1"/>
</svg>
