<svg width="65" height="65" viewBox="0 0 65 65" fill="none" xmlns="http://www.w3.org/2000/svg">
<g clip-path="url(#clip0)">
<path d="M57.8992 46.1759L41.8941 41.9669V35.4209C44.9253 32.7887 46.8452 28.9084 46.8452 24.588L46.8458 9.52179C46.8458 4.27143 42.5744 0 37.3241 0H27.6756C22.4252 0 18.1538 4.27143 18.1538 9.52179L18.1539 24.588C18.1539 28.9084 20.0738 32.7887 23.105 35.4209V41.9669L7.10005 46.1759C2.85325 47.2928 0 50.9934 0 55.3845V63.0957C0 64.1474 0.852611 65 1.90428 65C2.95595 65 3.80856 64.1474 3.80856 63.0957V55.3845C3.80856 52.7498 5.52064 50.5294 8.0687 49.8593L8.88652 49.6443V63.0944C8.88652 64.1461 9.73913 64.9987 10.7908 64.9987C11.8425 64.9987 12.6951 64.1461 12.6951 63.0944V48.6426L16.5037 47.6411V56.2398C16.5037 57.2915 17.3563 58.1441 18.4079 58.1441C18.4943 58.1441 46.5377 58.1441 46.5913 58.1441C47.643 58.1441 48.4956 57.2915 48.4956 56.2398V47.6409L52.3042 48.6425V63.0948C52.3042 64.1465 53.1568 64.9991 54.2084 64.9991C55.2601 64.9991 56.1127 64.1465 56.1127 63.0948V49.6441L56.9305 49.8592C59.4786 50.5292 61.1907 52.7498 61.1907 55.3844V63.0956C61.1907 64.1473 62.0433 64.9999 63.095 64.9999C64.1466 64.9999 64.9992 64.1473 64.9992 63.0956V55.3844C64.9992 50.9934 62.146 47.2927 57.8992 46.1759ZM21.9623 9.52179C21.9623 6.37147 24.5252 3.80856 27.6756 3.80856H37.3241C40.4742 3.80856 43.0372 6.37147 43.0372 9.52179V11.8985C39.2431 10.6955 35.8415 10.1271 32.497 10.1271C29.1532 10.1271 25.7534 10.6952 21.9623 11.8977V9.52179ZM42.1298 15.6062C41.8808 16.0329 40.2129 18.8928 39.7839 19.6288C37.8513 18.6627 35.3512 17.7473 32.4964 17.7473H32.4943C29.6412 17.7478 27.1425 18.6634 25.211 19.6293C24.9205 19.1314 23.2176 16.2118 22.8652 15.607C26.3782 14.471 29.4825 13.9357 32.4971 13.9357C35.5112 13.9357 38.6154 14.4705 42.1298 15.6062ZM21.9626 24.588V21.6184C22.3724 22.3209 22.6988 22.8802 22.8557 23.1485C23.111 23.5853 23.5298 23.9025 24.0193 24.0301C24.4971 24.1545 25.0315 24.084 25.4653 23.8287C27.1233 22.853 29.6558 21.5562 32.4962 21.5557C35.3378 21.5557 37.8721 22.853 39.5312 23.8289C39.9678 24.0855 40.4885 24.1581 40.9785 24.0298C41.4684 23.9017 41.8872 23.5835 42.1421 23.146C42.44 22.6348 42.7383 22.1233 43.0365 21.6117V24.5878C43.0365 30.3981 38.3097 35.1249 32.4995 35.1249C26.6893 35.1249 21.9626 30.3981 21.9626 24.588ZM38.0855 37.8011V43.3247C36.5776 44.7792 34.557 45.6045 32.4462 45.6045C30.3762 45.6045 28.4087 44.8202 26.9137 43.4279V37.8011C28.6314 38.53 30.5193 38.9334 32.4996 38.9334C34.4799 38.9336 36.3679 38.5301 38.0855 37.8011ZM44.687 54.3355H20.3122V46.6394L23.8141 45.7185C26.0609 48.0747 29.1667 49.4131 32.4463 49.4131C35.7219 49.4131 38.8519 48.0628 41.0996 45.6959L44.6872 46.6394L44.687 54.3355Z" fill="#FF5254"/>
</g>
<defs>
<clipPath id="clip0">
<rect width="65" height="65" fill="white"/>
</clipPath>
</defs>
</svg>
