<svg width="22" height="31" viewBox="0 0 22 31" fill="none" xmlns="http://www.w3.org/2000/svg">
<path d="M11.3288 30L10.6932 29.2849C10.2959 28.8877 1 17.9233 1 11.3288C1 5.60822 5.60822 1 11.3288 1C17.0493 1 21.6575 5.60822 21.6575 11.3288C21.6575 17.9233 12.3616 28.8877 11.9644 29.3644L11.3288 30ZM11.3288 2.58904C6.48219 2.58904 2.58904 6.48219 2.58904 11.3288C2.58904 16.4137 9.26301 24.9945 11.3288 27.537C13.3945 24.9945 20.0685 16.4137 20.0685 11.3288C20.0685 6.48219 16.1753 2.58904 11.3288 2.58904Z" fill="#727171" stroke="#727171" stroke-width="0.5"/>
<path d="M11.3288 15.3012C9.10415 15.3012 7.3562 13.5532 7.3562 11.3286C7.3562 9.1039 9.10415 7.35596 11.3288 7.35596C13.5535 7.35596 15.3014 9.1039 15.3014 11.3286C15.3014 13.5532 13.5535 15.3012 11.3288 15.3012ZM11.3288 8.945C9.97812 8.945 8.94524 9.97787 8.94524 11.3286C8.94524 12.6792 9.97812 13.7121 11.3288 13.7121C12.6795 13.7121 13.7124 12.6792 13.7124 11.3286C13.7124 9.97787 12.6795 8.945 11.3288 8.945Z" fill="#727171" stroke="#727171" stroke-width="0.5"/>
</svg>
