<svg width="174" height="19" viewBox="0 0 174 19" fill="none" xmlns="http://www.w3.org/2000/svg">
<path d="M13.2977 9.264C14.2577 9.568 15.0097 10.08 15.5537 10.8C16.0977 11.504 16.3697 12.376 16.3697 13.416C16.3697 14.888 15.7937 16.024 14.6417 16.824C13.5057 17.608 11.8417 18 9.64969 18H0.961689V1.2H9.16969C11.2177 1.2 12.7857 1.592 13.8737 2.376C14.9777 3.16 15.5297 4.224 15.5297 5.568C15.5297 6.384 15.3297 7.112 14.9297 7.752C14.5457 8.392 14.0017 8.896 13.2977 9.264ZM4.82569 4.128V8.088H8.68969C9.64969 8.088 10.3777 7.92 10.8737 7.584C11.3697 7.248 11.6177 6.752 11.6177 6.096C11.6177 5.44 11.3697 4.952 10.8737 4.632C10.3777 4.296 9.64969 4.128 8.68969 4.128H4.82569ZM9.36169 15.072C10.3857 15.072 11.1537 14.904 11.6657 14.568C12.1937 14.232 12.4577 13.712 12.4577 13.008C12.4577 11.616 11.4257 10.92 9.36169 10.92H4.82569V15.072H9.36169ZM33.0413 14.88V18H20.0333V1.2H32.7293V4.32H23.8973V7.968H31.6973V10.992H23.8973V14.88H33.0413ZM42.3748 18.288C41.0468 18.288 39.7588 18.112 38.5108 17.76C37.2788 17.392 36.2868 16.92 35.5348 16.344L36.8548 13.416C37.5748 13.944 38.4308 14.368 39.4228 14.688C40.4148 15.008 41.4068 15.168 42.3988 15.168C43.5028 15.168 44.3188 15.008 44.8468 14.688C45.3748 14.352 45.6388 13.912 45.6388 13.368C45.6388 12.968 45.4788 12.64 45.1588 12.384C44.8548 12.112 44.4548 11.896 43.9588 11.736C43.4788 11.576 42.8228 11.4 41.9908 11.208C40.7108 10.904 39.6628 10.6 38.8468 10.296C38.0308 9.992 37.3268 9.504 36.7348 8.832C36.1588 8.16 35.8708 7.264 35.8708 6.144C35.8708 5.168 36.1348 4.288 36.6628 3.504C37.1908 2.704 37.9828 2.072 39.0388 1.608C40.1108 1.144 41.4148 0.912 42.9508 0.912C44.0228 0.912 45.0708 1.04 46.0948 1.296C47.1188 1.552 48.0148 1.92 48.7828 2.4L47.5828 5.352C46.0308 4.472 44.4788 4.032 42.9268 4.032C41.8388 4.032 41.0308 4.208 40.5028 4.56C39.9908 4.912 39.7348 5.376 39.7348 5.952C39.7348 6.528 40.0308 6.96 40.6228 7.248C41.2308 7.52 42.1508 7.792 43.3828 8.064C44.6628 8.368 45.7108 8.672 46.5268 8.976C47.3428 9.28 48.0388 9.76 48.6148 10.416C49.2068 11.072 49.5028 11.96 49.5028 13.08C49.5028 14.04 49.2308 14.92 48.6868 15.72C48.1588 16.504 47.3588 17.128 46.2868 17.592C45.2148 18.056 43.9108 18.288 42.3748 18.288ZM56.1251 4.368H50.7491V1.2H65.3891V4.368H60.0131V18H56.1251V4.368ZM113.581 18.288C111.869 18.288 110.317 17.92 108.925 17.184C107.549 16.432 106.461 15.4 105.661 14.088C104.877 12.76 104.485 11.264 104.485 9.6C104.485 7.936 104.877 6.448 105.661 5.136C106.461 3.808 107.549 2.776 108.925 2.04C110.317 1.288 111.877 0.912 113.605 0.912C115.061 0.912 116.373 1.168 117.541 1.68C118.725 2.192 119.717 2.928 120.517 3.888L118.021 6.192C116.885 4.88 115.477 4.224 113.797 4.224C112.757 4.224 111.829 4.456 111.013 4.92C110.197 5.368 109.557 6 109.093 6.816C108.645 7.632 108.421 8.56 108.421 9.6C108.421 10.64 108.645 11.568 109.093 12.384C109.557 13.2 110.197 13.84 111.013 14.304C111.829 14.752 112.757 14.976 113.797 14.976C115.477 14.976 116.885 14.312 118.021 12.984L120.517 15.288C119.717 16.264 118.725 17.008 117.541 17.52C116.357 18.032 115.037 18.288 113.581 18.288ZM134.598 14.4H126.798L125.31 18H121.326L128.814 1.2H132.654L140.166 18H136.086L134.598 14.4ZM133.374 11.448L130.71 5.016L128.046 11.448H133.374ZM153.333 18L150.093 13.32H149.901H146.517V18H142.629V1.2H149.901C151.389 1.2 152.677 1.448 153.765 1.944C154.869 2.44 155.717 3.144 156.309 4.056C156.901 4.968 157.197 6.048 157.197 7.296C157.197 8.544 156.893 9.624 156.285 10.536C155.693 11.432 154.845 12.12 153.741 12.6L157.509 18H153.333ZM153.261 7.296C153.261 6.352 152.957 5.632 152.349 5.136C151.741 4.624 150.853 4.368 149.685 4.368H146.517V10.224H149.685C150.853 10.224 151.741 9.968 152.349 9.456C152.957 8.944 153.261 8.224 153.261 7.296ZM166.518 18.288C165.19 18.288 163.902 18.112 162.654 17.76C161.422 17.392 160.43 16.92 159.678 16.344L160.998 13.416C161.718 13.944 162.574 14.368 163.566 14.688C164.558 15.008 165.55 15.168 166.542 15.168C167.646 15.168 168.462 15.008 168.99 14.688C169.518 14.352 169.782 13.912 169.782 13.368C169.782 12.968 169.622 12.64 169.302 12.384C168.998 12.112 168.598 11.896 168.102 11.736C167.622 11.576 166.966 11.4 166.134 11.208C164.854 10.904 163.806 10.6 162.99 10.296C162.174 9.992 161.47 9.504 160.878 8.832C160.302 8.16 160.014 7.264 160.014 6.144C160.014 5.168 160.278 4.288 160.806 3.504C161.334 2.704 162.126 2.072 163.182 1.608C164.254 1.144 165.558 0.912 167.094 0.912C168.166 0.912 169.214 1.04 170.238 1.296C171.262 1.552 172.158 1.92 172.926 2.4L171.726 5.352C170.174 4.472 168.622 4.032 167.07 4.032C165.982 4.032 165.174 4.208 164.646 4.56C164.134 4.912 163.878 5.376 163.878 5.952C163.878 6.528 164.174 6.96 164.766 7.248C165.374 7.52 166.294 7.792 167.526 8.064C168.806 8.368 169.854 8.672 170.67 8.976C171.486 9.28 172.182 9.76 172.758 10.416C173.35 11.072 173.646 11.96 173.646 13.08C173.646 14.04 173.374 14.92 172.83 15.72C172.302 16.504 171.502 17.128 170.43 17.592C169.358 18.056 168.054 18.288 166.518 18.288Z" fill="#FF5254"/>
<path d="M72.0411 5.376H75.3531V8.256H72.1371V18H68.3931V8.256H66.4011V5.376H68.3931V4.8C68.3931 3.328 68.8251 2.16 69.6891 1.296C70.5691 0.431999 71.8011 -1.43051e-06 73.3851 -1.43051e-06C73.9451 -1.43051e-06 74.4731 0.0639987 74.9691 0.191999C75.4811 0.303999 75.9051 0.472 76.2411 0.696L75.2571 3.408C74.8251 3.104 74.3211 2.952 73.7451 2.952C72.6091 2.952 72.0411 3.576 72.0411 4.824V5.376ZM83.9182 18.192C82.5582 18.192 81.3342 17.912 80.2462 17.352C79.1742 16.776 78.3342 15.984 77.7262 14.976C77.1182 13.968 76.8142 12.824 76.8142 11.544C76.8142 10.264 77.1182 9.12 77.7262 8.112C78.3342 7.104 79.1742 6.32 80.2462 5.76C81.3342 5.184 82.5582 4.896 83.9182 4.896C85.2782 4.896 86.4942 5.184 87.5662 5.76C88.6383 6.32 89.4783 7.104 90.0863 8.112C90.6943 9.12 90.9983 10.264 90.9983 11.544C90.9983 12.824 90.6943 13.968 90.0863 14.976C89.4783 15.984 88.6383 16.776 87.5662 17.352C86.4942 17.912 85.2782 18.192 83.9182 18.192ZM83.9182 15.12C84.8782 15.12 85.6622 14.8 86.2703 14.16C86.8943 13.504 87.2063 12.632 87.2063 11.544C87.2063 10.456 86.8943 9.592 86.2703 8.952C85.6622 8.296 84.8782 7.968 83.9182 7.968C82.9582 7.968 82.1662 8.296 81.5422 8.952C80.9182 9.592 80.6062 10.456 80.6062 11.544C80.6062 12.632 80.9182 13.504 81.5422 14.16C82.1662 14.8 82.9582 15.12 83.9182 15.12ZM97.7968 6.792C98.2448 6.168 98.8448 5.696 99.5968 5.376C100.365 5.056 101.245 4.896 102.237 4.896V8.352C101.821 8.32 101.541 8.304 101.397 8.304C100.325 8.304 99.4848 8.608 98.8768 9.216C98.2688 9.808 97.9648 10.704 97.9648 11.904V18H94.2208V5.088H97.7968V6.792Z" fill="#4F4F4F"/>
</svg>
