<svg width="226" height="54" viewBox="0 0 226 54" fill="none" xmlns="http://www.w3.org/2000/svg">
<path d="M20.5559 21.0908C21.9141 21.5209 22.9779 22.2452 23.7475 23.2638C24.5171 24.2597 24.9019 25.4934 24.9019 26.9647C24.9019 29.0471 24.0871 30.6542 22.4573 31.786C20.8502 32.8951 18.4961 33.4497 15.3951 33.4497H3.10408V9.68257H14.716C17.6133 9.68257 19.8316 10.2371 21.3708 11.3463C22.9327 12.4554 23.7136 13.9607 23.7136 15.862C23.7136 17.0164 23.4306 18.0463 22.8648 18.9518C22.3215 19.8572 21.5519 20.5702 20.5559 21.0908ZM8.57052 13.8248V19.4271H14.037C15.3951 19.4271 16.425 19.1894 17.1267 18.7141C17.8284 18.2387 18.1792 17.537 18.1792 16.609C18.1792 15.6809 17.8284 14.9906 17.1267 14.5379C16.425 14.0625 15.3951 13.8248 14.037 13.8248H8.57052ZM14.9876 29.3074C16.4363 29.3074 17.5228 29.0698 18.2471 28.5944C18.9941 28.1191 19.3676 27.3834 19.3676 26.3875C19.3676 24.4182 17.9076 23.4336 14.9876 23.4336H8.57052V29.3074H14.9876ZM47.4688 29.0358V33.4497H29.0662V9.68257H47.0274V14.0965H34.5327V19.2573H45.5674V23.5354H34.5327V29.0358H47.4688ZM59.6545 33.8571C57.7757 33.8571 55.9536 33.6082 54.188 33.1102C52.4451 32.5896 51.0417 31.9218 49.9779 31.1069L51.8453 26.9647C52.8639 27.7116 54.0749 28.3115 55.4783 28.7642C56.8816 29.2169 58.285 29.4432 59.6884 29.4432C61.2503 29.4432 62.4047 29.2169 63.1516 28.7642C63.8986 28.2888 64.2721 27.6664 64.2721 26.8968C64.2721 26.3309 64.0457 25.8669 63.593 25.5047C63.163 25.1199 62.5971 24.8143 61.8954 24.588C61.2163 24.3616 60.2883 24.1126 59.1112 23.841C57.3004 23.4109 55.8178 22.9808 54.6634 22.5508C53.509 22.1207 52.513 21.4303 51.6755 20.4796C50.8606 19.529 50.4532 18.2614 50.4532 16.6769C50.4532 15.2961 50.8267 14.0512 51.5737 12.9421C52.3206 11.8103 53.4411 10.9162 54.935 10.2598C56.4516 9.60334 58.2964 9.27513 60.4694 9.27513C61.9859 9.27513 63.4685 9.45621 64.9172 9.81838C66.3659 10.1805 67.6335 10.7012 68.72 11.3802L67.0223 15.5564C64.8267 14.3115 62.631 13.689 60.4354 13.689C58.8962 13.689 57.7531 13.938 57.0061 14.436C56.2818 14.934 55.9196 15.5904 55.9196 16.4053C55.9196 17.2201 56.3384 17.8313 57.1759 18.2387C58.0361 18.6235 59.3376 19.0083 61.0805 19.3931C62.8913 19.8232 64.374 20.2533 65.5284 20.6834C66.6828 21.1134 67.6674 21.7925 68.4823 22.7205C69.3198 23.6486 69.7385 24.9049 69.7385 26.4893C69.7385 27.8475 69.3537 29.0924 68.5841 30.2242C67.8372 31.3333 66.7054 32.2161 65.1888 32.8725C63.6723 33.5289 61.8275 33.8571 59.6545 33.8571ZM78.0886 14.1644H70.4831V9.68257H91.1945V14.1644H83.589V33.4497H78.0886V14.1644ZM142.855 33.8571C140.433 33.8571 138.237 33.3365 136.268 32.2953C134.322 31.2314 132.782 29.7715 131.651 27.9154C130.541 26.0366 129.987 23.9202 129.987 21.5661C129.987 19.2121 130.541 17.107 131.651 15.2509C132.782 13.3721 134.322 11.9122 136.268 10.8709C138.237 9.80706 140.444 9.27513 142.889 9.27513C144.949 9.27513 146.805 9.6373 148.457 10.3616C150.132 11.086 151.536 12.1272 152.667 13.4853L149.136 16.7448C147.529 14.8887 145.537 13.9607 143.161 13.9607C141.689 13.9607 140.376 14.2889 139.222 14.9453C138.068 15.5791 137.162 16.4732 136.506 17.6276C135.872 18.782 135.555 20.0948 135.555 21.5661C135.555 23.0374 135.872 24.3503 136.506 25.5047C137.162 26.6591 138.068 27.5645 139.222 28.2209C140.376 28.8547 141.689 29.1716 143.161 29.1716C145.537 29.1716 147.529 28.2323 149.136 26.3535L152.667 29.613C151.536 30.9938 150.132 32.0463 148.457 32.7706C146.782 33.495 144.915 33.8571 142.855 33.8571ZM171.57 28.3567H160.535L158.43 33.4497H152.794L163.387 9.68257H168.82L179.447 33.4497H173.675L171.57 28.3567ZM169.838 24.1805L166.07 15.0811L162.301 24.1805H169.838ZM197.056 33.4497L192.472 26.8289H192.201H187.413V33.4497H181.913V9.68257H192.201C194.306 9.68257 196.128 10.0334 197.667 10.7351C199.229 11.4368 200.429 12.4328 201.266 13.723C202.104 15.0132 202.523 16.5411 202.523 18.3066C202.523 20.0722 202.092 21.6001 201.232 22.8903C200.395 24.1579 199.195 25.1312 197.633 25.8103L202.964 33.4497H197.056ZM196.954 18.3066C196.954 16.9712 196.524 15.9526 195.664 15.2509C194.804 14.5265 193.548 14.1644 191.895 14.1644H187.413V22.4489H191.895C193.548 22.4489 194.804 22.0868 195.664 21.3624C196.524 20.6381 196.954 19.6195 196.954 18.3066ZM214.69 33.8571C212.811 33.8571 210.989 33.6082 209.223 33.1102C207.48 32.5896 206.077 31.9218 205.013 31.1069L206.88 26.9647C207.899 27.7116 209.11 28.3115 210.513 28.7642C211.917 29.2169 213.32 29.4432 214.724 29.4432C216.285 29.4432 217.44 29.2169 218.187 28.7642C218.934 28.2888 219.307 27.6664 219.307 26.8968C219.307 26.3309 219.081 25.8669 218.628 25.5047C218.198 25.1199 217.632 24.8143 216.931 24.588C216.251 24.3616 215.323 24.1126 214.146 23.841C212.336 23.4109 210.853 22.9808 209.699 22.5508C208.544 22.1207 207.548 21.4303 206.711 20.4796C205.896 19.529 205.488 18.2614 205.488 16.6769C205.488 15.2961 205.862 14.0512 206.609 12.9421C207.356 11.8103 208.476 10.9162 209.97 10.2598C211.487 9.60334 213.332 9.27513 215.504 9.27513C217.021 9.27513 218.504 9.45621 219.952 9.81838C221.401 10.1805 222.669 10.7012 223.755 11.3802L222.057 15.5564C219.862 14.3115 217.666 13.689 215.471 13.689C213.931 13.689 212.788 13.938 212.041 14.436C211.317 14.934 210.955 15.5904 210.955 16.4053C210.955 17.2201 211.374 17.8313 212.211 18.2387C213.071 18.6235 214.373 19.0083 216.116 19.3931C217.926 19.8232 219.409 20.2533 220.564 20.6834C221.718 21.1134 222.703 21.7925 223.517 22.7205C224.355 23.6486 224.774 24.9049 224.774 26.4893C224.774 27.8475 224.389 29.0924 223.619 30.2242C222.872 31.3333 221.741 32.2161 220.224 32.8725C218.707 33.5289 216.863 33.8571 214.69 33.8571Z" fill="#FF5254"/>
<path d="M97.5238 20.0552H101.038V23.111H97.6257V33.4497H93.6532V23.111H91.5396V20.0552H93.6532V19.4441C93.6532 17.8822 94.1115 16.6429 95.0283 15.7262C95.962 14.8095 97.2692 14.3511 98.9498 14.3511C99.544 14.3511 100.104 14.419 100.631 14.5548C101.174 14.6737 101.624 14.8519 101.98 15.0896L100.936 17.9671C100.478 17.6446 99.943 17.4833 99.3318 17.4833C98.1265 17.4833 97.5238 18.1454 97.5238 19.4695V20.0552ZM109.362 33.6534C107.919 33.6534 106.62 33.3563 105.466 32.7622C104.328 32.151 103.437 31.3107 102.792 30.2411C102.147 29.1716 101.824 27.9578 101.824 26.5997C101.824 25.2416 102.147 24.0277 102.792 22.9582C103.437 21.8887 104.328 21.0568 105.466 20.4627C106.62 19.8515 107.919 19.5459 109.362 19.5459C110.805 19.5459 112.095 19.8515 113.233 20.4627C114.37 21.0568 115.261 21.8887 115.906 22.9582C116.552 24.0277 116.874 25.2416 116.874 26.5997C116.874 27.9578 116.552 29.1716 115.906 30.2411C115.261 31.3107 114.37 32.151 113.233 32.7622C112.095 33.3563 110.805 33.6534 109.362 33.6534ZM109.362 30.3939C110.381 30.3939 111.212 30.0544 111.857 29.3753C112.52 28.6793 112.851 27.7541 112.851 26.5997C112.851 25.4453 112.52 24.5285 111.857 23.8495C111.212 23.1534 110.381 22.8054 109.362 22.8054C108.343 22.8054 107.503 23.1534 106.841 23.8495C106.179 24.5285 105.848 25.4453 105.848 26.5997C105.848 27.7541 106.179 28.6793 106.841 29.3753C107.503 30.0544 108.343 30.3939 109.362 30.3939ZM123.324 21.5577C123.799 20.8956 124.436 20.3948 125.233 20.0552C126.048 19.7157 126.982 19.5459 128.035 19.5459V23.2129C127.593 23.1789 127.296 23.1619 127.143 23.1619C126.006 23.1619 125.115 23.4845 124.47 24.1296C123.824 24.7577 123.502 25.7084 123.502 26.9817V33.4497H119.529V19.7496H123.324V21.5577Z" fill="#4F4F4F"/>
<path d="M3.03837 42.3822H10.1922V51.478H8.98228V43.4556H4.24204V51.478H3.03837V42.3822ZM12.1741 47.048C12.1741 45.5382 12.5795 44.3573 13.3902 43.5052C14.2009 42.649 15.2474 42.2209 16.5297 42.2209C17.3694 42.2209 18.1263 42.4215 18.8005 42.8227C19.4748 43.224 19.9877 43.7844 20.3393 44.5042C20.695 45.2197 20.8728 46.0325 20.8728 46.9425C20.8728 47.8649 20.6867 48.6901 20.3144 49.4181C19.9422 50.1461 19.4148 50.6983 18.7323 51.0747C18.0498 51.447 17.3135 51.6331 16.5235 51.6331C15.6673 51.6331 14.902 51.4263 14.2278 51.0127C13.5536 50.5991 13.0428 50.0344 12.6953 49.3189C12.3479 48.6033 12.1741 47.8463 12.1741 47.048ZM13.415 47.0666C13.415 48.1628 13.7087 49.0272 14.2961 49.6601C14.8876 50.2888 15.628 50.6032 16.5173 50.6032C17.4231 50.6032 18.1677 50.2847 18.7509 49.6477C19.3383 49.0107 19.6319 48.1069 19.6319 46.9363C19.6319 46.1959 19.5058 45.5507 19.2535 45.0005C19.0053 44.4463 18.6392 44.0181 18.1553 43.7162C17.6755 43.4101 17.1357 43.2571 16.5359 43.2571C15.6838 43.2571 14.9496 43.5507 14.3333 44.1381C13.7211 44.7213 13.415 45.6975 13.415 47.0666ZM22.8114 51.478V42.3822H26.2425C26.8464 42.3822 27.3076 42.4112 27.6261 42.4691C28.0728 42.5435 28.4471 42.6862 28.7491 42.8972C29.051 43.104 29.293 43.3956 29.475 43.772C29.6612 44.1484 29.7542 44.5621 29.7542 45.0129C29.7542 45.7864 29.5081 46.442 29.0159 46.9798C28.5237 47.5133 27.6344 47.7801 26.3479 47.7801H24.0151V51.478H22.8114ZM24.0151 46.7068H26.3666C27.1442 46.7068 27.6964 46.562 28.0232 46.2724C28.3499 45.9829 28.5133 45.5755 28.5133 45.0502C28.5133 44.6696 28.4161 44.3449 28.2217 44.0761C28.0314 43.8031 27.7791 43.6231 27.4648 43.5363C27.2621 43.4825 26.8877 43.4556 26.3417 43.4556H24.0151V46.7068ZM33.4114 51.478V43.4556H30.4146V42.3822H37.6243V43.4556H34.6151V51.478H33.4114ZM37.8255 51.478L41.3187 42.3822H42.6154L46.3381 51.478H44.9669L43.906 48.7232H40.1026L39.1037 51.478H37.8255ZM40.45 47.7429H43.5337L42.5844 45.2239C42.2949 44.4587 42.0798 43.8299 41.9391 43.3377C41.8233 43.9209 41.6599 44.5 41.449 45.075L40.45 47.7429ZM48.6303 42.3822H54.326V51.478H53.1224V43.4556H49.834V48.14C49.834 49.0914 49.7885 49.7883 49.6975 50.2309C49.6106 50.6735 49.4245 51.0189 49.1391 51.2671C48.8537 51.5111 48.4917 51.6331 48.0533 51.6331C47.7886 51.6331 47.4701 51.5835 47.0978 51.4842L47.3025 50.4171C47.5011 50.4998 47.6707 50.5411 47.8113 50.5411C48.0843 50.5411 48.2891 50.4398 48.4256 50.2371C48.5621 50.0303 48.6303 49.5464 48.6303 48.7853V42.3822ZM61.4295 42.3822H66.9639V50.4046H67.7829V53.6H66.7095V51.478H60.6973V53.6H59.624V50.4046H60.3313C61.0634 49.3002 61.4295 47.0687 61.4295 43.71V42.3822ZM65.7602 43.4556H62.5897V43.9209C62.5897 44.6944 62.5194 45.7533 62.3788 47.0976C62.2423 48.4378 61.9713 49.5402 61.566 50.4046H65.7602V43.4556ZM70.2612 42.3822H75.9569V51.478H74.7533V43.4556H71.4649V48.14C71.4649 49.0914 71.4194 49.7883 71.3284 50.2309C71.2415 50.6735 71.0554 51.0189 70.77 51.2671C70.4846 51.5111 70.1226 51.6331 69.6842 51.6331C69.4195 51.6331 69.101 51.5835 68.7287 51.4842L68.9334 50.4171C69.132 50.4998 69.3016 50.5411 69.4422 50.5411C69.7152 50.5411 69.92 50.4398 70.0565 50.2371C70.193 50.0303 70.2612 49.5464 70.2612 48.7853V42.3822ZM85.5146 51.478V42.3822H81.4817C80.671 42.3822 80.0546 42.4649 79.6327 42.6304C79.2108 42.7917 78.8737 43.0792 78.6214 43.4928C78.3691 43.9065 78.2429 44.3635 78.2429 44.864C78.2429 45.5093 78.4518 46.0532 78.8696 46.4958C79.2874 46.9384 79.9326 47.2197 80.8054 47.3396C80.4869 47.4927 80.2449 47.6436 80.0795 47.7926C79.7279 48.1152 79.3949 48.5185 79.0805 49.0024L77.4984 51.478H79.0123L80.216 49.5857C80.5676 49.0397 80.8571 48.6219 81.0846 48.3323C81.3121 48.0428 81.5148 47.8401 81.6926 47.7243C81.8746 47.6085 82.0587 47.5278 82.2448 47.4823C82.3813 47.4534 82.6047 47.4389 82.9149 47.4389H84.3109V51.478H85.5146ZM84.3109 46.3965H81.7237C81.1735 46.3965 80.7433 46.3407 80.4331 46.229C80.1229 46.1132 79.8871 45.9312 79.7258 45.683C79.5645 45.4307 79.4838 45.1577 79.4838 44.864C79.4838 44.4338 79.6389 44.0802 79.9492 43.8031C80.2635 43.5259 80.7578 43.3874 81.432 43.3874H84.3109V46.3965ZM90.8808 42.3822H92.0968L95.0626 47.9539L97.6561 42.3822H98.8536L95.4411 49.4554C95.015 50.3405 94.6655 50.9196 94.3925 51.1926C94.1195 51.4656 93.7286 51.6021 93.2199 51.6021C92.9096 51.6021 92.5291 51.5297 92.0782 51.385V50.355C92.4009 50.5411 92.7421 50.6342 93.102 50.6342C93.3957 50.6342 93.648 50.5411 93.8589 50.355C94.074 50.1647 94.3098 49.7346 94.5662 49.0645L90.8808 42.3822ZM100.221 51.478V42.3822H102.033L104.186 48.8225C104.384 49.4223 104.529 49.8711 104.62 50.1689C104.724 49.838 104.885 49.352 105.104 48.7108L107.282 42.3822H108.901V51.478H107.741V43.8651L105.098 51.478H104.012L101.382 43.7348V51.478H100.221ZM111.262 51.478V42.3822H112.465V46.1173H117.193V42.3822H118.397V51.478H117.193V47.1907H112.465V51.478H111.262ZM120.851 42.3822H122.054V46.2662H124.226C125.649 46.2662 126.583 46.5289 127.03 47.0542C127.481 47.5795 127.706 48.1752 127.706 48.8411C127.706 49.5443 127.467 50.1606 126.987 50.6901C126.507 51.2154 125.616 51.478 124.313 51.478H120.851V42.3822ZM122.054 50.4543H124.257C125.014 50.4543 125.562 50.3281 125.901 50.0758C126.244 49.8194 126.416 49.4119 126.416 48.8535C126.416 48.473 126.313 48.1545 126.106 47.898C125.899 47.6416 125.632 47.4782 125.305 47.4079C124.979 47.3376 124.433 47.3024 123.667 47.3024H122.054V50.4543ZM128.798 42.3822H130.002V51.478H128.798V42.3822ZM131.5 51.478L135.018 46.7378L131.916 42.3822H133.349L135 44.7151C135.343 45.1991 135.587 45.5713 135.732 45.8319C135.934 45.501 136.174 45.1556 136.451 44.7958L138.282 42.3822H139.591L136.396 46.6695L139.839 51.478H138.35L136.06 48.2331C135.932 48.0469 135.8 47.8443 135.663 47.625C135.461 47.9559 135.316 48.1834 135.229 48.3075L132.946 51.478H131.5ZM145.149 51.478V42.3822H148.562C149.257 42.3822 149.813 42.4753 150.231 42.6614C150.653 42.8434 150.982 43.1268 151.217 43.5114C151.457 43.892 151.577 44.2911 151.577 44.7089C151.577 45.0977 151.472 45.4638 151.261 45.8071C151.05 46.1504 150.731 46.4276 150.305 46.6385C150.855 46.7998 151.277 47.0749 151.571 47.4637C151.869 47.8525 152.018 48.3117 152.018 48.8411C152.018 49.2672 151.927 49.6642 151.745 50.0324C151.567 50.3964 151.346 50.6776 151.081 50.8762C150.816 51.0747 150.483 51.2257 150.082 51.3291C149.685 51.4284 149.197 51.478 148.618 51.478H145.149ZM146.353 46.2042H148.32C148.853 46.2042 149.236 46.169 149.468 46.0987C149.774 46.0077 150.003 45.8567 150.156 45.6458C150.314 45.4348 150.392 45.1701 150.392 44.8516C150.392 44.5497 150.32 44.2849 150.175 44.0574C150.03 43.8258 149.823 43.6686 149.555 43.5859C149.286 43.499 148.824 43.4556 148.171 43.4556H146.353V46.2042ZM146.353 50.4046H148.618C149.006 50.4046 149.279 50.3902 149.437 50.3612C149.714 50.3116 149.945 50.2289 150.132 50.113C150.318 49.9972 150.471 49.8297 150.591 49.6105C150.711 49.3871 150.771 49.1307 150.771 48.8411C150.771 48.5019 150.684 48.2083 150.51 47.9601C150.336 47.7078 150.094 47.532 149.784 47.4327C149.478 47.3293 149.035 47.2776 148.456 47.2776H146.353V50.4046ZM153.268 47.048C153.268 45.5382 153.673 44.3573 154.484 43.5052C155.294 42.649 156.341 42.2209 157.623 42.2209C158.463 42.2209 159.22 42.4215 159.894 42.8227C160.568 43.224 161.081 43.7844 161.433 44.5042C161.788 45.2197 161.966 46.0325 161.966 46.9425C161.966 47.8649 161.78 48.6901 161.408 49.4181C161.036 50.1461 160.508 50.6983 159.826 51.0747C159.143 51.447 158.407 51.6331 157.617 51.6331C156.761 51.6331 155.995 51.4263 155.321 51.0127C154.647 50.5991 154.136 50.0344 153.789 49.3189C153.441 48.6033 153.268 47.8463 153.268 47.048ZM154.508 47.0666C154.508 48.1628 154.802 49.0272 155.39 49.6601C155.981 50.2888 156.721 50.6032 157.611 50.6032C158.517 50.6032 159.261 50.2847 159.844 49.6477C160.432 49.0107 160.725 48.1069 160.725 46.9363C160.725 46.1959 160.599 45.5507 160.347 45.0005C160.099 44.4463 159.733 44.0181 159.249 43.7162C158.769 43.4101 158.229 43.2571 157.629 43.2571C156.777 43.2571 156.043 43.5507 155.427 44.1381C154.815 44.7213 154.508 45.6975 154.508 47.0666ZM164.445 42.3822H169.979V50.4046H170.798V53.6H169.725V51.478H163.712V53.6H162.639V50.4046H163.346C164.079 49.3002 164.445 47.0687 164.445 43.71V42.3822ZM168.775 43.4556H165.605V43.9209C165.605 44.6944 165.535 45.7533 165.394 47.0976C165.257 48.4378 164.986 49.5402 164.581 50.4046H168.775V43.4556ZM172.631 42.3822H173.723V49.5857L178.563 42.3822H179.772V51.478H178.68V44.2932L173.835 51.478H172.631V42.3822ZM184.441 51.478V43.4556H181.444V42.3822H188.654V43.4556H185.645V51.478H184.441ZM190.301 51.478V42.3822H196.878V43.4556H191.504V46.2414H196.536V47.3086H191.504V50.4046H197.088V51.478H190.301ZM199.796 42.3822H205.492V51.478H204.288V43.4556H201V48.14C201 49.0914 200.955 49.7883 200.864 50.2309C200.777 50.6735 200.591 51.0189 200.305 51.2671C200.02 51.5111 199.658 51.6331 199.219 51.6331C198.955 51.6331 198.636 51.5835 198.264 51.4842L198.469 50.4171C198.667 50.4998 198.837 50.5411 198.977 50.5411C199.25 50.5411 199.455 50.4398 199.592 50.2371C199.728 50.0303 199.796 49.5464 199.796 48.7853V42.3822ZM207.877 51.478V42.3822H214.454V43.4556H209.081V46.2414H214.113V47.3086H209.081V50.4046H214.665V51.478H207.877ZM216.728 42.3822H217.82V49.5857L222.659 42.3822H223.869V51.478H222.777V44.2932L217.931 51.478H216.728V42.3822ZM221.251 40.2168H222.014C221.952 40.7339 221.762 41.131 221.443 41.4081C221.129 41.6852 220.709 41.8238 220.184 41.8238C219.654 41.8238 219.23 41.6873 218.912 41.4143C218.597 41.1372 218.409 40.738 218.347 40.2168H219.11C219.168 40.4981 219.282 40.7091 219.452 40.8497C219.625 40.9862 219.857 41.0545 220.146 41.0545C220.481 41.0545 220.734 40.9883 220.903 40.8559C221.077 40.7194 221.193 40.5064 221.251 40.2168Z" fill="#4F4F4F"/>
</svg>
