<svg width="22" height="20" viewBox="0 0 22 20" fill="none" xmlns="http://www.w3.org/2000/svg">
<path d="M19.3262 2.25C20.3105 3.09766 20.9668 4.10937 21.2949 5.28516C21.623 6.43359 21.6367 7.54102 21.3359 8.60742C21.0352 9.67383 20.5156 10.5898 19.7773 11.3555L12.5996 18.6562C12.1621 19.0938 11.6426 19.3125 11.041 19.3125C10.4395 19.3125 9.91992 19.0938 9.48242 18.6562L2.30469 11.3555C1.56641 10.5898 1.04688 9.67383 0.746094 8.60742C0.445312 7.51367 0.458984 6.39258 0.787109 5.24414C1.11523 4.0957 1.77148 3.09766 2.75586 2.25C3.93164 1.26562 5.3125 0.841797 6.89844 0.978516C8.51172 1.08789 9.89258 1.7168 11.041 2.86523C12.1895 1.7168 13.5566 1.08789 15.1426 0.978516C16.7559 0.841797 18.1504 1.26562 19.3262 2.25ZM18.3828 9.96094C19.1758 9.14062 19.5723 8.14258 19.5723 6.9668C19.5723 5.76367 19.0801 4.69727 18.0957 3.76758C17.2754 3.11133 16.3184 2.82422 15.2246 2.90625C14.1582 2.98828 13.2422 3.42578 12.4766 4.21875L11.041 5.6543L9.60547 4.21875C8.83984 3.42578 7.91016 2.98828 6.81641 2.90625C5.75 2.82422 4.80664 3.11133 3.98633 3.76758C3.00195 4.69727 2.50977 5.76367 2.50977 6.9668C2.50977 8.14258 2.90625 9.14062 3.69922 9.96094L10.918 17.2617C11 17.3711 11.082 17.3711 11.1641 17.2617L18.3828 9.96094Z" fill="white"/>
</svg>
