<svg width="23" height="20" viewBox="0 0 23 20" fill="none" xmlns="http://www.w3.org/2000/svg">
<path d="M19.8945 1.45703C21.2409 2.60286 21.957 4.0638 22.043 5.83984C22.1289 7.61589 21.556 9.11979 20.3242 10.3516L12.0312 18.9453C11.7448 19.2318 11.4154 19.375 11.043 19.375C10.6706 19.375 10.3411 19.2318 10.0547 18.9453L1.76172 10.3516C0.529948 9.11979 -0.0429688 7.61589 0.0429688 5.83984C0.128906 4.0638 0.845052 2.60286 2.19141 1.45703C3.36589 0.454427 4.71224 0.0247396 6.23047 0.167969C7.77734 0.282552 9.09505 0.898438 10.1836 2.01562L11.043 2.875L11.9023 2.01562C12.9909 0.898438 14.2943 0.282552 15.8125 0.167969C17.3594 0.0247396 18.7201 0.454427 19.8945 1.45703Z" fill="#FF5254"/>
<path d="M19.8945 1.45703L19.2453 2.2176L19.2464 2.21857L19.8945 1.45703ZM20.3242 10.3516L19.6171 9.64446L19.6108 9.65075L19.6046 9.65716L20.3242 10.3516ZM12.0312 18.9453L12.7384 19.6524L12.7447 19.6461L12.7508 19.6397L12.0312 18.9453ZM10.0547 18.9453L9.3351 19.6397L9.34128 19.6461L9.34758 19.6524L10.0547 18.9453ZM1.76172 10.3516L2.48131 9.65716L2.47512 9.65075L2.46883 9.64446L1.76172 10.3516ZM0.0429688 5.83984L-0.955863 5.79151L0.0429688 5.83984ZM2.19141 1.45703L2.83953 2.21857L2.84067 2.2176L2.19141 1.45703ZM6.23047 0.167969L6.13655 1.16355L6.14656 1.16449L6.1566 1.16524L6.23047 0.167969ZM10.1836 2.01562L9.4673 2.71355L9.47649 2.72273L10.1836 2.01562ZM11.043 2.875L10.3359 3.58211L11.043 4.28921L11.7501 3.58211L11.043 2.875ZM11.9023 2.01562L12.6095 2.72279L12.6186 2.71349L11.9023 2.01562ZM15.8125 0.167969L15.8878 1.16513L15.8962 1.16449L15.9047 1.16371L15.8125 0.167969ZM19.2464 2.21857C20.381 3.18416 20.9715 4.3863 21.0441 5.88817L23.0418 5.79151C22.9426 3.7413 22.1008 2.02157 20.5427 0.695492L19.2464 2.21857ZM21.0441 5.88817C21.1168 7.38919 20.6448 8.61676 19.6171 9.64446L21.0313 11.0587C22.4672 9.62282 23.141 7.84258 23.0418 5.79151L21.0441 5.88817ZM19.6046 9.65716L11.3117 18.2509L12.7508 19.6397L21.0438 11.046L19.6046 9.65716ZM11.3241 18.2382C11.2071 18.3553 11.1255 18.375 11.043 18.375V20.375C11.7052 20.375 12.2825 20.1083 12.7384 19.6524L11.3241 18.2382ZM11.043 18.375C10.9604 18.375 10.8789 18.3553 10.7618 18.2382L9.34758 19.6524C9.80342 20.1083 10.3807 20.375 11.043 20.375V18.375ZM10.7743 18.2509L2.48131 9.65716L1.04213 11.046L9.3351 19.6397L10.7743 18.2509ZM2.46883 9.64446C1.44113 8.61676 0.96917 7.38919 1.0418 5.88817L-0.955863 5.79151C-1.05511 7.84258 -0.381234 9.62282 1.05461 11.0587L2.46883 9.64446ZM1.0418 5.88817C1.11447 4.3863 1.70496 3.18416 2.83952 2.21857L1.54329 0.695492C-0.0148548 2.02157 -0.856659 3.7413 -0.955863 5.79151L1.0418 5.88817ZM2.84067 2.2176C3.81234 1.38812 4.89145 1.04609 6.13655 1.16355L6.32439 -0.827611C4.53303 -0.996607 2.91943 -0.479269 1.54214 0.696467L2.84067 2.2176ZM6.1566 1.16524C7.45848 1.26167 8.54815 1.77009 9.46736 2.71349L10.8998 1.31776C9.64195 0.0267845 8.09621 -0.696568 6.30434 -0.829299L6.1566 1.16524ZM9.47649 2.72273L10.3359 3.58211L11.7501 2.16789L10.8907 1.30852L9.47649 2.72273ZM11.7501 3.58211L12.6095 2.72273L11.1952 1.30852L10.3359 2.16789L11.7501 3.58211ZM12.6186 2.71349C13.5416 1.76614 14.619 1.26089 15.8878 1.16513L15.7372 -0.829195C13.9696 -0.695786 12.4401 0.0307395 11.1861 1.31776L12.6186 2.71349ZM15.9047 1.16371C17.1846 1.0452 18.2775 1.39142 19.2453 2.2176L20.5438 0.696467C19.1626 -0.482568 17.5341 -0.995718 15.7203 -0.827772L15.9047 1.16371Z" fill="white"/>
</svg>
