<svg width="30" height="30" viewBox="0 0 30 30" fill="none" xmlns="http://www.w3.org/2000/svg">
<path d="M25.7148 6H4.28516C3.02771 6 2 7.02319 2 8.28516V21.9961C2 23.2585 3.02837 24.2812 4.28516 24.2812H25.7148C26.9723 24.2812 28 23.2581 28 21.9961V8.28516C28 7.02289 26.9718 6 25.7148 6ZM25.3639 7.52344C24.6251 8.26469 15.9468 16.9713 15.5903 17.329C15.2925 17.6277 14.7077 17.6279 14.4097 17.329L4.63605 7.52344H25.3639ZM3.52344 21.716V8.56521L10.0775 15.1406L3.52344 21.716ZM4.63605 22.7578L11.153 16.2196L13.3308 18.4045C14.2232 19.2998 15.7772 19.2995 16.6693 18.4045L18.847 16.2197L25.3639 22.7578H4.63605ZM26.4766 21.716L19.9225 15.1406L26.4766 8.56521V21.716Z" fill="#4F4F4F"/>
</svg>
