<svg width="35" height="24" viewBox="0 0 35 24" fill="none" xmlns="http://www.w3.org/2000/svg">
<path d="M31.6277 1H3.95127C2.32597 1 1 2.13926 1 3.53846V20.4615C1 21.856 2.32007 23 3.95127 23H31.6277C33.2489 23 34.5789 21.8646 34.5789 20.4615V3.53846C34.5789 2.144 33.2589 1 31.6277 1ZM31.2201 2.69231L17.852 14.1906L4.36832 2.69231H31.2201ZM2.96752 20.1111V3.88082L12.443 11.961L2.96752 20.1111ZM4.35875 21.3077L13.8402 13.1525L17.1625 15.9855C17.5471 16.3135 18.1677 16.3124 18.5507 15.9829L21.7901 13.1966L31.2202 21.3077H4.35875ZM32.6114 20.1111L23.1813 12L32.6114 3.88888V20.1111Z" fill="#FF5254" stroke="white" stroke-width="0.3"/>
</svg>
