<svg width="50" height="50" viewBox="0 0 50 50" fill="none" xmlns="http://www.w3.org/2000/svg">
<circle cx="25" cy="25" r="25" fill="#FF9800"/>
<path d="M24.8899 25.3442C28.9539 25.3442 32.2485 22.0496 32.2485 17.9856C32.2485 13.9215 28.9539 10.627 24.8899 10.627C20.8258 10.627 17.5312 13.9215 17.5312 17.9856C17.5362 22.0476 20.8279 25.3392 24.8899 25.3442ZM24.8899 14.0232C27.0782 14.0232 28.8522 15.7972 28.8522 17.9856C28.8522 20.174 27.0782 21.948 24.8899 21.948C22.7015 21.948 20.9275 20.174 20.9275 17.9856C20.9275 15.7972 22.7015 14.0232 24.8899 14.0232Z" fill="white"/>
<path d="M32.2216 28.5316C33.0352 28.0061 33.5254 27.1152 33.5266 26.1598C33.5379 25.367 33.0817 24.6389 32.3552 24.2906C31.6089 23.9251 30.7155 24.0074 30.0517 24.503C26.9753 26.7023 22.8026 26.7023 19.7262 24.503C19.0614 24.01 18.1695 23.9278 17.4226 24.2906C16.6965 24.6389 16.2401 25.3661 16.2502 26.1587C16.2519 27.1139 16.7419 28.0045 17.5551 28.5305C18.5984 29.2108 19.7345 29.7431 20.9298 30.1117C21.1325 30.1734 21.3417 30.2306 21.5575 30.2834L18.0769 33.6208C17.1639 34.4895 17.1418 35.9195 18.0277 36.8149C18.9136 37.7103 20.3719 37.7319 21.285 36.8632C21.304 36.8451 21.3227 36.8267 21.341 36.808L24.8885 33.2074L28.4428 36.8147C29.328 37.7108 30.7863 37.7336 31.7001 36.8656C32.6138 35.9976 32.6371 34.5675 31.7519 33.6715C31.7334 33.6528 31.7146 33.6343 31.6954 33.6162L28.2205 30.2822C28.4362 30.228 28.6463 30.1704 28.8505 30.1094C30.0445 29.7423 31.1795 29.2111 32.2216 28.5316Z" fill="white"/>
</svg>
