<svg width="34" height="41" viewBox="0 0 34 41" fill="none" xmlns="http://www.w3.org/2000/svg">
<path d="M8.26788 26.3777C8.26788 25.6968 7.79541 25.2908 6.96179 25.2908C6.62138 25.2908 6.39085 25.3244 6.27026 25.3565V27.5411C6.41304 27.5733 6.58856 27.584 6.83049 27.584C7.71905 27.584 8.26788 27.1351 8.26788 26.3777Z" fill="#FF5254"/>
<path d="M13.4277 25.3142C13.0544 25.3142 12.8131 25.3464 12.6704 25.3799V30.2181C12.8132 30.2516 13.0437 30.2516 13.2522 30.2516C14.7666 30.2624 15.7543 29.4287 15.7543 27.6623C15.765 26.1263 14.865 25.3142 13.4277 25.3142Z" fill="#FF5254"/>
<path d="M23.0156 0H6.54832C4.1426 0 2.18462 1.95935 2.18462 4.3637V20.4999H1.75841C0.787448 20.4999 0 21.2866 0 22.2584V32.9225C0 33.8942 0.787363 34.6808 1.75841 34.6808H2.18462V36.6362C2.18462 39.0432 4.1426 40.9999 6.54832 40.9999H29.0172C31.4214 40.9999 33.3796 39.0431 33.3796 36.6362V10.3277L23.0156 0ZM4.61303 24.1829C5.12836 24.0958 5.85271 24.0302 6.87325 24.0302C7.90458 24.0302 8.63965 24.227 9.13354 24.6224C9.60533 24.9951 9.92371 25.6102 9.92371 26.334C9.92371 27.0577 9.68246 27.6729 9.2435 28.0897C8.67256 28.6271 7.82822 28.8684 6.84051 28.8684C6.62068 28.8684 6.42365 28.8575 6.26956 28.8361V31.4805H4.61303V24.1829ZM29.0172 38.3275H6.54832C5.61682 38.3275 4.85828 37.569 4.85828 36.6362V34.6808H25.8039C26.775 34.6808 27.5624 33.8942 27.5624 32.9225V22.2584C27.5624 21.2866 26.775 20.4999 25.8039 20.4999H4.85828V4.3637C4.85828 3.43356 5.6169 2.67503 6.54832 2.67503L22.0158 2.65887V8.3762C22.0158 10.0462 23.3708 11.4024 25.042 11.4024L30.6428 11.3864L30.7058 36.6361C30.7058 37.569 29.9486 38.3275 29.0172 38.3275ZM10.9919 31.447V24.1829C11.6063 24.0851 12.4071 24.0302 13.2522 24.0302C14.6566 24.0302 15.5674 24.2821 16.281 24.8195C17.049 25.3904 17.5314 26.3005 17.5314 27.6071C17.5314 29.0224 17.0161 29.9995 16.3024 30.6025C15.5237 31.2498 14.3384 31.5567 12.8902 31.5567C12.023 31.5567 11.4086 31.5018 10.9919 31.447ZM22.9675 27.1462V28.5064H20.3117V31.4805H18.6331V24.0851H23.1537V25.4561H20.3117V27.1462H22.9675Z" fill="#FF5254"/>
</svg>
