<svg width="22" height="20" viewBox="0 0 22 20" fill="none" xmlns="http://www.w3.org/2000/svg">
<path d="M11.0003 15.471C13.5317 15.471 15.5837 13.4298 15.5837 10.9118C15.5837 8.39378 13.5317 6.35254 11.0003 6.35254C8.46903 6.35254 6.41699 8.39378 6.41699 10.9118C6.41699 13.4298 8.46903 15.471 11.0003 15.471Z" fill="white"/>
<path d="M20.1667 3.61737H17.2596C16.8921 3.61737 16.547 3.47491 16.287 3.21665L14.6112 1.54969C14.1784 1.11914 13.6028 0.881836 12.9905 0.881836H9.00957C8.39727 0.881836 7.82166 1.11914 7.38883 1.54969L5.71305 3.21665C5.453 3.47491 5.10792 3.61737 4.74045 3.61737H1.83335C0.822208 3.61737 0 4.43525 0 5.44102V17.295C0 18.3008 0.822208 19.1187 1.83335 19.1187H20.1667C21.1778 19.1187 22.0001 18.3008 22.0001 17.295V5.44102C22 4.43525 21.1778 3.61737 20.1667 3.61737ZM11 16.3831C7.96715 16.3831 5.50001 13.929 5.50001 10.9121C5.50001 7.89518 7.96715 5.44102 11 5.44102C14.0329 5.44102 16.5 7.89518 16.5 10.9121C16.5 13.929 14.0329 16.3831 11 16.3831ZM18.3334 8.17656C17.8281 8.17656 17.4167 7.76738 17.4167 7.26473C17.4167 6.76207 17.8281 6.3529 18.3334 6.3529C18.8387 6.3529 19.25 6.76207 19.25 7.26473C19.25 7.76738 18.8387 8.17656 18.3334 8.17656Z" fill="white"/>
</svg>
