<svg width="60" height="59" viewBox="0 0 60 59" fill="none" xmlns="http://www.w3.org/2000/svg">
<path d="M24.1656 42.5346L41.6656 29.4096L24.1656 16.2846V42.5346ZM29.9989 0.24292C13.8989 0.24292 0.832275 13.3096 0.832275 29.4096C0.832275 45.5096 13.8989 58.5762 29.9989 58.5762C46.0989 58.5762 59.1656 45.5096 59.1656 29.4096C59.1656 13.3096 46.0989 0.24292 29.9989 0.24292ZM29.9989 52.7429C17.1364 52.7429 6.66561 42.2721 6.66561 29.4096C6.66561 16.5471 17.1364 6.07625 29.9989 6.07625C42.8614 6.07625 53.3323 16.5471 53.3323 29.4096C53.3323 42.2721 42.8614 52.7429 29.9989 52.7429Z" fill="white"/>
</svg>
