<svg width="15" height="15" viewBox="0 0 15 15" fill="none" xmlns="http://www.w3.org/2000/svg">
<path d="M15 2.3417C14.9994 1.71503 14.7545 1.12623 14.3101 0.683685C13.3937 -0.229095 11.9039 -0.227836 10.9886 0.687118L1.5329 10.1648C1.22533 10.4716 0.990562 10.8514 0.853917 11.2633L0.84509 11.2901L0 15L3.72656 14.1671L3.7543 14.1579C4.16698 14.0215 4.54769 13.7874 4.85606 13.4797L14.313 4.00087C14.7565 3.55752 15.0006 2.96827 15 2.3417ZM2.06653 13.3381L1.67138 12.9434L1.95671 11.6905L3.32465 13.0569L2.06653 13.3381ZM13.4825 3.17392L4.30145 12.3762L2.6389 10.7155L8.92789 4.41194L9.88556 5.36798L10.7149 4.54L9.75556 3.58224L10.6478 2.68812L11.6089 3.64759L12.4382 2.81961L11.4754 1.85842L11.819 1.51407C12.277 1.0563 13.0229 1.05562 13.4817 1.51258C13.704 1.73414 13.8267 2.02894 13.8271 2.34262C13.8273 2.65642 13.7052 2.95133 13.4825 3.17392ZM6.17035 13.8163H15V14.9873H5.00141L6.17035 13.8163Z" fill="#828282"/>
</svg>
