<svg width="16" height="18" viewBox="0 0 16 18" fill="none" xmlns="http://www.w3.org/2000/svg">
<path d="M10.2035 2.57397C11.1512 3.55539 11.7444 4.84365 11.8838 6.22324C12.0232 7.60283 11.7003 8.99009 10.9692 10.153C11.0969 10.263 11.2032 10.384 11.3521 10.494C11.5648 10.67 11.8519 10.89 12.2135 11.143C12.5751 11.407 12.8091 11.572 12.9154 11.66C13.3621 12.001 13.6918 12.287 13.9151 12.518C14.2554 12.87 14.5532 13.233 14.8084 13.618C15.0743 14.003 15.2764 14.377 15.4359 14.762C15.5848 15.147 15.6592 15.51 15.6273 15.862C15.6061 16.214 15.4784 16.511 15.2445 16.753C15.0105 16.995 14.7234 17.127 14.3831 17.149C14.0534 17.171 13.6918 17.105 13.3302 16.94C12.958 16.786 12.5858 16.566 12.2242 16.291C11.8519 16.027 11.501 15.719 11.1607 15.367C10.9373 15.136 10.6608 14.795 10.3418 14.344C10.2354 14.201 10.0759 13.959 9.84194 13.618C9.60797 13.266 9.41654 12.991 9.24639 12.76C9.07623 12.54 8.93797 12.375 8.77845 12.21C7.67459 12.8078 6.41507 13.0256 5.18323 12.8318C3.95138 12.6379 2.81152 12.0424 1.92956 11.132C-0.346312 8.76697 -0.346312 4.92797 1.92956 2.57397C2.4726 2.01161 3.11749 1.56549 3.82735 1.2611C4.5372 0.95672 5.29811 0.800049 6.06655 0.800049C6.83498 0.800049 7.59589 0.95672 8.30574 1.2611C9.0156 1.56549 9.66049 2.01161 10.2035 2.57397ZM8.70401 9.56997C9.39877 8.8461 9.78866 7.86747 9.78866 6.84747C9.78866 5.82747 9.39877 4.84884 8.70401 4.12497C8.35872 3.76677 7.94848 3.48256 7.49681 3.28864C7.04513 3.09473 6.5609 2.99491 6.07186 2.99491C5.58282 2.99491 5.09859 3.09473 4.64692 3.28864C4.19525 3.48256 3.78501 3.76677 3.43972 4.12497C3.09341 4.48211 2.81863 4.90643 2.63115 5.37361C2.44367 5.84079 2.34716 6.34164 2.34716 6.84747C2.34716 7.3533 2.44367 7.85415 2.63115 8.32133C2.81863 8.78851 3.09341 9.21283 3.43972 9.56997C3.78501 9.92817 4.19525 10.2124 4.64692 10.4063C5.09859 10.6002 5.58282 10.7 6.07186 10.7C6.5609 10.7 7.04513 10.6002 7.49681 10.4063C7.94848 10.2124 8.35872 9.92817 8.70401 9.56997Z" fill="white"/>
</svg>
