<svg width="16" height="17" viewBox="0 0 16 17" fill="none" xmlns="http://www.w3.org/2000/svg">
<path d="M9.98087 1.77392C10.9286 2.75534 11.5217 4.0436 11.6611 5.42319C11.8005 6.80278 11.4777 8.19005 10.7466 9.35292C10.8742 9.46292 10.9806 9.58392 11.1294 9.69392C11.3421 9.86992 11.6293 10.0899 11.9909 10.3429C12.3525 10.6069 12.5864 10.7719 12.6928 10.8599C13.1394 11.2009 13.4691 11.4869 13.6925 11.7179C14.0328 12.0699 14.3306 12.4329 14.5858 12.8179C14.8517 13.2029 15.0537 13.5769 15.2133 13.9619C15.3621 14.3469 15.4366 14.7099 15.4047 15.0619C15.3834 15.4139 15.2558 15.7109 15.0218 15.9529C14.7879 16.1949 14.5007 16.3269 14.1604 16.3489C13.8307 16.3709 13.4691 16.3049 13.1075 16.1399C12.7353 15.9859 12.3631 15.7659 12.0015 15.4909C11.6293 15.2269 11.2783 14.9189 10.938 14.5669C10.7147 14.3359 10.4382 13.9949 10.1191 13.5439C10.0128 13.4009 9.85325 13.1589 9.61929 12.8179C9.38532 12.4659 9.19389 12.1909 9.02373 11.9599C8.85357 11.7399 8.71532 11.5749 8.55579 11.4099C7.45194 12.0078 6.19242 12.2256 4.96057 12.0317C3.72873 11.8378 2.58886 11.2423 1.7069 10.3319C-0.568968 7.96692 -0.568968 4.12792 1.7069 1.77392C2.24995 1.21156 2.89483 0.765438 3.60469 0.461055C4.31455 0.156671 5.07545 0 5.84389 0C6.61233 0 7.37323 0.156671 8.08309 0.461055C8.79294 0.765438 9.43783 1.21156 9.98087 1.77392ZM8.48135 8.76992C9.17611 8.04605 9.56601 7.06742 9.56601 6.04742C9.56601 5.02742 9.17611 4.04879 8.48135 3.32492C8.13606 2.96672 7.72582 2.68251 7.27415 2.4886C6.82248 2.29468 6.33824 2.19486 5.84921 2.19486C5.36017 2.19486 4.87594 2.29468 4.42426 2.4886C3.97259 2.68251 3.56235 2.96672 3.21706 3.32492C2.87075 3.68206 2.59598 4.10638 2.40849 4.57356C2.22101 5.04074 2.12451 5.54159 2.12451 6.04742C2.12451 6.55325 2.22101 7.0541 2.40849 7.52128C2.59598 7.98846 2.87075 8.41278 3.21706 8.76992C3.56235 9.12812 3.97259 9.41233 4.42426 9.60625C4.87594 9.80016 5.36017 9.89998 5.84921 9.89998C6.33824 9.89998 6.82248 9.80016 7.27415 9.60625C7.72582 9.41233 8.13606 9.12812 8.48135 8.76992Z" fill="#BDBDBD"/>
</svg>
