<svg width="22" height="24" viewBox="0 0 22 24" fill="none" xmlns="http://www.w3.org/2000/svg">
<path d="M17.2026 8.86628C15.9824 8.86628 14.8943 8.26329 14.1982 7.3314L8.37004 10.7072C8.50661 11.1138 8.5815 11.5523 8.5815 12.0046C8.5815 12.4614 8.50661 12.8953 8.36564 13.3065L14.1894 16.6777C14.8811 15.7413 15.9736 15.1337 17.1982 15.1337C19.2863 15.1337 20.9912 16.897 20.9912 19.0669C20.9912 21.2367 19.2907 23 17.1982 23C15.1057 23 13.4053 21.2367 13.4053 19.0669C13.4053 18.6101 13.4802 18.1715 13.6211 17.765L7.80176 14.3937C7.11013 15.3347 6.01762 15.9377 4.79295 15.9377C2.70485 15.9377 1 14.1744 1 12.0046C1 9.83472 2.70485 8.07143 4.79736 8.07143C6.02203 8.07143 7.11454 8.67899 7.81057 9.62002L13.6344 6.24419C13.4934 5.83306 13.4141 5.38995 13.4141 4.93314C13.4141 2.76786 15.1145 1 17.207 1C19.2996 1 21 2.76329 21 4.93314C21 7.10299 19.2952 8.86628 17.2026 8.86628ZM17.2026 21.762C18.6388 21.762 19.8062 20.5515 19.8062 19.0623C19.8062 17.5731 18.6388 16.3625 17.2026 16.3625C15.7665 16.3625 14.5991 17.5731 14.5991 19.0623C14.5991 20.5515 15.7709 21.762 17.2026 21.762ZM4.79736 9.30482C3.36123 9.30482 2.19383 10.5154 2.19383 12.0046C2.19383 13.4938 3.36123 14.7043 4.79736 14.7043C6.23348 14.7043 7.40088 13.4938 7.40088 12.0046C7.40088 10.5154 6.22907 9.30482 4.79736 9.30482ZM17.2026 2.23796C15.7665 2.23796 14.5991 3.44851 14.5991 4.93771C14.5991 6.42691 15.7665 7.63746 17.2026 7.63746C18.6388 7.63746 19.8062 6.42691 19.8062 4.93771C19.8062 3.44851 18.6388 2.23796 17.2026 2.23796Z" fill="#828282" stroke="#828282" stroke-width="0.7"/>
</svg>
