<svg width="31" height="30" viewBox="0 0 31 30" fill="none" xmlns="http://www.w3.org/2000/svg">
<path d="M26.0424 25.7147C29.0152 22.8658 30.6522 19.0609 30.6522 15.0001C30.6522 10.9389 29.0152 7.13317 26.0424 4.28529C23.1588 1.52234 19.3527 0 15.3262 0C11.3 0 7.49396 1.52234 4.61037 4.28529C1.63701 7.1337 0 10.9389 0 15.0001C0 19.0601 1.63701 22.8658 4.61037 25.7147C5.6556 26.7158 6.83315 27.5623 8.11029 28.2315C8.11084 28.232 8.1122 28.2325 8.1133 28.2331C8.11712 28.2352 8.12121 28.2357 8.12503 28.2376C8.12939 28.2397 8.13321 28.2424 8.13758 28.2448C8.29282 28.326 8.44997 28.4048 8.60767 28.4803C8.88269 28.6125 9.15634 28.734 9.42536 28.8438C9.42754 28.8446 9.42972 28.8459 9.43191 28.8467C9.43191 28.847 9.43218 28.8472 9.43218 28.8472H9.433C9.43382 28.8475 9.43464 28.848 9.43545 28.8483C9.46656 28.8611 9.50421 28.8742 9.55987 28.8932L9.5937 28.9052C9.59424 28.9054 9.59479 28.9052 9.59534 28.9054C9.78032 28.9786 9.95439 29.0448 10.12 29.1054C10.1391 29.1121 10.1549 29.1164 10.1737 29.1231C10.398 29.2034 10.6119 29.2755 10.8179 29.338C10.897 29.3615 10.9789 29.3813 11.0605 29.4003L11.1903 29.4326H11.1914L11.1982 29.4344C11.5461 29.5298 11.8937 29.6235 12.2503 29.6953C12.2568 29.6964 12.2628 29.6985 12.2691 29.6999C12.3365 29.7132 12.4055 29.721 12.4737 29.7316C12.5714 29.7469 12.6683 29.7642 12.7662 29.7773L12.8006 29.7821L13.1989 29.8419C13.3891 29.8732 13.5793 29.9044 13.7733 29.9234C14.2922 29.9744 14.8147 30 15.3262 30C15.8381 30 16.3608 29.9744 16.8795 29.9234C16.8798 29.9231 16.88 29.9231 16.8803 29.9231C17.0694 29.9041 17.2555 29.8742 17.441 29.8438L17.8917 29.7762C18.0576 29.7541 18.2229 29.7316 18.3844 29.6999C18.7498 29.6272 19.1053 29.5303 19.4608 29.4326L19.5917 29.4003C19.6733 29.3813 19.7543 29.3623 19.8324 29.3386C20.0108 29.2846 20.1931 29.2248 20.3879 29.1565C20.3982 29.1527 20.4083 29.1495 20.419 29.1458C20.6266 29.0723 20.8498 28.9885 21.1016 28.89C21.1401 28.8771 21.1794 28.8638 21.217 28.8483C21.2173 28.8483 21.2173 28.848 21.2176 28.848C21.2184 28.8478 21.2192 28.8475 21.22 28.8472C21.4754 28.7426 21.7319 28.6264 21.9902 28.5038C22.0115 28.4937 22.0325 28.4857 22.0538 28.4755C22.1668 28.4211 22.2789 28.3639 22.3908 28.3068C22.441 28.2814 22.4898 28.2592 22.5403 28.2331C22.6819 28.1588 22.8175 28.0742 22.9566 27.9957C23.7598 27.5425 24.5251 27.0261 25.2345 26.4362C25.512 26.2055 25.7815 25.9649 26.0424 25.7147ZM24.2504 25.6047C24.1006 25.7257 23.9481 25.8434 23.7934 25.9582C23.6935 26.0325 23.5934 26.1062 23.4914 26.1777C23.3413 26.2832 23.188 26.3836 23.0338 26.483C22.9269 26.5521 22.821 26.6229 22.7116 26.6894C22.5255 26.8023 22.3351 26.9083 22.1438 27.0127C22.0674 27.0544 21.9941 27.0995 21.9168 27.1398C21.9163 27.1404 21.9155 27.1401 21.9147 27.1406C21.8945 27.1511 21.8743 27.1607 21.8541 27.1711C21.7106 27.2453 21.5646 27.3166 21.4167 27.3863C21.274 27.4541 21.1308 27.5156 20.9876 27.5778C20.8869 27.621 20.7903 27.6659 20.6855 27.7083L20.5846 27.7444C20.584 27.7444 20.5838 27.7449 20.5832 27.7449L20.5821 27.7455C20.1549 27.9145 19.7975 28.0408 19.457 28.1433C19.4567 28.1436 19.4564 28.1439 19.4559 28.1439V28.1441C19.4035 28.1599 19.3497 28.1722 19.2963 28.1845C19.2425 28.1973 19.1888 28.2093 19.1353 28.2234C19.1593 28.1992 19.1822 28.1714 19.2059 28.1468C19.2753 28.0752 19.3432 27.9999 19.4111 27.9246C19.4848 27.8429 19.5579 27.7604 19.6299 27.6744C19.6957 27.5959 19.7604 27.5148 19.825 27.4325C19.8968 27.3409 19.968 27.2475 20.0384 27.1513C20.1 27.0669 20.1609 26.9807 20.2214 26.8926C20.2918 26.7903 20.3611 26.6854 20.4296 26.5783C20.4872 26.4886 20.5442 26.398 20.6001 26.3051C20.6689 26.1916 20.736 26.0749 20.8026 25.9566C20.8558 25.8624 20.9087 25.7678 20.9606 25.6706C21.0271 25.5457 21.0918 25.417 21.1562 25.2872C21.2047 25.1889 21.2536 25.0915 21.3011 24.9908C21.3657 24.8525 21.4282 24.7096 21.4907 24.5665C21.5338 24.4669 21.5777 24.3691 21.6197 24.2671C21.683 24.1139 21.7433 23.9555 21.8036 23.7969C21.8415 23.6973 21.8803 23.6001 21.9171 23.4986C21.9248 23.4775 21.9329 23.4578 21.9406 23.4367C22.0317 23.4842 22.1256 23.528 22.2153 23.5771C22.2994 23.6233 22.3834 23.6698 22.4661 23.7173C22.7602 23.8866 23.0488 24.0623 23.3274 24.2498C23.3369 24.2565 23.3473 24.2621 23.3569 24.2687C23.6433 24.4626 23.9181 24.6693 24.1868 24.8821C24.2613 24.9411 24.3342 25.0017 24.4073 25.0621C24.4889 25.1296 24.5653 25.202 24.6449 25.2712C24.5999 25.3104 24.5565 25.3521 24.511 25.3908C24.4253 25.4634 24.338 25.5342 24.2504 25.6047ZM7.66748 26.5153C7.49178 26.4031 7.31771 26.2886 7.14719 26.1684C7.05415 26.103 6.96275 26.0354 6.87135 25.9676C6.71229 25.8498 6.55541 25.7286 6.40153 25.6042C6.3134 25.5331 6.22555 25.4621 6.13933 25.3889C6.09432 25.3507 6.05203 25.3099 6.00783 25.2714C6.08722 25.2025 6.16307 25.1304 6.24438 25.0634C6.31831 25.0023 6.39198 24.9409 6.46728 24.881C6.73521 24.669 7.00913 24.4629 7.29452 24.2695C7.30652 24.2613 7.31962 24.2541 7.33162 24.2458C7.60801 24.0599 7.89394 23.8856 8.1856 23.7179C8.26854 23.6701 8.35285 23.6236 8.43688 23.5774C8.52664 23.528 8.62077 23.4845 8.71162 23.4367C8.71926 23.4578 8.72745 23.4773 8.73509 23.4981C8.77301 23.603 8.81339 23.7037 8.85241 23.8065C8.91107 23.9601 8.96918 24.1136 9.03057 24.2623C9.07531 24.3713 9.12251 24.4762 9.16889 24.5825C9.22783 24.7179 9.28703 24.8533 9.34842 24.9841C9.39889 25.092 9.45128 25.1964 9.50339 25.3013C9.56423 25.4236 9.62508 25.5454 9.68783 25.6634C9.74267 25.7665 9.79887 25.8666 9.85507 25.9662C9.91892 26.0795 9.98331 26.1914 10.0491 26.3C10.1072 26.3964 10.1661 26.4902 10.2259 26.5831C10.2927 26.6875 10.3604 26.7898 10.4288 26.8896C10.4905 26.9794 10.5527 27.0672 10.6155 27.1532C10.685 27.2483 10.7552 27.3404 10.8264 27.4312C10.8913 27.514 10.9565 27.5959 11.0228 27.675C11.0948 27.761 11.1677 27.8432 11.2411 27.9246C11.309 27.9999 11.3769 28.075 11.446 28.1463C11.47 28.1711 11.4929 28.1992 11.5169 28.2234C11.4634 28.2093 11.4097 28.1965 11.3562 28.1845C11.3033 28.1722 11.2495 28.1599 11.1982 28.1441C11.1974 28.1439 11.1966 28.1436 11.1958 28.1433C11.0083 28.0867 10.8127 28.021 10.6065 27.9471C10.4368 27.8862 10.2613 27.8208 10.0679 27.7444L9.92192 27.6923C9.92165 27.6923 9.9211 27.6923 9.92083 27.6921C9.69219 27.5983 9.46328 27.4947 9.23574 27.3868C9.08623 27.3161 8.93535 27.2421 8.78283 27.1639C8.76865 27.1567 8.75446 27.15 8.74 27.1425C8.73945 27.1417 8.73891 27.1417 8.73754 27.1412C8.737 27.1409 8.73618 27.1409 8.73563 27.1406C8.73072 27.1382 8.72636 27.1361 8.72145 27.1337C8.71872 27.1324 8.71708 27.1313 8.71462 27.1302C8.4437 26.9882 8.17878 26.8354 7.91822 26.6763C7.83337 26.6247 7.75097 26.5689 7.66748 26.5153ZM10.0046 6.74571C10.0523 6.61833 10.1006 6.49203 10.15 6.36839C10.186 6.27894 10.2226 6.19055 10.2594 6.10297C10.3102 5.98227 10.3623 5.86424 10.4149 5.74755C10.4523 5.66424 10.49 5.58066 10.5284 5.49948C10.5855 5.37878 10.6441 5.26209 10.7033 5.1462C10.7391 5.07544 10.7745 5.00307 10.8111 4.93391C10.8899 4.78544 10.9707 4.64231 11.0525 4.50212C11.0714 4.47008 11.0891 4.4359 11.1077 4.40439C11.2075 4.23696 11.3098 4.07621 11.4138 3.9208C11.4509 3.86526 11.4891 3.81372 11.5267 3.75978C11.5966 3.65938 11.667 3.56004 11.7385 3.46498C11.7821 3.40703 11.8269 3.35176 11.8713 3.29595C11.9384 3.2113 12.0061 3.12825 12.0746 3.04841C12.1215 2.99394 12.1687 2.94053 12.2162 2.88819C12.2852 2.81209 12.3553 2.73866 12.4255 2.66736C12.4724 2.61983 12.519 2.5723 12.5662 2.52717C12.6424 2.45454 12.7193 2.38645 12.7968 2.31969C12.8391 2.28284 12.8811 2.24439 12.9237 2.20967C13.0251 2.12689 13.1277 2.04999 13.2311 1.97762C13.2505 1.964 13.2693 1.94798 13.2887 1.9349C13.4118 1.85105 13.5359 1.77548 13.6609 1.70659C13.6971 1.68656 13.734 1.67054 13.7705 1.65185C13.8603 1.60565 13.9501 1.56159 14.0409 1.52314C14.0867 1.50391 14.1329 1.48762 14.179 1.47027C14.2616 1.43929 14.3443 1.41045 14.4272 1.38615C14.4761 1.37173 14.5249 1.35891 14.5738 1.3469C14.6117 1.33755 14.6496 1.33168 14.6875 1.32367V8.19701C14.6706 8.19621 14.6534 8.19621 14.6365 8.19541C14.2769 8.17806 13.9195 8.14468 13.5637 8.10008C13.4851 8.0902 13.4066 8.07899 13.328 8.06777C12.9678 8.01624 12.6091 7.95509 12.2536 7.87578C12.229 7.87017 12.2047 7.86296 12.1802 7.85735C11.8419 7.77991 11.5063 7.68699 11.1731 7.58418C11.1006 7.56175 11.0277 7.54066 10.9557 7.51689C10.6152 7.40607 10.2777 7.28244 9.94347 7.14518C9.91946 7.1353 9.89573 7.12436 9.87172 7.11421C9.88263 7.0827 9.893 7.04959 9.90419 7.01808C9.93693 6.92595 9.97076 6.83596 10.0046 6.74571ZM16.2252 1.38615C16.3082 1.41045 16.3906 1.43929 16.4732 1.47027C16.5193 1.48762 16.5657 1.50391 16.6116 1.52341C16.7021 1.56159 16.7919 1.60565 16.8817 1.65158C16.9182 1.67054 16.9551 1.68656 16.9913 1.70659C17.1163 1.77548 17.2404 1.85105 17.3635 1.9349C17.3831 1.94825 17.402 1.96427 17.4216 1.97789C17.5245 2.05026 17.6271 2.12663 17.7283 2.2094C17.7711 2.24439 17.8134 2.28311 17.856 2.31996C17.9332 2.38671 18.0101 2.45481 18.086 2.52717C18.1332 2.5723 18.1798 2.61983 18.2267 2.66736C18.2971 2.73866 18.367 2.81209 18.4363 2.88819C18.4838 2.94053 18.531 2.99394 18.5779 3.04841C18.6461 3.12825 18.7138 3.21103 18.7806 3.29542C18.8253 3.35176 18.8701 3.4073 18.914 3.46551C18.9858 3.56031 19.0562 3.65991 19.126 3.76031C19.1634 3.81372 19.2013 3.86526 19.2381 3.92026C19.3421 4.07594 19.4447 4.2367 19.5445 4.40439C19.5636 4.43643 19.5814 4.47115 19.6005 4.50346C19.6818 4.64311 19.7623 4.78571 19.8408 4.93338C19.8779 5.00307 19.9134 5.07597 19.9497 5.14753C20.0086 5.26316 20.067 5.37932 20.1238 5.49948C20.1622 5.58066 20.1999 5.66424 20.2375 5.74755C20.2902 5.86398 20.342 5.982 20.3928 6.10243C20.4299 6.19055 20.4664 6.27947 20.5027 6.36973C20.5518 6.49203 20.5996 6.617 20.6468 6.7433C20.6809 6.8349 20.7155 6.92595 20.7486 7.01941C20.7597 7.05039 20.7698 7.08297 20.7808 7.11448C20.757 7.12409 20.7338 7.13504 20.7101 7.14465C20.375 7.28244 20.0365 7.40634 19.6951 7.51769C19.6242 7.54066 19.553 7.56148 19.4818 7.58338C19.147 7.68672 18.8101 7.78018 18.4701 7.85789C18.4464 7.86349 18.4232 7.87044 18.3997 7.87551C18.0439 7.95509 17.6849 8.01624 17.3239 8.06777C17.2459 8.07899 17.1676 8.0902 17.089 8.10008C16.7332 8.14468 16.3758 8.17806 16.016 8.19541C15.9988 8.19648 15.9816 8.19621 15.9647 8.19701V1.32367C16.0026 1.33168 16.0408 1.33755 16.0784 1.3469C16.1276 1.35891 16.1764 1.37173 16.2252 1.38615ZM20.6462 23.2578C20.5993 23.3833 20.5518 23.5074 20.503 23.6295C20.4667 23.72 20.4299 23.8094 20.3925 23.8978C20.3418 24.018 20.2902 24.1358 20.2375 24.2519C20.1999 24.3352 20.1625 24.4191 20.1238 24.5003C20.067 24.6204 20.0086 24.7368 19.9497 24.8525C19.9134 24.9238 19.8777 24.9969 19.8406 25.0666C19.7623 25.2143 19.682 25.3566 19.6005 25.4963C19.5816 25.5286 19.5636 25.5636 19.5445 25.5953C19.4444 25.7633 19.3421 25.9241 19.2381 26.0797C19.2013 26.1347 19.1634 26.186 19.1263 26.2394C19.0562 26.3401 18.9858 26.4397 18.914 26.5348C18.8701 26.5927 18.8256 26.648 18.7811 26.7041C18.7138 26.789 18.6458 26.8723 18.5773 26.9521C18.5307 27.0063 18.484 27.0592 18.4368 27.111C18.3673 27.1879 18.2966 27.2619 18.2257 27.3337C18.1795 27.3807 18.1334 27.4277 18.0865 27.4723C18.0101 27.5452 17.9329 27.6138 17.8554 27.6808C17.8129 27.7174 17.7708 27.7559 17.7283 27.7906C17.6262 27.8739 17.5231 27.9511 17.4194 28.024C17.4006 28.0371 17.3823 28.0523 17.3638 28.0651C17.2407 28.1489 17.1163 28.2248 16.9911 28.2937C16.9553 28.3134 16.919 28.3292 16.883 28.3476C16.7927 28.3941 16.7024 28.4384 16.6113 28.4771C16.5657 28.4964 16.5199 28.5124 16.4741 28.5295C16.3911 28.5607 16.3082 28.5898 16.2247 28.6141C16.1761 28.6285 16.1276 28.6411 16.079 28.6531C16.0411 28.6624 16.0029 28.6683 15.9647 28.6763V21.8027C15.9821 21.8035 15.9996 21.8033 16.0171 21.8041C16.3761 21.8217 16.7332 21.8548 17.0882 21.8994C17.1673 21.9093 17.2462 21.9205 17.325 21.9317C17.6854 21.9832 18.0442 22.0444 18.3997 22.124C18.4232 22.1293 18.4467 22.1362 18.4701 22.1416C18.8103 22.2193 19.1473 22.3127 19.4821 22.4161C19.553 22.438 19.6239 22.4588 19.6946 22.4818C20.0362 22.5929 20.3748 22.717 20.7101 22.8548C20.7338 22.8644 20.757 22.8754 20.7808 22.8853C20.7698 22.9162 20.7597 22.9485 20.7488 22.9793C20.7155 23.0735 20.6809 23.1654 20.6462 23.2578ZM14.5732 28.6531C14.5246 28.6411 14.4761 28.6285 14.4278 28.6141C14.3443 28.5895 14.2611 28.5607 14.1781 28.5295C14.1326 28.5124 14.0867 28.4964 14.0412 28.4771C13.9501 28.4384 13.8595 28.3941 13.7689 28.3476C13.7332 28.3292 13.6969 28.3134 13.6614 28.2937C13.5359 28.2248 13.4118 28.1489 13.2884 28.0651C13.2699 28.0523 13.2519 28.0373 13.2333 28.0242C13.1294 27.9511 13.026 27.8739 12.9237 27.7906C12.8814 27.7559 12.8396 27.7177 12.7976 27.6811C12.7198 27.6141 12.6424 27.5455 12.5657 27.4723C12.519 27.4277 12.4729 27.3807 12.4265 27.3337C12.3556 27.2619 12.2852 27.1879 12.2154 27.111C12.1684 27.0592 12.1215 27.0063 12.0751 26.9521C12.0061 26.872 11.9382 26.7887 11.8708 26.7035C11.8266 26.648 11.7821 26.593 11.7385 26.535C11.6667 26.4402 11.5966 26.3406 11.5265 26.24C11.4891 26.1863 11.4509 26.1347 11.4138 26.0792C11.3098 25.9238 11.2075 25.763 11.1077 25.5953C11.0888 25.5638 11.0711 25.5297 11.0525 25.4976C10.9707 25.3574 10.8899 25.2143 10.8111 25.0661C10.7745 24.9969 10.7393 24.9246 10.7033 24.8538C10.6441 24.7376 10.5855 24.621 10.5284 24.5003C10.49 24.4191 10.4523 24.3352 10.4147 24.2519C10.3623 24.1355 10.3104 24.0177 10.2597 23.8976C10.2226 23.8094 10.186 23.7205 10.1497 23.6305C10.1006 23.5077 10.0526 23.3822 10.0051 23.2554C9.97103 23.1643 9.93692 23.0735 9.90391 22.9806C9.89273 22.9493 9.88236 22.9168 9.87144 22.8853C9.89545 22.8754 9.91946 22.8642 9.94347 22.8543C10.278 22.717 10.6155 22.5931 10.956 22.4823C11.028 22.4588 11.1006 22.4377 11.1729 22.4156C11.506 22.3127 11.8416 22.2198 12.1799 22.1421C12.2047 22.1365 12.229 22.1293 12.2536 22.1237C12.6088 22.0444 12.967 21.9832 13.3272 21.932C13.4063 21.9205 13.4854 21.9093 13.5648 21.8994C13.9198 21.8548 14.2764 21.8217 14.6351 21.8041C14.6526 21.8033 14.6701 21.8035 14.6875 21.8027V28.6763C14.6493 28.6686 14.6111 28.6624 14.5732 28.6531ZM9.19809 20.4654C9.09577 19.9952 9.00792 19.5151 8.93262 19.0275C8.92007 18.9463 8.90234 18.8681 8.8906 18.7864C8.80848 18.2178 8.74764 17.6384 8.70289 17.0533C8.68952 16.8771 8.68516 16.6979 8.67506 16.5203C8.65842 16.2234 8.65024 15.9246 8.64314 15.625H14.6875V20.5482C14.6619 20.5493 14.6368 20.5536 14.6111 20.5546C14.2256 20.5722 13.8423 20.6054 13.4611 20.6518C13.3766 20.662 13.2923 20.6748 13.2077 20.6863C12.8413 20.737 12.4765 20.7982 12.1147 20.8753C12.0858 20.8815 12.0563 20.8857 12.0271 20.8921C11.6451 20.976 11.2667 21.0791 10.8908 21.1923C10.8062 21.2177 10.7216 21.2433 10.6376 21.2703C10.2646 21.3896 9.89409 21.5202 9.52795 21.6681C9.52167 21.6708 9.5154 21.6724 9.50939 21.6748C9.44637 21.4489 9.38198 21.2243 9.32578 20.9928C9.28294 20.8171 9.2371 20.6441 9.19809 20.4654ZM8.70289 12.9472C8.74764 12.3619 8.80848 11.7822 8.8906 11.2131C8.90234 11.133 8.91952 11.0561 8.9318 10.9765C9.00738 10.4873 9.0955 10.0056 9.19836 9.53403C9.2371 9.35592 9.28267 9.18342 9.32523 9.00825C9.38171 8.7762 9.44637 8.5511 9.50939 8.32465C9.5154 8.32732 9.52167 8.32893 9.52795 8.33133C9.89436 8.47953 10.2649 8.61011 10.6381 8.72947C10.7219 8.75618 10.8059 8.78181 10.8899 8.80718C11.2662 8.9204 11.6446 9.02347 12.0266 9.10732C12.0563 9.11373 12.0866 9.11827 12.1163 9.12441C12.4778 9.20158 12.8423 9.26246 13.2085 9.3132C13.2925 9.32495 13.3763 9.3375 13.4606 9.34765C13.8417 9.39411 14.2251 9.42722 14.6106 9.44485C14.6365 9.44591 14.6616 9.45019 14.6875 9.45125V14.375H8.64314C8.65024 14.0754 8.65842 13.7766 8.67534 13.4794C8.68516 13.3021 8.68952 13.1234 8.70289 12.9472ZM17.1919 9.34765C17.2762 9.3375 17.3599 9.32495 17.444 9.3132C17.8096 9.26273 18.1738 9.20185 18.5348 9.12494C18.5651 9.11827 18.5959 9.114 18.6262 9.10732C19.0065 9.02374 19.383 8.9212 19.7574 8.80878C19.8452 8.78234 19.9328 8.75564 20.0201 8.7276C20.3887 8.60984 20.7548 8.48087 21.1169 8.3348C21.1253 8.33106 21.1343 8.32866 21.1431 8.32519C21.2056 8.55003 21.2697 8.77326 21.3256 9.00344C21.3687 9.18075 21.4151 9.35539 21.4544 9.53563C21.5567 10.0059 21.6446 10.4865 21.7201 10.9741C21.7324 11.0548 21.7501 11.1325 21.7616 11.2134C21.844 11.7822 21.9046 12.3621 21.9493 12.9472C21.9627 13.1234 21.967 13.3024 21.9771 13.4797C21.9938 13.7769 22.0022 14.0757 22.0091 14.375H15.9647V9.45125C15.9906 9.45019 16.016 9.44591 16.0416 9.44485C16.4274 9.42722 16.8107 9.39411 17.1919 9.34765ZM21.9493 17.0533C21.9046 17.6381 21.844 18.2176 21.7619 18.7861C21.7499 18.8686 21.7321 18.9476 21.7193 19.0296C21.6443 19.5159 21.5564 19.9949 21.4544 20.4638C21.4151 20.6446 21.3687 20.8198 21.3253 20.9976C21.2694 21.2273 21.2056 21.45 21.1431 21.6743C21.1343 21.6708 21.1253 21.6684 21.1169 21.6649C20.7548 21.5186 20.3887 21.3899 20.0201 21.2719C19.9328 21.2438 19.8449 21.2171 19.7574 21.1907C19.383 21.0783 19.0065 20.9757 18.6262 20.8924C18.5959 20.8857 18.5651 20.8812 18.5345 20.8745C18.1735 20.7979 17.8099 20.7367 17.444 20.6863C17.3599 20.6745 17.2762 20.662 17.1919 20.6518C16.8105 20.6054 16.4269 20.5722 16.0411 20.5546C16.0154 20.5536 15.9903 20.5493 15.9647 20.5482V15.625H22.0091C22.0022 15.9243 21.9938 16.2231 21.9771 16.5201C21.967 16.6976 21.9627 16.8768 21.9493 17.0533ZM25.5766 24.394C25.4757 24.3053 25.3685 24.2236 25.2651 24.1376C25.1726 24.0607 25.0806 23.983 24.986 23.908C24.7232 23.7 24.4534 23.5 24.1756 23.3085C24.1374 23.2823 24.1017 23.2538 24.0635 23.2279C23.7446 23.0126 23.4144 22.8108 23.0772 22.6177C22.9855 22.5654 22.8911 22.517 22.7984 22.4663C22.6439 22.3822 22.4925 22.2941 22.3346 22.2145C22.3466 22.1726 22.3547 22.1277 22.3667 22.0858C22.4906 21.6462 22.6036 21.1976 22.7037 20.7391C22.7209 20.6604 22.7359 20.5808 22.7523 20.5017C22.8527 20.0192 22.9432 19.5303 23.0166 19.0317C23.0172 19.028 23.018 19.0245 23.0185 19.0208C23.0922 18.5188 23.1479 18.0085 23.1937 17.4945C23.2013 17.4098 23.2098 17.3262 23.2164 17.2413C23.2559 16.7473 23.2818 16.2493 23.2952 15.7486C23.2963 15.7072 23.3007 15.6666 23.3018 15.625H29.3609C29.2116 18.9132 27.8851 21.9875 25.5766 24.394ZM23.3018 14.375C23.3007 14.3336 23.2963 14.293 23.2952 14.2516C23.2818 13.7504 23.2559 13.2522 23.2164 12.7579C23.2098 12.6738 23.2013 12.591 23.1937 12.5074C23.1479 11.992 23.0919 11.4804 23.0183 10.9771C23.018 10.9768 23.018 10.9763 23.018 10.976C22.9438 10.4713 22.8518 9.97677 22.7504 9.48864C22.7351 9.41467 22.7209 9.34044 22.7048 9.267C22.6033 8.8013 22.4887 8.34575 22.3624 7.89981C22.352 7.86243 22.3446 7.82237 22.3337 7.78499C22.4882 7.70728 22.6358 7.6213 22.7866 7.53932C22.8846 7.48591 22.9842 7.43491 23.0805 7.3799C23.4169 7.18738 23.7459 6.98603 24.0638 6.77161C24.1001 6.74704 24.1339 6.72007 24.1696 6.69551C24.4507 6.50244 24.7232 6.30003 24.9884 6.08988C25.0809 6.01672 25.1707 5.94088 25.2613 5.86558C25.3657 5.77853 25.4746 5.69575 25.5766 5.60602C27.8851 8.01276 29.2116 11.0865 29.3609 14.375H23.3018ZM24.6506 4.72376C24.5683 4.79505 24.4894 4.86982 24.4054 4.93925C24.3331 4.99907 24.2613 5.05888 24.1876 5.11709C23.9194 5.32965 23.645 5.5358 23.3593 5.72939C23.344 5.73981 23.3277 5.74915 23.3121 5.75957C23.0404 5.94221 22.7588 6.11365 22.4721 6.27894C22.3853 6.32887 22.2974 6.37721 22.2093 6.42554C22.1215 6.47387 22.0295 6.5166 21.9406 6.56306C21.9332 6.54196 21.9248 6.52247 21.9174 6.50164C21.8786 6.39483 21.8377 6.29256 21.7979 6.18815C21.7398 6.03568 21.6817 5.88267 21.6208 5.735C21.5761 5.62632 21.5289 5.52164 21.4828 5.41536C21.423 5.27865 21.3633 5.14166 21.3013 5.00948C21.2517 4.90374 21.2004 4.80173 21.1494 4.69892C21.0869 4.57315 21.0241 4.44792 20.9595 4.32668C20.9063 4.22682 20.8517 4.13015 20.7971 4.03322C20.7311 3.91626 20.6648 3.80064 20.5969 3.68848C20.5404 3.59529 20.4831 3.50477 20.4253 3.41478C20.3559 3.30663 20.2861 3.20035 20.2149 3.09701C20.1554 3.01076 20.0954 2.92665 20.0348 2.84387C19.9622 2.74453 19.8889 2.64813 19.8146 2.55387C19.7524 2.47457 19.6894 2.39659 19.6258 2.32076C19.5511 2.2313 19.475 2.14532 19.3986 2.06094C19.3328 1.9883 19.2671 1.91621 19.1999 1.84705C19.1716 1.81767 19.144 1.78483 19.1154 1.75599C21.1513 2.31275 23.0393 3.31971 24.6506 4.72376ZM11.4531 1.84651C11.3846 1.91701 11.3172 1.99071 11.2498 2.06521C11.1764 2.14665 11.1033 2.22917 11.0313 2.31488C10.9639 2.39552 10.897 2.4783 10.8307 2.56295C10.7614 2.65107 10.693 2.74133 10.625 2.83372C10.5595 2.92318 10.4946 3.01423 10.4305 3.10743C10.3647 3.20329 10.2998 3.30182 10.2354 3.40196C10.1729 3.49916 10.111 3.59716 10.0499 3.6981C9.98658 3.80277 9.92492 3.91065 9.86326 4.01933C9.8046 4.12294 9.74621 4.22655 9.68919 4.33363C9.6278 4.44898 9.56833 4.56808 9.50885 4.68771C9.4551 4.79532 9.40135 4.9024 9.34924 5.01348C9.28894 5.14219 9.23083 5.27517 9.17271 5.40842C9.12524 5.5171 9.07695 5.62472 9.03084 5.73633C8.97054 5.88293 8.91298 6.03461 8.85513 6.18601C8.81503 6.29122 8.77383 6.3943 8.73481 6.50191C8.72745 6.52247 8.71926 6.54196 8.71162 6.56279C8.61995 6.51473 8.52528 6.47067 8.4347 6.421C8.35203 6.3756 8.26936 6.32994 8.18778 6.28294C7.89394 6.11391 7.60555 5.93821 7.32726 5.75102C7.31689 5.74381 7.30598 5.73767 7.29561 5.73073C7.00913 5.5366 6.73411 5.32992 6.4651 5.11683C6.39171 5.05861 6.31968 4.9988 6.24765 4.93925C6.16334 4.86982 6.08449 4.79505 6.00237 4.72376C7.61319 3.31998 9.50093 2.31355 11.5371 1.75599C11.5085 1.78456 11.4814 1.81714 11.4531 1.84651ZM5.07637 5.60602C5.17677 5.69441 5.28372 5.77586 5.38658 5.8613C5.48044 5.93928 5.5732 6.01778 5.66897 6.09335C5.92707 6.29763 6.19226 6.49417 6.4651 6.68215C6.50793 6.71179 6.54859 6.74411 6.59197 6.77348C6.90873 6.98737 7.23722 7.18818 7.57254 7.38017C7.66776 7.43438 7.7657 7.48485 7.86229 7.53745C8.01426 7.62023 8.16295 7.70675 8.31847 7.78499C8.30755 7.82264 8.30019 7.86269 8.28955 7.90034C8.1635 8.34628 8.04891 8.8013 7.94741 9.26674C7.93131 9.3407 7.91713 9.41547 7.90158 9.48971C7.80063 9.9757 7.70923 10.4684 7.63529 10.9707C7.63474 10.9733 7.6342 10.976 7.63392 10.9787C7.56026 11.4804 7.5046 11.9904 7.45876 12.5042C7.45113 12.5897 7.44267 12.6743 7.43585 12.7598C7.39629 13.253 7.37037 13.7496 7.35727 14.2492C7.35618 14.2914 7.35154 14.3328 7.35072 14.375H1.2916C1.44057 11.0865 2.76709 8.01276 5.07637 5.60602ZM7.35072 15.625C7.35154 15.6672 7.35618 15.7086 7.35727 15.7508C7.37037 16.2504 7.39629 16.7473 7.43585 17.2402C7.44267 17.326 7.45113 17.4103 7.45876 17.4958C7.5046 18.0096 7.56026 18.5199 7.63392 19.0216C7.6342 19.024 7.63474 19.0264 7.63529 19.0291C7.70895 19.5316 7.80063 20.0243 7.90185 20.5106C7.91713 20.5845 7.93131 20.6593 7.94741 20.733C8.04891 21.1984 8.1635 21.654 8.28982 22.1002C8.30046 22.1373 8.30783 22.1774 8.31847 22.2145C8.16295 22.2927 8.01426 22.3792 7.86229 22.462C7.7657 22.5146 7.66748 22.5651 7.57226 22.6196C7.23668 22.8116 6.90818 23.0124 6.59115 23.2265C6.54804 23.2556 6.50793 23.2877 6.46537 23.317C6.19254 23.5053 5.92761 23.7016 5.66951 23.9058C5.57266 23.9825 5.47853 24.0621 5.38385 24.1411C5.28181 24.226 5.17568 24.3067 5.07637 24.394C2.76709 21.9867 1.44057 18.9132 1.2916 15.625H7.35072Z" fill="#FF5254"/>
</svg>
