<svg width="13" height="13" viewBox="0 0 13 13" fill="none" xmlns="http://www.w3.org/2000/svg">
<path d="M8.45651 4.0911L8.51331 4.21167L8.64507 4.23172L12.5414 4.8247C12.5415 4.82471 12.5416 4.82473 12.5417 4.82474C12.6673 4.84446 12.7694 4.97201 12.7469 5.12469L12.7465 5.12734C12.7384 5.18694 12.7118 5.24034 12.6727 5.28056C12.6726 5.28064 12.6725 5.28072 12.6725 5.2808L9.85327 8.15906L9.76469 8.24949L9.78516 8.37442L10.4513 12.4393L10.4513 12.4395C10.4767 12.5938 10.3765 12.7237 10.253 12.746L10.2526 12.7461C10.2031 12.7551 10.1515 12.7467 10.1075 12.7222L10.1064 12.7216L6.6206 10.8024L6.50003 10.7361L6.37946 10.8024L2.89367 12.7216L2.89327 12.7218C2.85434 12.7433 2.81138 12.7526 2.769 12.7494C2.7266 12.7462 2.68478 12.7306 2.64842 12.703C2.61194 12.6752 2.58217 12.6362 2.56398 12.5893C2.54576 12.5423 2.54033 12.4903 2.5487 12.4397L2.54875 12.4393L3.2149 8.37442L3.23537 8.24949L3.14679 8.15906L0.327156 5.28034L0.32714 5.28032C0.279939 5.23214 0.250958 5.16393 0.250023 5.09004C0.249091 5.0163 0.276233 4.94728 0.322208 4.89763C0.360581 4.85677 0.408119 4.83226 0.457223 4.82492L0.45785 4.82482L4.355 4.23172L4.48675 4.21167L4.54355 4.0911L6.28511 0.393829C6.28519 0.393659 6.28528 0.393488 6.28536 0.393318C6.34929 0.260087 6.49307 0.218202 6.60318 0.275128L6.60348 0.27528C6.64968 0.299086 6.68943 0.339539 6.71429 0.392431L6.71439 0.392643L8.45651 4.0911Z" fill="#FFC805" stroke="#BDBDBD" stroke-width="0.5"/>
</svg>
