<svg width="83" height="49" viewBox="0 0 83 49" fill="none" xmlns="http://www.w3.org/2000/svg">
<path fill-rule="evenodd" clip-rule="evenodd" d="M12.1581 24.5898C10.8188 24.5898 9.72656 25.6867 9.72656 27.0317C9.72656 28.3765 10.819 29.4736 12.1581 29.4736C13.4973 29.4736 14.5896 28.3765 14.5896 27.0317C14.5896 25.6867 13.4973 24.5898 12.1581 24.5898Z" fill="#FF5254"/>
<path fill-rule="evenodd" clip-rule="evenodd" d="M82.3145 41.1934L61.8525 4.17623C60.9413 2.52781 59.2279 1.54374 57.2688 1.54374C55.3096 1.54374 53.5962 2.52781 52.6851 4.17623L52.6794 4.18649C50.8032 1.5413 47.8658 0 44.5806 0H18.92C15.156 0 11.8476 2.02349 10.0695 5.41295C9.12541 7.21309 4.36454 16.2273 2.84566 19.1141C1.04571 20.9424 0.0084292 23.4528 0.0043767 26.2371L0 42.8981C0 46.2627 2.72571 49 6.07599 49H13.3758C16.7261 49 19.4518 46.2627 19.4518 42.8981V39.2326H33.3067L32.2229 41.1932C31.2916 42.8783 31.3101 44.7652 32.2736 46.3704C33.23 47.9642 34.9246 48.9158 36.8069 48.9158H77.7306C79.6126 48.9158 81.3072 47.9643 82.2641 46.3704C83.2274 44.7652 83.2458 42.8781 82.3145 41.1934ZM14.3721 7.68909C15.321 5.88016 16.936 4.88388 18.92 4.88388H44.5806C46.5371 4.88388 48.1952 5.90751 49.1297 7.69202C49.6536 8.69254 49.8811 9.079 49.9277 9.1643L47.0737 14.3277C40.6407 13.3645 34.0577 13.0475 31.7776 13.0475C23.6967 13.0475 16.0077 13.9544 10.2483 15.534C11.6135 12.9422 13.6402 9.0847 14.3721 7.68909ZM14.589 42.8981C14.589 43.5586 14.0335 44.1163 13.376 44.1163H6.07599C5.41835 44.1163 4.863 43.5584 4.863 42.8981V37.8824C6.33065 38.7623 8.00125 39.2326 9.73572 39.2326H14.589V42.8981ZM9.73572 34.349C8.48625 34.349 7.29563 33.8437 6.38317 32.9259C5.40084 31.9381 4.86105 30.6113 4.86316 29.19L4.86737 26.2441C4.87062 24.0378 6.02785 22.2414 7.96332 21.4387C13.2591 19.2423 22.1617 17.9311 31.7776 17.9311C33.6471 17.9311 39.0252 18.1852 44.5436 18.9046L41.4057 24.5814H21.8851C20.5423 24.5814 19.4536 25.6747 19.4536 27.0233C19.4536 28.3718 20.5423 29.4651 21.8851 29.4651H38.7061L36.0064 34.349H9.73572ZM77.7306 44.0321C77.7306 44.0321 36.851 44.0321 36.8069 44.0321C36.5247 44.0321 36.3243 43.836 36.4748 43.5636L56.9369 6.54646C57.0318 6.37439 57.5045 6.37228 57.6009 6.54646C57.6009 6.54663 78.0031 43.4622 78.0626 43.5633C78.1424 43.6992 78.1879 44.0321 77.7306 44.0321Z" fill="#FF5254"/>
<path d="M55.0359 18.4526C55.0359 17.2137 56.0359 16.2107 57.2674 16.2107C58.499 16.2107 59.4989 17.2137 59.4989 18.4526V27.2433C59.4989 28.4822 58.499 29.4852 57.2674 29.4852C56.0359 29.4852 55.0359 28.4822 55.0359 27.2433V18.4526Z" fill="#FF5254" stroke="white" stroke-width="0.4"/>
<path d="M55.0359 37.3178C55.0359 36.0827 56.0396 35.076 57.2674 35.076C58.4954 35.076 59.4989 36.0825 59.4989 37.3178C59.4989 38.5532 58.4954 39.5597 57.2674 39.5597C56.0394 39.5597 55.0359 38.5532 55.0359 37.3178Z" fill="#FF5254" stroke="white" stroke-width="0.4"/>
</svg>
