<svg width="32" height="34" viewBox="0 0 32 34" fill="none" xmlns="http://www.w3.org/2000/svg">
<path d="M16 14.3116C17.93 14.3116 19.5 12.7034 19.5 10.7276C19.5 8.75175 17.93 7.14355 16 7.14355C14.07 7.14355 12.5 8.75175 12.5 10.7276C12.5 12.7034 14.07 14.3116 16 14.3116ZM16 8.16756C17.3785 8.16756 18.5 9.31597 18.5 10.7276C18.5 12.1391 17.3785 13.2876 16 13.2876C14.6215 13.2876 13.5 12.1391 13.5 10.7276C13.5 9.31597 14.6215 8.16756 16 8.16756Z" fill="#727171" stroke="#727171"/>
<path d="M15.9127 29.0356L23.5832 17.6912C26.4602 13.7637 26.0442 7.30785 22.6927 3.87642C20.8817 2.02144 18.4737 1 15.9127 1C13.3517 1 10.9437 2.02144 9.13274 3.87591C5.78124 7.30734 5.36524 13.7632 8.23074 17.6753L15.9127 29.0356ZM9.83974 4.59988C11.4622 2.93895 13.6187 2.024 15.9127 2.024C18.2067 2.024 20.3632 2.93895 21.9857 4.59988C25.0107 7.69697 25.3832 13.5276 22.7722 17.0922L15.9127 27.2364L9.04224 17.0768C6.44224 13.5276 6.81524 7.69697 9.83974 4.59988Z" fill="#727171" stroke="#727171"/>
<path d="M22.0585 24.2999C21.7835 24.2656 21.5355 24.4673 21.5035 24.7484C21.4715 25.0295 21.6675 25.284 21.9415 25.3167C27.1995 25.9506 30 27.6586 30 28.6483C30 30.0379 24.674 31.9763 16 31.9763C7.326 31.9763 2 30.0379 2 28.6483C2 27.6586 4.8005 25.9506 10.0585 25.3167C10.3325 25.284 10.5285 25.029 10.4965 24.7484C10.464 24.4673 10.216 24.2646 9.94149 24.2999C4.677 24.9348 1 26.7227 1 28.6483C1 30.811 6.1525 33.0003 16 33.0003C25.8475 33.0003 31 30.811 31 28.6483C31 26.7227 27.323 24.9348 22.0585 24.2999Z" fill="#727171" stroke="#727171"/>
</svg>
