<svg width="31" height="32" viewBox="0 0 31 32" fill="none" xmlns="http://www.w3.org/2000/svg">
<path d="M24.3351 30.9939C23.1271 30.9939 21.6681 30.6812 20.0646 30.0567C16.546 28.6856 12.7198 25.9778 9.2882 22.4325C5.85657 18.8873 3.23548 14.9335 1.90833 11.2975C0.700324 7.99342 0.697394 5.28155 1.89856 4.04062C2.07239 3.86104 2.24915 3.66935 2.43079 3.47262C3.52747 2.28214 4.79602 0.929231 6.40832 1.00288C7.54114 1.05131 8.63781 1.7777 9.76281 3.2204C13.0792 7.48293 11.5841 9.0023 9.85363 10.7638L9.54699 11.0766C9.26379 11.3691 8.72766 12.7231 13.7071 17.8663C15.3341 19.5461 16.7189 20.775 17.8253 21.5185C18.5235 21.9866 19.7696 22.6928 20.2804 22.1652L20.588 21.8444C22.2911 20.0586 23.7618 18.5191 27.8868 21.9442C29.2843 23.1045 29.9864 24.2374 30.0333 25.4087C30.1007 27.1057 28.7921 28.389 27.6378 29.5209C27.4483 29.7076 27.2628 29.8882 27.0909 30.0657C26.4913 30.6842 25.5382 30.9939 24.3351 30.9939ZM6.29211 2.00773C5.1261 2.00773 4.07141 3.15382 3.1388 4.16673C2.95032 4.37053 2.7677 4.56928 2.58899 4.7539C1.69446 5.67703 1.78626 8.10642 2.82142 10.9424C4.10071 14.4462 6.6427 18.2739 9.97863 21.7203C13.3146 25.1666 17.0187 27.7917 20.4093 29.1134C23.1544 30.1838 25.506 30.2766 26.4005 29.3515C26.5792 29.1678 26.7696 28.9802 26.9649 28.7885C27.9688 27.8028 29.1065 26.687 29.0577 25.4481C29.0235 24.5976 28.4239 23.6825 27.2745 22.7292C23.837 19.876 22.8771 20.8849 21.2833 22.5516L20.9708 22.8775C20.212 23.6654 18.9747 23.4929 17.2931 22.3629C16.131 21.5821 14.6915 20.3078 13.0167 18.5786C8.88488 14.31 7.56262 11.699 8.85656 10.3613L9.16809 10.0425C10.7872 8.39597 11.7638 7.40222 9.00109 3.85095C8.07727 2.66552 7.19153 2.04606 6.36829 2.00974C6.3429 2.00873 6.31653 2.00773 6.29211 2.00773Z" fill="#FF5254"/>
<path d="M24.5056 13.3969C24.4441 13.3969 24.3826 13.3847 24.322 13.3595C24.072 13.2546 23.9509 12.961 24.0535 12.7038C24.6746 11.1218 24.3191 9.31895 23.1511 8.11132C21.9509 6.87141 20.1062 6.52738 18.5584 7.2457C18.3152 7.3597 18.0232 7.24873 17.9128 6.99449C17.8015 6.74025 17.9099 6.44162 18.156 6.32762C20.071 5.43173 22.3552 5.86252 23.8415 7.39905C25.2878 8.8932 25.7263 11.1238 24.9578 13.0831C24.8816 13.2768 24.698 13.3969 24.5056 13.3969Z" fill="#FF5254"/>
<path d="M28.8656 15.2252C28.8041 15.2252 28.7426 15.2131 28.682 15.1878C28.4311 15.0829 28.3109 14.7893 28.4135 14.5321C29.7465 11.1352 28.9877 7.26609 26.4789 4.67427C23.9027 2.01284 19.9408 1.26627 16.6205 2.81692C16.3744 2.9279 16.0854 2.81894 15.974 2.5647C15.8637 2.30945 15.9721 2.01082 16.2182 1.89581C19.9067 0.174658 24.307 1.00295 27.1693 3.95998C29.9564 6.83933 30.8002 11.1372 29.3178 14.9104C29.2416 15.1061 29.058 15.2252 28.8656 15.2252Z" fill="#FF5254"/>
<path d="M24.3351 30.9939C23.1271 30.9939 21.6681 30.6812 20.0646 30.0567C16.546 28.6856 12.7198 25.9778 9.2882 22.4325C5.85657 18.8873 3.23548 14.9335 1.90833 11.2975C0.700324 7.99342 0.697394 5.28155 1.89856 4.04062C2.07239 3.86104 2.24915 3.66935 2.43079 3.47262C3.52747 2.28214 4.79602 0.929231 6.40832 1.00288C7.54114 1.05131 8.63781 1.7777 9.76281 3.2204C13.0792 7.48293 11.5841 9.0023 9.85363 10.7638L9.54699 11.0766C9.26379 11.3691 8.72766 12.7231 13.7071 17.8663C15.3341 19.5461 16.7189 20.775 17.8253 21.5185C18.5235 21.9866 19.7696 22.6928 20.2804 22.1652L20.588 21.8444C22.2911 20.0586 23.7618 18.5191 27.8868 21.9442C29.2843 23.1045 29.9864 24.2374 30.0333 25.4087C30.1007 27.1057 28.7921 28.389 27.6378 29.5209C27.4483 29.7076 27.2628 29.8882 27.0909 30.0657C26.4913 30.6842 25.5382 30.9939 24.3351 30.9939ZM6.29211 2.00773C5.1261 2.00773 4.07141 3.15382 3.1388 4.16673C2.95032 4.37053 2.7677 4.56928 2.58899 4.7539C1.69446 5.67703 1.78626 8.10642 2.82142 10.9424C4.10071 14.4462 6.6427 18.2739 9.97863 21.7203C13.3146 25.1666 17.0187 27.7917 20.4093 29.1134C23.1544 30.1838 25.506 30.2766 26.4005 29.3515C26.5792 29.1678 26.7696 28.9802 26.9649 28.7885C27.9688 27.8028 29.1065 26.687 29.0577 25.4481C29.0235 24.5976 28.4239 23.6825 27.2745 22.7292C23.837 19.876 22.8771 20.8849 21.2833 22.5516L20.9708 22.8775C20.212 23.6654 18.9747 23.4929 17.2931 22.3629C16.131 21.5821 14.6915 20.3078 13.0167 18.5786C8.88488 14.31 7.56262 11.699 8.85656 10.3613L9.16809 10.0425C10.7872 8.39597 11.7638 7.40222 9.00109 3.85095C8.07727 2.66552 7.19153 2.04606 6.36829 2.00974C6.3429 2.00873 6.31653 2.00773 6.29211 2.00773Z" stroke="#FF5254" stroke-width="0.5"/>
<path d="M24.5056 13.3969C24.4441 13.3969 24.3826 13.3847 24.322 13.3595C24.072 13.2546 23.9509 12.961 24.0535 12.7038C24.6746 11.1218 24.3191 9.31895 23.1511 8.11132C21.9509 6.87141 20.1062 6.52738 18.5584 7.2457C18.3152 7.3597 18.0232 7.24873 17.9128 6.99449C17.8015 6.74025 17.9099 6.44162 18.156 6.32762C20.071 5.43173 22.3552 5.86252 23.8415 7.39905C25.2878 8.8932 25.7263 11.1238 24.9578 13.0831C24.8816 13.2768 24.698 13.3969 24.5056 13.3969Z" stroke="#FF5254" stroke-width="0.5"/>
<path d="M28.8656 15.2252C28.8041 15.2252 28.7426 15.2131 28.682 15.1878C28.4311 15.0829 28.3109 14.7893 28.4135 14.5321C29.7465 11.1352 28.9877 7.26609 26.4789 4.67427C23.9027 2.01284 19.9408 1.26627 16.6205 2.81692C16.3744 2.9279 16.0854 2.81894 15.974 2.5647C15.8637 2.30945 15.9721 2.01082 16.2182 1.89581C19.9067 0.174658 24.307 1.00295 27.1693 3.95998C29.9564 6.83933 30.8002 11.1372 29.3178 14.9104C29.2416 15.1061 29.058 15.2252 28.8656 15.2252Z" stroke="#FF5254" stroke-width="0.5"/>
</svg>
