<svg width="28" height="29" viewBox="0 0 28 29" fill="none" xmlns="http://www.w3.org/2000/svg">
<path fill-rule="evenodd" clip-rule="evenodd" d="M22.5773 28.9941C21.4344 28.9941 20.054 28.6918 18.537 28.0881C15.2081 26.7627 11.5881 24.1452 8.34146 20.7181C5.09479 17.2911 2.61498 13.4691 1.35937 9.95426C0.216477 6.76031 0.213705 4.13883 1.35013 2.93927C1.5102 2.7703 1.6729 2.59025 1.83993 2.4054L1.85367 2.3902C2.89124 1.2394 4.09141 -0.0684098 5.61681 0.00278361C6.68856 0.0495957 7.72613 0.751778 8.79049 2.14639C11.9271 6.26545 10.5146 7.73458 8.87806 9.43664L8.87641 9.43835L8.5863 9.74068C8.31836 10.0235 7.81113 11.3323 12.5222 16.3041C14.0615 17.9279 15.3716 19.1158 16.4184 19.8345C17.079 20.2871 18.2579 20.9697 18.7411 20.4597L19.0322 20.1496C20.6435 18.4234 22.0349 16.9351 25.9376 20.2461C27.2597 21.3676 27.924 22.4629 27.9684 23.5951C28.0321 25.2355 26.7941 26.476 25.702 27.5702L25.608 27.6647C25.4616 27.8118 25.3187 27.9554 25.1846 28.0969C24.6173 28.6947 23.7156 28.9941 22.5773 28.9941ZM5.50686 0.974135C4.40421 0.974135 3.40679 2.08099 2.52475 3.0598L2.52351 3.06118L2.46183 3.12936C2.30526 3.30246 2.15286 3.47096 2.00335 3.62877C1.15703 4.52113 1.24388 6.86954 2.22324 9.61097C3.43358 12.998 5.83855 16.6981 8.99468 20.0296C12.1508 23.3611 15.6552 25.8987 18.8631 27.1762C21.4603 28.211 23.6851 28.3007 24.5314 27.4064C24.7005 27.2289 24.8806 27.0475 25.0654 26.8622L25.0681 26.8595C26.0172 25.9074 27.0915 24.8296 27.0454 23.6332C27.013 22.811 26.4457 21.9265 25.3583 21.0048C22.1086 18.249 21.1993 19.2206 19.6935 20.8295L19.69 20.8332L19.3944 21.1482C18.6765 21.9099 17.5059 21.7431 15.9149 20.6508C14.8154 19.896 13.4535 18.6642 11.869 16.9927C7.95988 12.8664 6.70889 10.3424 7.93309 9.04923L8.22782 8.74105C9.75968 7.14943 10.6836 6.18881 8.06983 2.75592C7.1958 1.61 6.3578 1.01119 5.57893 0.976086C5.55491 0.97511 5.52996 0.974135 5.50686 0.974135Z" fill="#727171"/>
<path fill-rule="evenodd" clip-rule="evenodd" d="M22.7397 11.9839C22.6815 11.9839 22.6233 11.9722 22.566 11.9478C22.3295 11.8464 22.2149 11.5626 22.312 11.3139C22.8996 9.78472 22.5633 8.04195 21.4582 6.87457C20.3227 5.67598 18.5775 5.34342 17.113 6.0378C16.883 6.14801 16.6067 6.04073 16.5023 5.79497C16.397 5.5492 16.4996 5.26053 16.7324 5.15032C18.5442 4.2843 20.7053 4.70073 22.1115 6.18604C23.4798 7.63039 23.8946 9.78667 23.1675 11.6806C23.0954 11.8679 22.9217 11.9839 22.7397 11.9839Z" fill="#727171"/>
<path fill-rule="evenodd" clip-rule="evenodd" d="M26.6928 13.7146C26.75 13.7389 26.8082 13.7506 26.8664 13.7506C27.0485 13.7506 27.2222 13.6356 27.2942 13.4464C28.6967 9.79891 27.8985 5.64433 25.2616 2.86096C22.5536 0.00249648 18.3904 -0.798186 14.9007 0.865595C14.6679 0.976774 14.5653 1.26545 14.6697 1.51219C14.7751 1.75795 15.0485 1.86328 15.2814 1.756C18.4227 0.257037 22.1711 0.978724 24.6084 3.55144C26.9819 6.05687 27.6998 9.79696 26.4387 13.0806C26.3417 13.3293 26.4553 13.6131 26.6928 13.7146Z" fill="#727171"/>
</svg>
