<svg width="32" height="32" viewBox="0 0 32 32" fill="none" xmlns="http://www.w3.org/2000/svg">
<path d="M16.3261 0.85C7.7955 0.85 0.85 7.64313 0.85 16C0.85 24.3569 7.7955 31.15 16.3261 31.15C24.8567 31.15 31.8022 24.3569 31.8022 16C31.8022 7.64313 24.8567 0.85 16.3261 0.85ZM16.3261 29.85C8.51856 29.85 2.17174 23.6336 2.17174 16C2.17174 8.36637 8.51856 2.15 16.3261 2.15C24.1336 2.15 30.4804 8.36637 30.4804 16C30.4804 23.6336 24.1336 29.85 16.3261 29.85Z" fill="#FF5254" stroke="#FF5254" stroke-width="0.3"/>
<path d="M16.3255 3.85012C15.9638 3.85012 15.6647 4.13766 15.6647 4.50012V15.8501H8.15162C7.78993 15.8501 7.49075 16.1376 7.49075 16.5001C7.49075 16.8625 7.78993 17.1501 8.15162 17.1501H16.3255C16.6872 17.1501 16.9864 16.8625 16.9864 16.5001V4.50012C16.9864 4.13766 16.6872 3.85012 16.3255 3.85012Z" fill="#FF5254" stroke="#FF5254" stroke-width="0.3"/>
</svg>
