<svg width="21" height="22" viewBox="0 0 21 22" fill="none" xmlns="http://www.w3.org/2000/svg">
<path d="M10.4999 9.43085C11.7222 9.43085 12.7165 8.41233 12.7165 7.16098C12.7165 5.90964 11.7222 4.89111 10.4999 4.89111C9.27754 4.89111 8.2832 5.90964 8.2832 7.16098C8.2832 8.41233 9.27754 9.43085 10.4999 9.43085ZM10.4999 5.53965C11.3729 5.53965 12.0832 6.26698 12.0832 7.16098C12.0832 8.05499 11.3729 8.78232 10.4999 8.78232C9.62682 8.78232 8.91654 8.05499 8.91654 7.16098C8.91654 6.26698 9.62682 5.53965 10.4999 5.53965Z" fill="#FF5254" stroke="#FF5254" stroke-width="0.7"/>
<path d="M10.4438 18.7559L15.3018 11.5711C17.1239 9.08366 16.8604 4.99497 14.7378 2.82173C13.5909 1.64691 12.0658 1 10.4438 1C8.82186 1 7.29679 1.64691 6.14982 2.82141C4.02721 4.99465 3.76374 9.08333 5.57856 11.5611L10.4438 18.7559ZM6.59759 3.27992C7.62517 2.228 8.99096 1.64853 10.4438 1.64853C11.8967 1.64853 13.2625 2.228 14.2901 3.27992C16.2059 5.24142 16.4418 8.93417 14.7882 11.1917L10.4438 17.6164L6.09251 11.182C4.44584 8.93417 4.68207 5.24142 6.59759 3.27992Z" fill="#FF5254" stroke="#FF5254" stroke-width="0.7"/>
<path d="M14.3371 15.7564C14.1629 15.7347 14.0058 15.8625 13.9855 16.0405C13.9653 16.2185 14.0894 16.3797 14.2629 16.4004C17.593 16.8019 19.3667 17.8836 19.3667 18.5104C19.3667 19.3905 15.9935 20.6182 10.5 20.6182C5.00647 20.6182 1.63333 19.3905 1.63333 18.5104C1.63333 17.8836 3.40698 16.8019 6.73705 16.4004C6.91058 16.3797 7.03472 16.2182 7.01445 16.0405C6.99387 15.8625 6.8368 15.7341 6.66295 15.7564C3.32877 16.1585 1 17.2909 1 18.5104C1 19.8801 4.26325 21.2667 10.5 21.2667C16.7367 21.2667 20 19.8801 20 18.5104C20 17.2909 17.6712 16.1585 14.3371 15.7564Z" fill="#FF5254" stroke="#FF5254" stroke-width="0.7"/>
</svg>
