<svg width="22" height="31" viewBox="0 0 22 31" fill="none" xmlns="http://www.w3.org/2000/svg">
<path d="M11.3288 30L10.6932 29.2849C10.2959 28.8877 1 17.9233 1 11.3288C1 5.60822 5.60822 1 11.3288 1C17.0493 1 21.6575 5.60822 21.6575 11.3288C21.6575 17.9233 12.3616 28.8877 11.9644 29.3644L11.3288 30ZM11.3288 2.58904C6.48219 2.58904 2.58904 6.48219 2.58904 11.3288C2.58904 16.4137 9.26301 24.9945 11.3288 27.537C13.3945 24.9945 20.0685 16.4137 20.0685 11.3288C20.0685 6.48219 16.1753 2.58904 11.3288 2.58904Z" fill="#727171" stroke="#727171" stroke-width="0.5"/>
<path d="M11.3281 15.3012C9.10341 15.3012 7.35547 13.5532 7.35547 11.3286C7.35547 9.1039 9.10341 7.35596 11.3281 7.35596C13.5527 7.35596 15.3007 9.1039 15.3007 11.3286C15.3007 13.5532 13.5527 15.3012 11.3281 15.3012ZM11.3281 8.945C9.97739 8.945 8.94451 9.97787 8.94451 11.3286C8.94451 12.6792 9.97739 13.7121 11.3281 13.7121C12.6788 13.7121 13.7116 12.6792 13.7116 11.3286C13.7116 9.97787 12.6788 8.945 11.3281 8.945Z" fill="#727171" stroke="#727171" stroke-width="0.5"/>
</svg>
