<svg width="81" height="67" viewBox="0 0 81 67" fill="none" xmlns="http://www.w3.org/2000/svg">
<path d="M52.3389 29.6116L49.5887 32.3617L48.9086 31.6818C48.0021 30.7751 46.532 30.7751 45.6253 31.6818C44.7186 32.5885 44.7186 34.0584 45.6253 34.965L47.947 37.2867C48.4003 37.74 48.9945 37.9668 49.5885 37.9668C50.1825 37.9668 50.7769 37.7402 51.2301 37.2867L55.6218 32.8949C56.5285 31.9882 56.5285 30.5183 55.6218 29.6116C54.7156 28.705 53.2456 28.705 52.3389 29.6116Z" fill="#FF5254" stroke="white" stroke-width="1.00013"/>
<path d="M68.6381 31.127H63.1341C61.852 31.127 60.8125 32.1664 60.8125 33.4486C60.8125 34.7308 61.852 35.7702 63.1341 35.7702H68.6381C69.9203 35.7702 70.9598 34.7308 70.9598 33.4486C70.9598 32.1664 69.9203 31.127 68.6381 31.127Z" fill="#FF5254" stroke="white" stroke-width="1.00013"/>
<path d="M52.3389 43.1732L49.5887 45.9232L48.9086 45.2433C48.0021 44.3366 46.532 44.3366 45.6253 45.2433C44.7186 46.15 44.7186 47.6199 45.6253 48.5266L47.947 50.8482C48.4003 51.3015 48.9945 51.5283 49.5885 51.5283C50.1825 51.5283 50.7769 51.3017 51.2301 50.8482L55.6218 46.4564C56.5285 45.5498 56.5285 44.0798 55.6218 43.1732C54.7156 42.2665 53.2456 42.2665 52.3389 43.1732Z" fill="#FF5254" stroke="white" stroke-width="1.00013"/>
<path d="M68.6381 44.6895H63.1341C61.852 44.6895 60.8125 45.7289 60.8125 47.0111C60.8125 48.2933 61.852 49.3327 63.1341 49.3327H68.6381C69.9203 49.3327 70.9598 48.2933 70.9598 47.0111C70.9598 45.7289 69.9203 44.6895 68.6381 44.6895Z" fill="#FF5254" stroke="white" stroke-width="1.00013"/>
<path d="M77.9134 14.4596H70.9485V12.6023C70.9485 11.3201 69.909 10.2807 68.6269 10.2807H68.1503C67.6524 9.22417 67.1534 8.2107 66.6547 7.26239C64.5923 3.34114 60.7529 1 56.3844 1H24.9262C20.5609 1 16.7229 3.33851 14.6596 7.25573C12.8987 10.5986 7.54656 23.1291 6.57859 25.3319C3.10309 27.4065 1.01006 31.0598 1.00696 35.2545L1 57.5429C1 61.3833 4.12446 64.5078 7.96476 64.5078H17.2651C21.1055 64.5078 24.23 61.3833 24.23 57.5429V54.4474H35.6596V63.6784C35.6596 64.9605 36.6991 66 37.9812 66H77.9134C79.1956 66 80.235 64.9605 80.235 63.6784V16.7813C80.235 15.4991 79.1956 14.4596 77.9134 14.4596ZM66.3052 14.9239V18.6386H49.5894V14.9239H66.3052ZM5.64962 35.8757H11.377C14.8215 35.8757 17.0664 37.9992 17.9356 40.5189H5.64637L5.64962 35.8757ZM19.5867 57.5429C19.5867 58.823 18.5452 59.8645 17.2651 59.8645H7.96476C6.68461 59.8645 5.64328 58.823 5.64328 57.5429V52.1164C7.64453 53.6281 10.0654 54.4474 12.6096 54.4474H19.5867V57.5429ZM35.6596 49.8041H32.2715V38.1959C32.2715 36.9157 33.313 35.8743 34.5932 35.8743H35.6596V49.8041ZM35.6596 31.231H34.5932C30.7527 31.231 27.6283 34.3554 27.6283 38.1959V49.8041H12.6096C10.7552 49.8041 9.00749 49.0771 7.68833 47.757C6.94169 47.0099 6.38558 46.1254 6.04337 45.1622H20.6633C21.2826 45.1622 21.8762 44.9147 22.3122 44.475C22.748 44.0353 22.9902 43.4396 22.9848 42.8203C22.9591 39.8823 21.8186 36.979 19.856 34.8551C17.6975 32.519 14.6864 31.2325 11.377 31.2325H6.90114C7.65629 30.1613 8.72533 29.3088 10.0358 28.7865C15.9353 26.4348 25.2763 24.903 35.6596 24.5293V31.231ZM35.6596 16.7813V19.8836C26.9276 20.1916 18.8283 21.3026 12.6624 23.0276C13.0139 22.2065 17.097 12.5915 18.7678 9.41981C20.032 7.01985 22.2766 5.64343 24.9262 5.64343H56.3844C59.0362 5.64343 61.2817 7.0214 62.5451 9.42383C62.6915 9.70228 62.8385 9.98923 62.9857 10.2808H47.2678C45.9856 10.2808 44.9461 11.3203 44.9461 12.6025V14.4598H37.9812C36.6989 14.4596 35.6596 15.4991 35.6596 16.7813ZM75.5918 61.3567H40.3029V19.1029H44.9461V20.9602C44.9461 22.2424 45.9856 23.2818 47.2678 23.2818H68.6269C69.909 23.2818 70.9485 22.2424 70.9485 20.9602V19.1029H75.5918V61.3567Z" fill="#FF5254" stroke="white" stroke-width="1.00013"/>
</svg>
