<svg width="50" height="50" viewBox="0 0 50 50" fill="none" xmlns="http://www.w3.org/2000/svg">
<circle cx="25" cy="25" r="25" fill="#03A9F4"/>
<path d="M38 17.4861C37.0331 17.9077 36.0029 18.1872 34.9287 18.3228C36.0337 17.667 36.8771 16.6364 37.2736 15.3942C36.2434 16.0048 35.1059 16.4361 33.8936 16.6768C32.9154 15.6413 31.5211 15 30.0001 15C27.0491 15 24.6734 17.3811 24.6734 20.3001C24.6734 20.7201 24.7091 21.1239 24.7969 21.5084C20.3655 21.2935 16.4444 19.1822 13.8102 15.966C13.3504 16.7592 13.0806 17.667 13.0806 18.6443C13.0806 20.4794 14.0312 22.1061 15.4483 23.0478C14.5919 23.0317 13.7517 22.7845 13.04 22.3952C13.04 22.4114 13.04 22.4324 13.04 22.4534C13.04 25.0283 14.8876 27.1671 17.3105 27.6598C16.8766 27.7777 16.4037 27.8342 15.913 27.8342C15.5717 27.8342 15.2272 27.8148 14.9039 27.7438C15.5945 29.8422 17.5543 31.3848 19.8845 31.4349C18.071 32.8452 15.7684 33.6948 13.2756 33.6948C12.8385 33.6948 12.4192 33.6755 12 33.6222C14.3611 35.1358 17.1594 36 20.177 36C29.9855 36 35.348 27.9231 35.348 20.922C35.348 20.6878 35.3399 20.4616 35.3285 20.2371C36.3864 19.4908 37.2752 18.5587 38 17.4861Z" fill="white"/>
</svg>
