<svg width="50" height="50" viewBox="0 0 50 50" fill="none" xmlns="http://www.w3.org/2000/svg">
<circle cx="25" cy="25" r="25" fill="#1E88E5"/>
<path d="M23.1521 35.546H25.1399C25.1399 35.546 25.7408 35.4803 26.0465 35.1537C26.3293 34.8538 26.3189 34.291 26.3189 34.291C26.3189 34.291 26.2794 31.6557 27.5186 31.2675C28.7392 30.8855 30.3069 33.8145 31.9683 34.9421C33.2242 35.7945 34.1786 35.6076 34.1786 35.6076L38.622 35.546C38.622 35.546 40.9466 35.4043 39.8446 33.5988C39.7552 33.4509 39.2021 32.2637 36.5406 29.8236C33.7544 27.2684 34.1287 27.6833 37.4846 23.2652C39.5286 20.5744 40.3457 18.9312 40.09 18.2288C39.8467 17.5592 38.3434 17.7358 38.3434 17.7358L33.3448 17.7646C33.3448 17.7646 32.9747 17.7153 32.6981 17.8775C32.4299 18.0377 32.2573 18.4075 32.2573 18.4075C32.2573 18.4075 31.4651 20.4902 30.4088 22.2608C28.1819 25.997 27.2899 26.1942 26.926 25.9621C26.0798 25.4219 26.2918 23.7889 26.2918 22.6305C26.2918 19.0093 26.847 17.4996 25.2085 17.1093C24.6638 16.9799 24.2645 16.8937 22.8735 16.8793C21.0895 16.8608 19.5778 16.8854 18.7232 17.2983C18.1535 17.5735 17.7148 18.1877 17.983 18.2226C18.3136 18.2657 19.0622 18.4218 19.4593 18.9559C19.9729 19.644 19.9542 21.1927 19.9542 21.1927C19.9542 21.1927 20.2494 25.4547 19.2659 25.9847C18.5902 26.3482 17.6649 25.6067 15.6792 22.2156C14.6624 20.4799 13.8931 18.5595 13.8931 18.5595C13.8931 18.5595 13.7454 18.2021 13.4814 18.011C13.1611 17.7789 12.712 17.705 12.712 17.705L7.95877 17.7337C7.95877 17.7337 7.24558 17.7543 6.98359 18.0603C6.75071 18.3335 6.96487 18.8963 6.96487 18.8963C6.96487 18.8963 10.6868 27.4964 14.8994 31.8324C18.7648 35.8069 23.1521 35.546 23.1521 35.546Z" fill="white"/>
</svg>
