<svg width="50" height="50" viewBox="0 0 50 50" fill="none" xmlns="http://www.w3.org/2000/svg">
<circle cx="25" cy="25" r="25" fill="#FF0000"/>
<path d="M39.3872 17.851C39.0445 16.5778 38.0407 15.5741 36.7676 15.2312C34.4417 14.5947 25.1382 14.5947 25.1382 14.5947C25.1382 14.5947 15.8348 14.5947 13.5089 15.207C12.2604 15.5496 11.232 16.578 10.8894 17.851C10.2773 20.1767 10.2773 24.9999 10.2773 24.9999C10.2773 24.9999 10.2773 29.8474 10.8894 32.1488C11.2322 33.4218 12.2359 34.4257 13.5091 34.7686C15.8593 35.4051 25.1384 35.4051 25.1384 35.4051C25.1384 35.4051 34.4417 35.4051 36.7676 34.7928C38.0409 34.4502 39.0445 33.4463 39.3874 32.1733C39.9994 29.8474 39.9994 25.0244 39.9994 25.0244C39.9994 25.0244 40.0239 20.1767 39.3872 17.851Z" fill="white"/>
<path d="M22.1758 29.4567L29.9122 25.0008L22.1758 20.5449V29.4567Z" fill="#FF0000"/>
</svg>
